<svg width="116" height="812" viewBox="0 0 116 812" fill="none" xmlns="http://www.w3.org/2000/svg">
<path fill-rule="evenodd" clip-rule="evenodd" d="M15.2632 3.0469H100.737C107.481 3.0469 112.947 8.50345 112.947 15.2345V92.1689C112.947 96.3759 109.531 99.7861 105.316 99.7861H10.6842C6.4694 99.7861 3.05263 96.3759 3.05263 92.1689V15.2345C3.05263 8.50353 8.51951 3.0469 15.2632 3.0469ZM10.6842 102.071C6.4694 102.071 3.05263 105.482 3.05263 109.689V191.955C3.05263 196.162 6.4694 199.572 10.6842 199.572H105.316C109.531 199.572 112.947 196.162 112.947 191.955V109.689C112.947 105.482 109.531 102.071 105.316 102.071H10.6842ZM10.6842 300.12C6.4694 300.12 3.05263 296.71 3.05263 292.503V209.475C3.05263 205.268 6.4694 201.857 10.6842 201.857H105.316C109.531 201.857 112.947 205.268 112.947 209.475V292.503C112.947 296.71 109.531 300.12 105.316 300.12H10.6842ZM10.6842 302.405C6.4694 302.405 3.05263 305.816 3.05263 310.023V392.289C3.05263 396.496 6.4694 399.906 10.6842 399.906H105.316C109.531 399.906 112.947 396.496 112.947 392.289V310.023C112.947 305.816 109.531 302.405 105.316 302.405H10.6842ZM10.6842 499.692C6.4694 499.692 3.05263 496.282 3.05263 492.075V409.809C3.05263 405.602 6.4694 402.191 10.6842 402.191H105.316C109.531 402.191 112.947 405.602 112.947 409.809V492.075C112.947 496.282 109.531 499.692 105.316 499.692H10.6842ZM10.6842 501.977C6.4694 501.977 3.05263 505.388 3.05263 509.595V592.623C3.05263 596.83 6.4694 600.24 10.6842 600.24H105.316C109.531 600.24 112.947 596.83 112.947 592.623V509.595C112.947 505.388 109.531 501.977 105.316 501.977H10.6842ZM10.6842 700.788C6.4694 700.788 3.05263 697.378 3.05263 693.171V610.143C3.05263 605.936 6.4694 602.525 10.6842 602.525H105.316C109.531 602.525 112.947 605.936 112.947 610.143V693.171C112.947 697.378 109.531 700.788 105.316 700.788H10.6842ZM10.6842 703.073C6.4694 703.073 3.05263 706.483 3.05263 710.69V796.765C3.05263 803.499 8.51944 808.953 15.2632 808.953H100.737C107.481 808.953 112.947 803.499 112.947 796.765V710.69C112.947 706.483 109.531 703.073 105.316 703.073H10.6842ZM0 15.2345C0 6.82075 6.83355 0 15.2632 0H100.737C109.167 0 116 6.82073 116 15.2345V796.765C116 805.183 109.167 812 100.737 812H15.2632C6.83354 812 0 805.183 0 796.765V15.2345Z" fill="url(#paint0_linear_77_3001)"/>
<defs>
<linearGradient id="paint0_linear_77_3001" x1="0" y1="0" x2="116" y2="0" gradientUnits="userSpaceOnUse">
<stop stop-color="#A237A1"/>
<stop offset="0.505" stop-color="#4C5ED9"/>
<stop offset="0.93" stop-color="#4C5ED9"/>
</linearGradient>
</defs>
</svg>
