<svg width="36" height="35" viewBox="0 0 36 35" fill="none" xmlns="http://www.w3.org/2000/svg">
<path d="M15.951 1.79009C17.0987 0.830388 18.9514 0.830388 20.0662 1.79009L22.6567 3.98599C23.1485 4.39268 24.0831 4.73423 24.7389 4.73423H27.5261C29.264 4.73423 30.6904 6.14937 30.6904 7.87354V10.6388C30.6904 11.2894 31.0347 12.2004 31.4446 12.6883L33.658 15.2583C34.6253 16.3969 34.6253 18.2351 33.658 19.3411L31.4446 21.9112C31.0347 22.3991 30.6904 23.3101 30.6904 23.9607V26.7259C30.6904 28.4501 29.264 29.8653 27.5261 29.8653H24.7389C24.0831 29.8653 23.1649 30.2068 22.6731 30.6135L20.0826 32.8094C18.935 33.7691 17.0822 33.7691 15.9674 32.8094L13.377 30.6135C12.8851 30.2068 11.9505 29.8653 11.3111 29.8653H8.44192C6.70406 29.8653 5.27764 28.4501 5.27764 26.7259V23.9444C5.27764 23.3101 4.94971 22.3829 4.5399 21.9112L2.32651 19.3249C1.37554 18.2025 1.37554 16.3807 2.32651 15.2583L4.5399 12.672C4.94971 12.1841 5.27764 11.2732 5.27764 10.6388V7.88984C5.27764 6.16567 6.70406 4.75046 8.44192 4.75046H11.2784C11.9341 4.75046 12.8523 4.4089 13.3441 4.00229L15.951 1.79009Z" stroke="#F0F6FF" stroke-width="2" stroke-linecap="round" stroke-linejoin="round"/>
<path d="M12.2617 23.7327L18.0001 10.915L23.7384 23.7327" stroke="#F0F6FF" stroke-width="2" stroke-linejoin="bevel"/>
<path d="M20.8693 19.4551H15.1309" stroke="#F0F6FF" stroke-width="2" stroke-linecap="round" stroke-linejoin="round"/>
</svg>
