<svg width="40" height="40" viewBox="0 0 40 40" fill="none" xmlns="http://www.w3.org/2000/svg">
<path d="M18.0008 4.7096C19.1214 3.76347 20.9306 3.76347 22.0192 4.7096L24.5488 6.87446C25.0291 7.2754 25.9417 7.61213 26.5821 7.61213H29.3038C31.0009 7.61213 32.3938 9.00726 32.3938 10.707V13.4332C32.3938 14.0746 32.7299 14.9727 33.1302 15.4538L35.2916 17.9874C36.2361 19.11 36.2361 20.9221 35.2916 22.0125L33.1302 24.5462C32.7299 25.0273 32.3938 25.9254 32.3938 26.5668V29.2929C32.3938 30.9927 31.0009 32.3879 29.3038 32.3879H26.5821C25.9417 32.3879 25.0451 32.7246 24.5648 33.1255L22.0353 35.2904C20.9146 36.2365 19.1054 36.2365 18.0168 35.2904L15.4872 33.1255C15.0069 32.7246 14.0943 32.3879 13.4699 32.3879H10.6682C8.97114 32.3879 7.57824 30.9927 7.57824 29.2929V26.5508C7.57824 25.9254 7.25802 25.0113 6.85784 24.5462L4.69647 21.9965C3.76784 20.89 3.76784 19.094 4.69647 17.9874L6.85784 15.4377C7.25802 14.9566 7.57824 14.0586 7.57824 13.4332V10.7231C7.57824 9.02333 8.97114 7.62812 10.6682 7.62812H13.4379C14.0783 7.62812 14.9749 7.29139 15.4552 6.89053L18.0008 4.7096Z" stroke="#F0F6FF" stroke-width="2" stroke-linecap="round" stroke-linejoin="round"/>
<path d="M14.6484 26.6633L20.3868 13.8457L26.1251 26.6633" stroke="#F0F6FF" stroke-width="2" stroke-linejoin="bevel"/>
<path d="M23.256 22.3848H17.5176" stroke="#F0F6FF" stroke-width="2" stroke-linecap="round" stroke-linejoin="round"/>
</svg>
