<svg width="217" height="130" viewBox="0 0 217 130" fill="none" xmlns="http://www.w3.org/2000/svg">
<rect x="0.5" y="0.5" width="216" height="129" rx="5.5" stroke="url(#paint0_linear_593_7158)"/>
<path d="M19.9152 19.8C20.5659 19.8 21.1312 19.8907 21.6112 20.072C22.0912 20.2533 22.4859 20.5093 22.7952 20.84C23.1152 21.16 23.3499 21.5493 23.4992 22.008C23.6486 22.456 23.7232 22.952 23.7232 23.496C23.7232 24.072 23.6379 24.5947 23.4672 25.064C23.3072 25.5333 23.0672 25.9387 22.7472 26.28C22.4272 26.6107 22.0272 26.8667 21.5472 27.048C21.0672 27.2293 20.5126 27.32 19.8832 27.32H16.4432V31H14.4272V19.8H19.9152ZM16.4432 25.768H19.6272C20.3099 25.768 20.8326 25.5707 21.1952 25.176C21.5686 24.7707 21.7552 24.232 21.7552 23.56C21.7552 22.92 21.5792 22.4027 21.2272 22.008C20.8752 21.6027 20.3472 21.4 19.6432 21.4H16.4432V25.768ZM26.5506 27.384C26.6039 27.8 26.7266 28.1627 26.9186 28.472C27.1106 28.7707 27.3506 29.016 27.6386 29.208C27.9373 29.4 28.2733 29.544 28.6466 29.64C29.0199 29.7253 29.4199 29.768 29.8466 29.768C30.3373 29.768 30.8173 29.7093 31.2866 29.592C31.7666 29.4747 32.1559 29.3093 32.4546 29.096L32.9666 30.36C32.5613 30.6907 32.0759 30.9307 31.5106 31.08C30.9453 31.2293 30.3426 31.304 29.7026 31.304C29.0199 31.304 28.3799 31.2187 27.7826 31.048C27.1853 30.8773 26.6626 30.616 26.2146 30.264C25.7666 29.912 25.4146 29.4693 25.1586 28.936C24.9026 28.392 24.7746 27.752 24.7746 27.016C24.7746 26.408 24.8706 25.8427 25.0626 25.32C25.2546 24.7867 25.5373 24.328 25.9106 23.944C26.2946 23.5493 26.7693 23.24 27.3346 23.016C27.9106 22.792 28.5773 22.68 29.3346 22.68C30.0173 22.68 30.6199 22.7707 31.1426 22.952C31.6759 23.1227 32.1239 23.368 32.4866 23.688C32.8493 24.008 33.1266 24.3867 33.3186 24.824C33.5106 25.2613 33.6066 25.7413 33.6066 26.264C33.6066 26.648 33.5586 27.0213 33.4626 27.384H26.5506ZM29.4466 24.088C28.5506 24.088 27.8626 24.3013 27.3826 24.728C26.9133 25.1547 26.6359 25.704 26.5506 26.376H32.0066V26.296C32.0066 25.656 31.7986 25.128 31.3826 24.712C30.9666 24.296 30.3213 24.088 29.4466 24.088ZM37.6117 23.016V29.624H41.7877V23.016H43.7237V29.624H47.8997V23.016H49.8357V31H35.6757V23.016H37.6117ZM52.364 23.448C52.908 23.256 53.548 23.096 54.284 22.968C55.02 22.8293 55.836 22.76 56.732 22.76C57.244 22.76 57.724 22.7973 58.172 22.872C58.62 22.936 59.0093 23.0747 59.34 23.288C59.6707 23.4907 59.932 23.784 60.124 24.168C60.316 24.552 60.412 25.064 60.412 25.704V31H58.604V30.168C58.188 30.4453 57.6813 30.6853 57.084 30.888C56.4973 31.0907 55.772 31.192 54.908 31.192C54.3213 31.192 53.8253 31.1387 53.42 31.032C53.0253 30.936 52.7053 30.792 52.46 30.6C52.2253 30.408 52.0547 30.1787 51.948 29.912C51.852 29.6347 51.804 29.3253 51.804 28.984C51.804 28.5787 51.868 28.232 51.996 27.944C52.1347 27.656 52.316 27.416 52.54 27.224C52.7747 27.032 53.0467 26.8773 53.356 26.76C53.676 26.6427 54.0227 26.552 54.396 26.488C54.6627 26.4453 54.9667 26.4027 55.308 26.36C55.6493 26.3173 56.0013 26.28 56.364 26.248C56.7373 26.2053 57.1107 26.1733 57.484 26.152C57.868 26.1307 58.2253 26.1093 58.556 26.088V25.816C58.556 25.464 58.5027 25.1813 58.396 24.968C58.3 24.744 58.156 24.5733 57.964 24.456C57.772 24.328 57.5373 24.2427 57.26 24.2C56.9933 24.1573 56.6893 24.136 56.348 24.136C56.0067 24.136 55.66 24.152 55.308 24.184C54.9667 24.216 54.636 24.264 54.316 24.328C54.0067 24.3813 53.7187 24.4453 53.452 24.52C53.1853 24.5947 52.9667 24.6693 52.796 24.744L52.364 23.448ZM55.66 29.896C56.2467 29.896 56.7693 29.8373 57.228 29.72C57.6867 29.592 58.1293 29.4213 58.556 29.208V27C57.948 27.032 57.3507 27.0747 56.764 27.128C56.1773 27.1707 55.6813 27.2293 55.276 27.304C54.7213 27.4 54.3107 27.5547 54.044 27.768C53.788 27.9813 53.66 28.2907 53.66 28.696C53.66 29.0907 53.8093 29.3893 54.108 29.592C54.4067 29.7947 54.924 29.896 55.66 29.896ZM64.8149 23.016V26.248H66.9429C67.0175 25.7573 67.1669 25.2987 67.3909 24.872C67.6149 24.4347 67.9029 24.056 68.2549 23.736C68.6069 23.4053 69.0229 23.1493 69.5029 22.968C69.9935 22.776 70.5429 22.68 71.1509 22.68C71.8229 22.68 72.4202 22.7973 72.9429 23.032C73.4762 23.2667 73.9189 23.5813 74.2709 23.976C74.6335 24.3707 74.9109 24.8293 75.1029 25.352C75.2949 25.8747 75.3909 26.424 75.3909 27C75.3909 27.576 75.2949 28.1253 75.1029 28.648C74.9109 29.1707 74.6335 29.6293 74.2709 30.024C73.9189 30.4187 73.4762 30.7333 72.9429 30.968C72.4202 31.2027 71.8229 31.32 71.1509 31.32C70.5322 31.32 69.9775 31.224 69.4869 31.032C68.9962 30.84 68.5695 30.5787 68.2069 30.248C67.8549 29.9067 67.5669 29.512 67.3429 29.064C67.1295 28.616 66.9909 28.136 66.9269 27.624H64.8149V31H62.8789V23.016H64.8149ZM71.1509 24.216C70.7669 24.216 70.4202 24.2907 70.1109 24.44C69.8122 24.5893 69.5615 24.792 69.3589 25.048C69.1562 25.2933 69.0015 25.5867 68.8949 25.928C68.7882 26.2587 68.7349 26.6107 68.7349 26.984C68.7349 27.3573 68.7882 27.7147 68.8949 28.056C69.0015 28.3867 69.1562 28.68 69.3589 28.936C69.5615 29.1813 69.8122 29.3787 70.1109 29.528C70.4202 29.6773 70.7669 29.752 71.1509 29.752C71.5349 29.752 71.8762 29.6773 72.1749 29.528C72.4842 29.3787 72.7402 29.1813 72.9429 28.936C73.1455 28.68 73.3002 28.3867 73.4069 28.056C73.5135 27.7147 73.5669 27.3573 73.5669 26.984C73.5669 26.6107 73.5135 26.2587 73.4069 25.928C73.3002 25.5867 73.1455 25.2933 72.9429 25.048C72.7402 24.792 72.4842 24.5893 72.1749 24.44C71.8762 24.2907 71.5349 24.216 71.1509 24.216ZM79.3774 23.016V29.624H83.5534V23.016H85.4894V29.624H89.6654V23.016H91.6014V29.624H93.1534V33.768H91.6974V31H77.4414V23.016H79.3774ZM96.9082 23.016V28.936L102.652 23.016H104.556V31H102.652V25.08L96.9082 31H94.9882V23.016H96.9082ZM108.394 27.384C108.448 27.8 108.57 28.1627 108.762 28.472C108.954 28.7707 109.194 29.016 109.482 29.208C109.781 29.4 110.117 29.544 110.49 29.64C110.864 29.7253 111.264 29.768 111.69 29.768C112.181 29.768 112.661 29.7093 113.13 29.592C113.61 29.4747 114 29.3093 114.298 29.096L114.81 30.36C114.405 30.6907 113.92 30.9307 113.354 31.08C112.789 31.2293 112.186 31.304 111.546 31.304C110.864 31.304 110.224 31.2187 109.626 31.048C109.029 30.8773 108.506 30.616 108.058 30.264C107.61 29.912 107.258 29.4693 107.002 28.936C106.746 28.392 106.618 27.752 106.618 27.016C106.618 26.408 106.714 25.8427 106.906 25.32C107.098 24.7867 107.381 24.328 107.754 23.944C108.138 23.5493 108.613 23.24 109.178 23.016C109.754 22.792 110.421 22.68 111.178 22.68C111.861 22.68 112.464 22.7707 112.986 22.952C113.52 23.1227 113.968 23.368 114.33 23.688C114.693 24.008 114.97 24.3867 115.162 24.824C115.354 25.2613 115.45 25.7413 115.45 26.264C115.45 26.648 115.402 27.0213 115.306 27.384H108.394ZM111.29 24.088C110.394 24.088 109.706 24.3013 109.226 24.728C108.757 25.1547 108.48 25.704 108.394 26.376H113.85V26.296C113.85 25.656 113.642 25.128 113.226 24.712C112.81 24.296 112.165 24.088 111.29 24.088ZM23.3872 43.016V51H21.4512V44.36H16.2992V51H14.3632V43.016H23.3872ZM27.2069 47.384C27.2602 47.8 27.3829 48.1627 27.5749 48.472C27.7669 48.7707 28.0069 49.016 28.2949 49.208C28.5935 49.4 28.9295 49.544 29.3029 49.64C29.6762 49.7253 30.0762 49.768 30.5029 49.768C30.9935 49.768 31.4735 49.7093 31.9429 49.592C32.4229 49.4747 32.8122 49.3093 33.1109 49.096L33.6229 50.36C33.2175 50.6907 32.7322 50.9307 32.1669 51.08C31.6015 51.2293 30.9989 51.304 30.3589 51.304C29.6762 51.304 29.0362 51.2187 28.4389 51.048C27.8415 50.8773 27.3189 50.616 26.8709 50.264C26.4229 49.912 26.0709 49.4693 25.8149 48.936C25.5589 48.392 25.4309 47.752 25.4309 47.016C25.4309 46.408 25.5269 45.8427 25.7189 45.32C25.9109 44.7867 26.1935 44.328 26.5669 43.944C26.9509 43.5493 27.4255 43.24 27.9909 43.016C28.5669 42.792 29.2335 42.68 29.9909 42.68C30.6735 42.68 31.2762 42.7707 31.7989 42.952C32.3322 43.1227 32.7802 43.368 33.1429 43.688C33.5055 44.008 33.7829 44.3867 33.9749 44.824C34.1669 45.2613 34.2629 45.7413 34.2629 46.264C34.2629 46.648 34.2149 47.0213 34.1189 47.384H27.2069ZM30.1029 44.088C29.2069 44.088 28.5189 44.3013 28.0389 44.728C27.5695 45.1547 27.2922 45.704 27.2069 46.376H32.6629V46.296C32.6629 45.656 32.4549 45.128 32.0389 44.712C31.6229 44.296 30.9775 44.088 30.1029 44.088ZM38.204 43.016V44.008C38.652 43.624 39.1533 43.32 39.708 43.096C40.2733 42.872 40.8867 42.76 41.548 42.76C42.1453 42.76 42.6947 42.856 43.196 43.048C43.708 43.2293 44.1507 43.5013 44.524 43.864C44.8973 44.216 45.1907 44.6587 45.404 45.192C45.6173 45.7253 45.724 46.3333 45.724 47.016C45.724 47.6987 45.6173 48.3067 45.404 48.84C45.1907 49.3627 44.8973 49.8053 44.524 50.168C44.1507 50.52 43.708 50.792 43.196 50.984C42.684 51.1653 42.1293 51.256 41.532 51.256C40.86 51.256 40.268 51.1493 39.756 50.936C39.244 50.712 38.748 50.4027 38.268 50.008V54.712H36.332V43.016H38.204ZM40.972 44.248C40.46 44.248 39.9853 44.3387 39.548 44.52C39.1107 44.7013 38.684 44.9467 38.268 45.256V48.728C38.684 49.0373 39.116 49.2827 39.564 49.464C40.012 49.6453 40.492 49.736 41.004 49.736C41.868 49.736 42.5453 49.4853 43.036 48.984C43.5373 48.4827 43.788 47.8213 43.788 47C43.788 46.1467 43.532 45.4747 43.02 44.984C42.508 44.4933 41.8253 44.248 40.972 44.248ZM49.0975 47.384C49.1508 47.8 49.2735 48.1627 49.4655 48.472C49.6575 48.7707 49.8975 49.016 50.1855 49.208C50.4842 49.4 50.8202 49.544 51.1935 49.64C51.5668 49.7253 51.9668 49.768 52.3935 49.768C52.8842 49.768 53.3642 49.7093 53.8335 49.592C54.3135 49.4747 54.7028 49.3093 55.0015 49.096L55.5135 50.36C55.1082 50.6907 54.6228 50.9307 54.0575 51.08C53.4922 51.2293 52.8895 51.304 52.2495 51.304C51.5668 51.304 50.9268 51.2187 50.3295 51.048C49.7322 50.8773 49.2095 50.616 48.7615 50.264C48.3135 49.912 47.9615 49.4693 47.7055 48.936C47.4495 48.392 47.3215 47.752 47.3215 47.016C47.3215 46.408 47.4175 45.8427 47.6095 45.32C47.8015 44.7867 48.0842 44.328 48.4575 43.944C48.8415 43.5493 49.3162 43.24 49.8815 43.016C50.4575 42.792 51.1242 42.68 51.8815 42.68C52.5642 42.68 53.1668 42.7707 53.6895 42.952C54.2228 43.1227 54.6708 43.368 55.0335 43.688C55.3962 44.008 55.6735 44.3867 55.8655 44.824C56.0575 45.2613 56.1535 45.7413 56.1535 46.264C56.1535 46.648 56.1055 47.0213 56.0095 47.384H49.0975ZM51.9935 44.088C51.0975 44.088 50.4095 44.3013 49.9295 44.728C49.4602 45.1547 49.1828 45.704 49.0975 46.376H54.5535V46.296C54.5535 45.656 54.3455 45.128 53.9295 44.712C53.5135 44.296 52.8682 44.088 51.9935 44.088ZM60.4146 43.016L64.0946 49.064L67.9026 43.016H69.9346V51H68.2546V45.288L64.7026 51H63.4386L59.9186 45.32V51H58.2226V43.016H60.4146ZM73.7537 47.384C73.8071 47.8 73.9297 48.1627 74.1217 48.472C74.3137 48.7707 74.5537 49.016 74.8417 49.208C75.1404 49.4 75.4764 49.544 75.8497 49.64C76.2231 49.7253 76.6231 49.768 77.0497 49.768C77.5404 49.768 78.0204 49.7093 78.4897 49.592C78.9697 49.4747 79.3591 49.3093 79.6577 49.096L80.1697 50.36C79.7644 50.6907 79.2791 50.9307 78.7137 51.08C78.1484 51.2293 77.5457 51.304 76.9057 51.304C76.2231 51.304 75.5831 51.2187 74.9857 51.048C74.3884 50.8773 73.8657 50.616 73.4177 50.264C72.9697 49.912 72.6177 49.4693 72.3617 48.936C72.1057 48.392 71.9777 47.752 71.9777 47.016C71.9777 46.408 72.0737 45.8427 72.2657 45.32C72.4577 44.7867 72.7404 44.328 73.1137 43.944C73.4977 43.5493 73.9724 43.24 74.5377 43.016C75.1137 42.792 75.7804 42.68 76.5377 42.68C77.2204 42.68 77.8231 42.7707 78.3457 42.952C78.8791 43.1227 79.3271 43.368 79.6897 43.688C80.0524 44.008 80.3297 44.3867 80.5217 44.824C80.7137 45.2613 80.8097 45.7413 80.8097 46.264C80.8097 46.648 80.7617 47.0213 80.6657 47.384H73.7537ZM76.6497 44.088C75.7537 44.088 75.0657 44.3013 74.5857 44.728C74.1164 45.1547 73.8391 45.704 73.7537 46.376H79.2097V46.296C79.2097 45.656 79.0017 45.128 78.5857 44.712C78.1697 44.296 77.5244 44.088 76.6497 44.088ZM84.8149 43.016V46.248H89.9669V43.016H91.9029V51H89.9669V47.624H84.8149V51H82.8789V43.016H84.8149ZM96.3305 43.016V46.248H101.482V43.016H103.418V51H101.482V47.624H96.3305V51H94.3945V43.016H96.3305ZM107.83 43.016V45.4H111.718C112.753 45.4 113.537 45.6613 114.07 46.184C114.603 46.696 114.87 47.384 114.87 48.248C114.87 49.0693 114.614 49.736 114.102 50.248C113.601 50.7493 112.817 51 111.75 51H105.91V43.016H107.83ZM107.83 49.672H111.334C111.878 49.672 112.283 49.5387 112.55 49.272C112.827 48.9947 112.966 48.6373 112.966 48.2C112.966 47.7413 112.822 47.3733 112.534 47.096C112.246 46.8187 111.841 46.68 111.318 46.68H107.83V49.672ZM118.566 43.016V51H116.63V43.016H118.566ZM122.394 47.384C122.448 47.8 122.57 48.1627 122.762 48.472C122.954 48.7707 123.194 49.016 123.482 49.208C123.781 49.4 124.117 49.544 124.49 49.64C124.864 49.7253 125.264 49.768 125.69 49.768C126.181 49.768 126.661 49.7093 127.13 49.592C127.61 49.4747 128 49.3093 128.298 49.096L128.81 50.36C128.405 50.6907 127.92 50.9307 127.354 51.08C126.789 51.2293 126.186 51.304 125.546 51.304C124.864 51.304 124.224 51.2187 123.626 51.048C123.029 50.8773 122.506 50.616 122.058 50.264C121.61 49.912 121.258 49.4693 121.002 48.936C120.746 48.392 120.618 47.752 120.618 47.016C120.618 46.408 120.714 45.8427 120.906 45.32C121.098 44.7867 121.381 44.328 121.754 43.944C122.138 43.5493 122.613 43.24 123.178 43.016C123.754 42.792 124.421 42.68 125.178 42.68C125.861 42.68 126.464 42.7707 126.986 42.952C127.52 43.1227 127.968 43.368 128.33 43.688C128.693 44.008 128.97 44.3867 129.162 44.824C129.354 45.2613 129.45 45.7413 129.45 46.264C129.45 46.648 129.402 47.0213 129.306 47.384H122.394ZM125.29 44.088C124.394 44.088 123.706 44.3013 123.226 44.728C122.757 45.1547 122.48 45.704 122.394 46.376H127.85V46.296C127.85 45.656 127.642 45.128 127.226 44.712C126.81 44.296 126.165 44.088 125.29 44.088Z" fill="#F0F6FF"/>
<defs>
<linearGradient id="paint0_linear_593_7158" x1="0" y1="0" x2="217" y2="0" gradientUnits="userSpaceOnUse">
<stop offset="0.03" stop-color="#A237A1"/>
<stop offset="0.575" stop-color="#4C5ED9"/>
<stop offset="0.93" stop-color="#4C5ED9"/>
</linearGradient>
</defs>
</svg>
