<svg width="1920" height="1080" viewBox="0 0 1920 1080" fill="none" xmlns="http://www.w3.org/2000/svg">
<g clip-path="url(#clip0_19_3129)">
<mask id="mask0_19_3129" style="mask-type:alpha" maskUnits="userSpaceOnUse" x="-908" y="-527" width="3342" height="7122">
<path style="mix-blend-mode:overlay" d="M995.264 -514.429H-786.148C-846.459 -514.429 -895.351 -480.187 -895.351 -437.948V899.812C-895.351 942.052 -846.459 976.293 -786.148 976.293H995.264C1055.58 976.293 1104.47 942.052 1104.47 899.812V-437.948C1104.47 -480.187 1055.58 -514.429 995.264 -514.429Z" fill="url(#paint0_linear_19_3129)"/>
<path style="mix-blend-mode:overlay" d="M765.472 976.292L1102.24 572.796V176.893L434.97 976.292H765.472Z" fill="url(#paint1_linear_19_3129)"/>
<path style="mix-blend-mode:overlay" d="M269.75 976.292L1102.24 -21.0376V-219.01L104.529 976.292H269.75Z" fill="url(#paint2_linear_19_3129)"/>
<path style="mix-blend-mode:overlay" d="M1102.24 -392.979V-458.956C1102.24 -489.624 1081.52 -514.471 1055.92 -514.471H120.551L-897.519 705.256V920.778C-897.519 951.446 -876.799 976.293 -851.199 976.293H-40.6947L1102.24 -392.979Z" fill="url(#paint3_linear_19_3129)"/>
<g style="mix-blend-mode:overlay">
<path style="mix-blend-mode:overlay" d="M765.472 976.292L1102.24 572.796V176.893L434.97 976.292H765.472Z" fill="url(#paint4_linear_19_3129)"/>
<path style="mix-blend-mode:overlay" d="M269.75 976.292L1102.24 -21.0376V-219.01L104.529 976.292H269.75Z" fill="url(#paint5_linear_19_3129)"/>
<path style="mix-blend-mode:overlay" d="M1102.24 -392.979V-458.956C1102.24 -489.624 1081.52 -514.471 1055.92 -514.471H120.551L-897.519 705.256V920.778C-897.519 951.446 -876.799 976.293 -851.199 976.293H-40.6948L1102.24 -392.979Z" fill="url(#paint6_linear_19_3129)"/>
</g>
<path style="mix-blend-mode:overlay" d="M1055.92 -527H-851.2C-882.521 -527 -908 -496.458 -908 -458.956V920.778C-908 958.28 -882.521 988.822 -851.2 988.822H1055.92C1087.24 988.822 1112.72 958.28 1112.72 920.778V-458.956C1112.72 -496.458 1087.24 -527 1055.92 -527ZM1102.24 920.778C1102.24 951.446 1081.52 976.293 1055.92 976.293H-851.2C-876.799 976.293 -897.519 951.446 -897.519 920.778V-458.956C-897.519 -489.624 -876.799 -514.471 -851.2 -514.471H1055.92C1081.52 -514.471 1102.24 -489.624 1102.24 -458.956V920.778Z" fill="url(#paint7_linear_19_3129)"/>
<path style="mix-blend-mode:overlay" opacity="0.96" d="M1055.92 -527H-851.2C-882.521 -527 -908 -496.458 -908 -458.956V920.778C-908 958.28 -882.521 988.822 -851.2 988.822H1055.92C1087.24 988.822 1112.72 958.28 1112.72 920.778V-458.956C1112.72 -496.458 1087.24 -527 1055.92 -527ZM1102.24 920.778C1102.24 951.446 1081.52 976.293 1055.92 976.293H-851.2C-876.799 976.293 -897.519 951.446 -897.519 920.778V-458.956C-897.519 -489.624 -876.799 -514.471 -851.2 -514.471H1055.92C1081.52 -514.471 1102.24 -489.624 1102.24 -458.956V920.778Z" fill="url(#paint8_linear_19_3129)"/>
</mask>
<g mask="url(#mask0_19_3129)">
<path d="M756.245 231.602C756.245 643.11 412.189 976.703 -12.2252 976.703C-436.64 976.703 -780.695 643.11 -780.695 231.602C-780.695 -179.906 -436.64 -513.5 -12.2252 -513.5C412.189 -513.5 756.245 -179.906 756.245 231.602Z" fill="#D9D9D9"/>
<path d="M756.245 231.602C756.245 643.11 412.189 976.703 -12.2252 976.703C-436.64 976.703 -780.695 643.11 -780.695 231.602C-780.695 -179.906 -436.64 -513.5 -12.2252 -513.5C412.189 -513.5 756.245 -179.906 756.245 231.602Z" fill="#D9D9D9"/>
<g filter="url(#filter0_f_19_3129)">
<rect x="-707.097" y="-330.278" width="1394.38" height="1193.83" rx="596.916" fill="black"/>
</g>
<g filter="url(#filter1_f_19_3129)">
<rect x="-774.728" y="-513.5" width="1503.79" height="1488.91" rx="744.457" fill="black"/>
</g>
</g>
</g>
<defs>
<filter id="filter0_f_19_3129" x="-747.097" y="-370.278" width="1474.38" height="1273.83" filterUnits="userSpaceOnUse" color-interpolation-filters="sRGB">
<feFlood flood-opacity="0" result="BackgroundImageFix"/>
<feBlend mode="normal" in="SourceGraphic" in2="BackgroundImageFix" result="shape"/>
<feGaussianBlur stdDeviation="20" result="effect1_foregroundBlur_19_3129"/>
</filter>
<filter id="filter1_f_19_3129" x="-814.728" y="-553.5" width="1583.79" height="1568.92" filterUnits="userSpaceOnUse" color-interpolation-filters="sRGB">
<feFlood flood-opacity="0" result="BackgroundImageFix"/>
<feBlend mode="normal" in="SourceGraphic" in2="BackgroundImageFix" result="shape"/>
<feGaussianBlur stdDeviation="20" result="effect1_foregroundBlur_19_3129"/>
</filter>
<linearGradient id="paint0_linear_19_3129" x1="-1144.6" y1="718.334" x2="880.358" y2="-892.61" gradientUnits="userSpaceOnUse">
<stop stop-color="white" stop-opacity="0.1"/>
<stop offset="0.09" stop-color="white" stop-opacity="0.12"/>
<stop offset="0.19" stop-color="white" stop-opacity="0.16"/>
<stop offset="0.28" stop-color="white" stop-opacity="0.24"/>
<stop offset="0.37" stop-color="white" stop-opacity="0.35"/>
<stop offset="0.46" stop-color="white" stop-opacity="0.5"/>
<stop offset="0.74" stop-color="white" stop-opacity="0.2"/>
<stop offset="1" stop-color="white" stop-opacity="0.6"/>
</linearGradient>
<linearGradient id="paint1_linear_19_3129" x1="1066.16" y1="787.685" x2="778.749" y2="371.951" gradientUnits="userSpaceOnUse">
<stop offset="0.09" stop-color="white" stop-opacity="0"/>
<stop offset="0.52" stop-color="white" stop-opacity="0"/>
<stop offset="0.68" stop-color="white" stop-opacity="0.03"/>
<stop offset="0.79" stop-color="white" stop-opacity="0.08"/>
<stop offset="0.88" stop-color="white" stop-opacity="0.15"/>
<stop offset="0.95" stop-color="white" stop-opacity="0.23"/>
<stop offset="1" stop-color="white" stop-opacity="0.3"/>
</linearGradient>
<linearGradient id="paint2_linear_19_3129" x1="831.248" y1="529.81" x2="605.833" y2="224.904" gradientUnits="userSpaceOnUse">
<stop offset="0.09" stop-color="white" stop-opacity="0"/>
<stop offset="0.32" stop-color="white" stop-opacity="0.01"/>
<stop offset="0.52" stop-color="white" stop-opacity="0.05"/>
<stop offset="0.71" stop-color="white" stop-opacity="0.12"/>
<stop offset="0.88" stop-color="white" stop-opacity="0.22"/>
<stop offset="1" stop-color="white" stop-opacity="0.3"/>
</linearGradient>
<linearGradient id="paint3_linear_19_3129" x1="-929.142" y1="985.405" x2="60.9007" y2="-586.076" gradientUnits="userSpaceOnUse">
<stop stop-color="white" stop-opacity="0.3"/>
<stop offset="0.16" stop-color="white" stop-opacity="0.2"/>
<stop offset="0.53" stop-color="white" stop-opacity="0"/>
</linearGradient>
<linearGradient id="paint4_linear_19_3129" x1="1360.46" y1="249.492" x2="924.912" y2="930.367" gradientUnits="userSpaceOnUse">
<stop stop-color="white" stop-opacity="0.2"/>
<stop offset="1" stop-color="white" stop-opacity="0"/>
</linearGradient>
<linearGradient id="paint5_linear_19_3129" x1="1776.5" y1="-376.823" x2="802.639" y2="998.648" gradientUnits="userSpaceOnUse">
<stop stop-color="white" stop-opacity="0.2"/>
<stop offset="1" stop-color="white" stop-opacity="0"/>
</linearGradient>
<linearGradient id="paint6_linear_19_3129" x1="-420.769" y1="-144.765" x2="148.147" y2="688.22" gradientUnits="userSpaceOnUse">
<stop stop-color="white" stop-opacity="0.3"/>
<stop offset="0.02" stop-color="white" stop-opacity="0.23"/>
<stop offset="0.04" stop-color="white" stop-opacity="0.15"/>
<stop offset="0.07" stop-color="white" stop-opacity="0.08"/>
<stop offset="0.11" stop-color="white" stop-opacity="0.03"/>
<stop offset="0.16" stop-color="white" stop-opacity="0"/>
<stop offset="0.3" stop-color="white" stop-opacity="0"/>
</linearGradient>
<linearGradient id="paint7_linear_19_3129" x1="-1405.05" y1="979.879" x2="666.254" y2="-1118.28" gradientUnits="userSpaceOnUse">
<stop offset="0.05" stop-color="white"/>
<stop offset="0.19" stop-color="white" stop-opacity="0.5"/>
<stop offset="0.31" stop-color="white" stop-opacity="0.48"/>
<stop offset="0.45" stop-color="white" stop-opacity="0.43"/>
<stop offset="0.6" stop-color="white" stop-opacity="0.33"/>
<stop offset="0.65" stop-color="white" stop-opacity="0.3"/>
<stop offset="0.93" stop-color="white" stop-opacity="0.8"/>
</linearGradient>
<linearGradient id="paint8_linear_19_3129" x1="-1405.05" y1="979.879" x2="666.254" y2="-1118.28" gradientUnits="userSpaceOnUse">
<stop offset="0.05" stop-color="white"/>
<stop offset="0.19" stop-color="white" stop-opacity="0.5"/>
<stop offset="0.31" stop-color="white" stop-opacity="0.48"/>
<stop offset="0.45" stop-color="white" stop-opacity="0.43"/>
<stop offset="0.6" stop-color="white" stop-opacity="0.33"/>
<stop offset="0.65" stop-color="white" stop-opacity="0.3"/>
<stop offset="0.93" stop-color="white" stop-opacity="0.8"/>
</linearGradient>
<clipPath id="clip0_19_3129">
<rect width="1920" height="1080" fill="white"/>
</clipPath>
</defs>
</svg>
