<svg width="24" height="25" viewBox="0 0 24 25" fill="none" xmlns="http://www.w3.org/2000/svg">
<path d="M11 8.5H13C15.8284 8.5 17.2426 8.5 18.1213 9.37868C19 10.2574 19 11.6716 19 14.5C19 17.3284 19 18.7426 18.1213 19.6213C17.2426 20.5 15.8284 20.5 13 20.5H12C12 20.5 11.5 22.5 8 22.5C8 22.5 9 21.4913 9 20.4827C7.44655 20.4359 6.51998 20.2626 5.87868 19.6213C5 18.7426 5 17.3284 5 14.5C5 11.6716 5 10.2574 5.87868 9.37868C6.75736 8.5 8.17157 8.5 11 8.5Z" stroke="#F0F6FF" stroke-width="1.5" stroke-linejoin="round"/>
<path d="M19 12H19.5C20.4346 12 20.9019 12 21.25 12.201C21.478 12.3326 21.6674 12.522 21.799 12.75C22 13.0981 22 13.5654 22 14.5C22 15.4346 22 15.9019 21.799 16.25C21.6674 16.478 21.478 16.6674 21.25 16.799C20.9019 17 20.4346 17 19.5 17H19" stroke="#F0F6FF" stroke-width="1.5" stroke-linejoin="round"/>
<path d="M5 12H4.5C3.56538 12 3.09808 12 2.75 12.201C2.52197 12.3326 2.33261 12.522 2.20096 12.75C2 13.0981 2 13.5654 2 14.5C2 15.4346 2 15.9019 2.20096 16.25C2.33261 16.478 2.52197 16.6674 2.75 16.799C3.09808 17 3.56538 17 4.5 17H5" stroke="#F0F6FF" stroke-width="1.5" stroke-linejoin="round"/>
<path d="M13.5 4C13.5 4.82843 12.8284 5.5 12 5.5C11.1716 5.5 10.5 4.82843 10.5 4C10.5 3.17157 11.1716 2.5 12 2.5C12.8284 2.5 13.5 3.17157 13.5 4Z" stroke="#F0F6FF" stroke-width="1.5"/>
<path d="M12 5.5V8.5" stroke="#F0F6FF" stroke-width="1.5" stroke-linecap="round" stroke-linejoin="round"/>
<path d="M9 12.5V13.5M15 12.5V13.5" stroke="#F0F6FF" stroke-width="1.5" stroke-linecap="round" stroke-linejoin="round"/>
<path d="M10 17C10 17 10.6667 17.5 12 17.5C13.3333 17.5 14 17 14 17" stroke="#F0F6FF" stroke-width="1.5" stroke-linecap="round"/>
</svg>
