<svg width="43" height="41" viewBox="0 0 43 41" fill="none" xmlns="http://www.w3.org/2000/svg">
<g clip-path="url(#clip0_119_1393)">
<g clip-path="url(#clip1_119_1393)">
<path d="M6.77531 15.3726L7.05756 15.791C6.49305 15.7744 5.90197 15.7199 5.78906 15.4784C5.78906 15.4668 5.79238 15.4553 5.7957 15.4437C6.11117 15.361 6.38181 15.356 6.77531 15.3726ZM9.77389 16.646L9.91003 17.0595L9.59125 17.0727L9.66762 16.6493C9.7031 16.6493 9.73856 16.6493 9.77389 16.646ZM10.8598 19.6643C10.5775 19.9223 10.36 20.0943 10.1923 20.4862C9.95984 20.296 9.83864 19.919 9.76392 19.4972C9.68091 19.0375 9.65434 18.5264 9.59125 18.1444L9.61117 17.9492L9.93826 17.9261L10.7718 19.4972L10.8598 19.6626V19.6643ZM10.438 15.791C10.4794 15.5085 10.522 15.2263 10.5659 14.9442L10.6738 14.9376C10.5941 15.2221 10.5144 15.5065 10.438 15.791ZM10.2106 11.9508L11.7049 12.3543C11.7024 12.3763 11.7002 12.3984 11.6982 12.4205C11.0025 12.9331 10.36 13.1581 10.0146 14.0842L10.1458 12.0235L10.2106 11.9524V11.9508ZM11.6052 9.81731C11.5089 10.7765 11.6451 11.1999 11.8128 11.7953C12.0784 11.9838 12.1847 12.098 12.0984 12.3775C11.6501 12.1558 11.1752 11.9243 10.4878 11.9607C10.4711 11.9415 10.4545 11.9222 10.438 11.9028C10.6306 11.147 11.0059 10.6823 11.2964 10.0836L11.6069 9.81565L11.6052 9.81731ZM13.7537 8.54054L13.8185 8.53558C13.6126 9.24342 13.5296 10.8758 13.1693 11.5241C12.3175 11.1222 12.3341 9.38069 13.2872 8.69269L13.7537 8.54054ZM12.9601 13.7832L13.6774 14.5589C13.3951 15.4222 12.8621 16.0721 12.6363 17.0727L12.2129 17.0396C11.851 16.0324 12.7559 14.3918 12.9103 13.6575L13.5744 13.7336C13.6574 13.9403 13.7371 14.1471 13.8185 14.3555L12.9601 13.7832ZM14.9226 8.53393C14.8496 9.37242 15.0355 9.80738 15.0853 10.4557C14.6636 10.6707 14.2402 10.8824 13.8185 11.0957C13.8968 10.2278 14.1056 9.37648 14.4378 8.57031L14.9226 8.53393ZM15.4141 7.26047L15.5087 7.25385L15.3659 7.66235L15.0853 7.68054L15.3012 7.42751L15.4141 7.26047ZM15.5087 11.1718L14.2402 11.9491C14.2668 11.4794 14.8678 10.846 15.3709 10.6707L15.4871 10.7335L15.5087 11.1718ZM16.3555 8.23127C16.2775 8.66458 16.2011 9.09623 16.1264 9.52954L15.8889 9.67838L15.7627 9.81565C15.5336 9.49481 15.4755 8.70758 15.5253 8.10889L16.3555 8.23127ZM17.1989 7.25551C17.1989 7.27204 17.1956 7.28528 17.194 7.29851L16.8702 7.60777C16.6543 7.69047 16.6278 7.68716 16.3555 7.67724C16.3904 7.53666 16.4302 7.39608 16.4684 7.25551H17.1989ZM18.0457 5.54874L17.6672 6.40047L16.3555 6.3062L16.3605 6.23674C16.9001 5.98866 17.3733 5.69428 18.0441 5.54709L18.0457 5.54874ZM17.3617 7.76489L17.5011 7.6822L17.6223 8.10889L17.1989 8.0262L17.3617 7.76324V7.76489ZM18.4674 9.02677C17.9644 9.22192 17.2687 9.16735 16.8652 9.39062C16.8362 9.21966 16.8069 9.04876 16.7772 8.87792L17.0395 8.53558C17.4663 8.70096 17.893 8.86966 18.318 9.03669L18.4674 9.02677ZM17.3866 9.79415L16.8121 9.81565C16.7988 9.75611 16.7888 9.69658 16.7772 9.63538C17.1807 9.47165 17.8581 9.45677 18.4674 9.38896L17.8249 9.74123L17.3866 9.79415ZM18.8892 9.79415C18.406 9.91488 17.9428 10.3399 17.6257 10.6707C17.5642 10.2837 18.3097 9.60231 18.6667 9.38896C18.8244 9.52954 18.841 9.51465 18.8892 9.79415ZM19.7359 4.69536L19.7293 4.76151L19.2212 5.06747L18.4674 5.12205L18.4741 5.0559L19.7359 4.69536ZM19.0519 5.97543L18.8892 5.73563C19.271 5.41643 20.1128 5.59174 20.5811 5.6397L19.0519 5.97543ZM22.8341 4.71851C23.5398 4.7764 24.1857 4.94178 24.6771 5.24774L24.8066 5.23947L24.7286 5.34863L24.0528 5.54709C23.6461 5.49086 23.2393 5.43132 22.8341 5.37343L20.1577 4.9947L20.1643 4.94013C21.0381 4.73342 21.9382 4.65926 22.8341 4.72017V4.71851ZM25.6451 4.49359L25.4957 4.69536C25.0905 4.66649 24.7032 4.51793 24.3832 4.26867L25.6517 4.42909L25.6451 4.49359ZM27.8965 6.07136L28.2469 5.93905L28.6105 6.24997C28.5607 6.60555 28.217 6.89662 27.953 7.24228L27.7504 7.25551C27.1992 6.34589 26.5035 5.35193 25.2832 5.00132L25.23 4.89382L25.7231 4.69536C26.5517 4.98313 27.2424 5.41974 28.0111 5.67113C28.1107 5.91093 28.0792 5.82989 27.8949 6.07136H27.8965ZM28.916 8.094L28.8197 7.99973L28.6105 8.01462L28.9592 7.68385L28.916 8.094ZM29.2896 12.8041C29.8607 13.297 30.0068 14.0114 29.7694 14.9376C29.5237 14.3885 29.2796 13.8378 29.0322 13.2887C29.1152 13.1663 29.1933 13.044 29.2746 12.9216C29.2796 12.8819 29.2829 12.8422 29.2896 12.8041ZM29.4556 8.96723L29.449 9.04662L29.1484 9.38896L29.0322 9.16239C29.2132 8.83989 29.082 9.01354 29.3194 8.98046L29.4556 8.96723ZM29.8076 8.96227L31.1458 9.45677C31.1437 9.50101 31.1398 9.54514 31.1342 9.58908C31.0213 9.66681 30.9084 9.74123 30.7955 9.81565L29.4556 9.32281L29.4672 9.18885L29.8076 8.96227ZM32.4143 10.6707L31.6722 10.1795L31.5692 9.98104C31.8913 9.78258 31.8448 9.7925 32.1852 9.85865C32.2599 10.1299 32.338 10.4011 32.4143 10.6707ZM32.8361 10.5086L32.6866 10.6707C32.5073 10.5781 32.4758 10.4607 32.4143 10.2423L32.8012 10.411L32.8361 10.5086ZM32.5206 9.28642L32.4143 9.29469C32.5306 9.18389 32.6468 9.07308 32.7663 8.96392C32.6833 9.07142 32.6003 9.17892 32.5206 9.28642ZM34.5279 11.4331L34.3204 11.5241C33.9431 11.3136 33.5662 11.1024 33.1897 10.8907C33.0715 10.731 32.9536 10.5711 32.8361 10.411C33.4222 9.98104 33.4437 10.4805 33.9966 10.7534L34.5279 11.4331ZM34.9497 11.8102L34.5279 11.6564L34.782 11.5241L34.9497 11.8102ZM34.435 12.4982C34.5877 12.8041 34.5877 12.7181 34.9497 12.6718L34.3005 13.2308L33.6812 12.0533L33.6895 11.9805C34.1461 11.883 34.2922 12.0467 34.7388 12.1128L34.9098 12.3874L34.435 12.4982ZM34.5279 13.2639L35.3731 12.8041C35.2037 13.1845 34.9829 13.3797 34.7222 13.6575L34.5279 13.2639ZM36.2182 14.8929C35.989 15.0898 35.8396 15.1526 35.4063 15.189L35.7549 15.227L35.7483 15.2882L34.5578 15.791L34.5279 14.2695L35.3482 13.302L35.4976 13.2308L36.2182 14.8929ZM35.7948 12.5577C38.1292 11.9094 37.6776 13.1432 36.6366 14.0842C36.3543 13.5765 36.0737 13.0671 35.7948 12.5577ZM37.9084 12.8041C37.0483 16.8296 36.8823 17.0496 33.8406 18.7795C33.7896 18.6982 33.7364 18.6182 33.6812 18.5397L33.7891 18.0898C35.7732 17.5275 36.9006 16.4922 36.7827 14.1487L37.7772 12.8753L37.9084 12.8041ZM38.0113 12.8041C37.9781 12.6652 37.9449 12.5263 37.9084 12.3874L38.2239 12.3775L38.0113 12.8041ZM32.8361 16.7188L32.8659 16.2739L32.8925 15.8935L33.1847 15.7959C33.1997 15.7959 33.213 15.7926 33.2262 15.791C33.3093 16.2954 33.2262 16.6675 33.0602 17.0727C32.9174 16.9818 32.8892 16.9437 32.8361 16.7188ZM31.1458 20.4532L31.1525 20.3787L31.707 19.0573L31.8232 18.7795L32.7995 18.8456C32.8145 18.9184 32.8244 18.9895 32.8294 19.0573C32.8726 19.5601 32.6982 19.962 32.5189 20.4862L31.1458 20.4532ZM31.5692 22.1665L31.5808 21.505L31.5974 21.3396L32.3114 21.3925L32.4143 21.3843C32.25 21.6539 32.0872 21.9234 31.9262 22.1947L31.5692 22.1665ZM31.1508 19.4046L31.194 19.3831L31.531 19.2095L31.5692 19.2062L31.5194 19.3831L31.3218 20.0595L31.1458 19.4576L31.1508 19.4046ZM30.4916 21.5298L30.3007 21.3396C30.4867 21.4686 30.3655 21.3429 30.4916 21.5298ZM29.4556 21.0221C29.693 20.8732 29.9504 20.9195 30.3024 20.9229L30.1978 21.2652C29.9072 21.381 29.8657 21.338 29.5386 21.3032L29.4556 21.0221ZM29.9736 22.6197L30.3007 23.3904C30.0483 23.5607 29.7943 23.7294 29.5419 23.9014C29.3161 23.5922 29.5619 22.7272 29.9736 22.6197ZM29.1385 19.9405L29.0322 19.9487L29.1717 19.6329L29.1385 19.9405ZM30.3555 20.0595L30.3007 20.0248L30.4867 19.6345L30.5481 19.6329L30.7241 20.043L30.3555 20.0595ZM33.2827 14.5109L33.2594 14.367C33.3707 14.2314 33.4421 14.1471 33.633 14.0859L33.6828 14.3373C33.5998 14.3918 33.5168 14.4448 33.4354 14.501L33.2827 14.5109ZM33.2594 15.5528C33.1831 15.6537 33.0469 15.7099 32.9506 15.791L32.8361 13.6575L33.2594 15.5528ZM32.4841 18.414C32.763 18.2585 32.8028 18.4024 32.8361 18.7778H31.9909L32.0059 18.6455L32.4841 18.414ZM32.069 17.2348L32.2599 17.0727L32.4143 17.3472L32.3429 17.4994L31.9909 17.4581L32.069 17.2348ZM31.9909 18.366L31.551 18.7795L31.2637 18.7315L31.1475 18.7431C31.2139 18.6124 31.2836 18.4818 31.3517 18.3528L31.9909 18.366ZM30.397 18.1229C30.221 18.0005 30.3472 18.0171 30.314 17.9244L30.397 18.1229ZM31.7286 16.2177L30.3007 15.4801C30.3671 14.5043 30.4867 13.383 30.3904 12.3775C31.4912 12.7744 32.4791 14.5589 31.7286 16.2177ZM30.7241 16.2177C31.0744 16.4029 31.0562 16.5716 31.5426 16.7204C31.6273 17.0363 31.4978 17.162 31.2953 17.4977L30.7772 17.4779C30.671 16.9156 30.7872 16.5931 30.7241 16.2177ZM30.8204 18.9779C30.6427 18.8556 30.7706 18.8721 30.7374 18.7795L30.8204 18.9779ZM33.6812 14.8698L33.6861 14.7904L34.068 14.5109C34.1344 14.9475 34.1095 15.6752 34.0099 16.2177C33.7841 16.0424 33.7426 15.3014 33.6812 14.8698ZM33.6812 16.2177C33.7675 16.0754 33.8538 15.9332 33.9369 15.791L33.7874 16.2111L33.6812 16.2177ZM36.1468 14.9426L36.2182 14.9376C36.2381 16.5733 35.2253 16.8709 33.8937 17.4845L33.6812 17.4994L34.5113 15.786L36.1468 14.9426ZM33.6397 11.7473C33.6529 11.7903 33.6679 11.8317 33.6795 11.8747L33.5749 11.9508L33.2578 11.5241L33.6397 11.7473ZM33.2578 12.4585L33.2694 12.3841C33.3004 12.3816 33.3314 12.3794 33.3624 12.3775L33.6812 12.8041C33.4354 12.6884 33.3956 12.6603 33.2578 12.4585ZM33.6795 13.55L33.11 14.0842L31.8863 12.3146L30.299 10.9419L30.6477 10.6707C31.4165 11.0015 32.7613 11.6316 33.032 12.4188C33.12 12.6751 32.8161 12.8868 33.022 13.1002C33.2677 13.3549 33.5135 13.173 33.6812 13.5484L33.6795 13.55ZM30.1131 16.2177L30.2426 16.2689L30.299 17.4994L30.1015 17.4531C29.9155 17.3158 29.786 16.6808 29.9554 16.4046L30.1131 16.2177ZM29.1767 18.3577L29.3128 18.3528L29.4539 18.6869L29.2381 18.7696L29.0305 18.7795C29.0804 18.6389 29.1302 18.4983 29.1767 18.3577ZM28.7915 25.1815L28.6088 24.558C28.8695 24.4836 29.1285 24.4092 29.3892 24.3314L29.4556 24.3281C29.4522 24.3473 29.4494 24.3666 29.4473 24.386L28.7915 25.1815ZM28.1854 23.4747C28.2635 23.2234 28.3183 23.1853 28.4594 23.0464L28.5756 23.0927L28.6088 23.2019L28.3481 23.4565L28.1854 23.4731V23.4747ZM28.3847 23.9014L28.1854 23.6831L28.6088 23.4747L28.4992 23.8932L28.3847 23.9014ZM27.9397 25.8364C27.8799 25.7901 27.8235 25.7422 27.7637 25.6925L27.8932 25.6843L28.5457 25.1815L28.6088 25.6942L28.1091 26.0349L27.9397 25.8364ZM27.9729 30.7252C26.9551 30.7682 26.3458 30.5102 25.5156 30.4374L24.5642 28.5636L24.3816 28.3751C25.9788 28.1865 26.9833 27.4191 28.1672 26.8883C28.5856 27.2852 29.5336 29.3062 28.6985 30.2009C28.4992 30.5069 28.2768 30.5383 27.9729 30.7252ZM23.6029 28.6198L23.9848 28.595C24.5609 28.9804 24.9527 29.67 25.2284 30.3034L23.5365 29.8156C23.6627 29.3889 23.7158 28.9556 23.6029 28.6198ZM22.3875 27.009L24.2936 26.4616L27.2888 26.7526L27.342 26.9031C26.4504 27.3034 25.4359 27.6408 24.4131 28.1568C23.3057 28.2444 23.0384 27.8326 22.2713 27.5614L22.3875 27.009ZM22.2696 29.0201L22.3078 28.6496L23.0367 28.595C23.0965 28.9175 23.1596 29.0978 23.0699 29.4484L22.2696 29.0184V29.0201ZM21.4229 29.6882L21.7068 29.5328C22.0554 29.3029 22.3161 29.6088 22.6914 29.7296L22.5419 29.8751L21.4229 29.6882ZM22.2447 29.0217C22.1526 28.9809 22.0607 28.9395 21.9691 28.8977L21.8462 28.595L22.2696 28.6215L22.2447 29.0217ZM21.0011 29.0217L21.4245 29.3839C21.4245 29.6072 21.4046 29.5824 21.3531 29.8751L21.0011 29.0217ZM19.9053 27.4225C20.3021 27.3017 20.8301 27.3282 21.4245 27.315L20.8716 27.7416L19.7343 27.6308L19.9053 27.4225ZM18.8892 6.03332C19.6745 5.28578 21.6437 5.50905 22.1368 5.9837L22.2696 5.97213C21.6138 6.58239 20.5977 6.65185 19.9734 7.25551C19.4836 6.93135 19.0785 6.72297 18.8892 6.03332ZM23.2061 7.25551L23.5381 7.63093C23.2426 7.64747 22.9321 7.66566 22.6216 7.69212C21.9226 7.75166 21.2319 7.85585 20.7488 8.10558L20.6857 8.10889C20.6507 8.05435 20.6159 7.99977 20.5811 7.94516C21.3742 7.53074 22.2498 7.29689 23.1446 7.26047L23.2061 7.25551ZM24.8531 5.12205C25.3994 5.66782 26.2146 5.99197 26.4969 6.82881C25.3512 6.29793 23.5879 6.3062 22.6947 5.46109C23.4817 5.62813 24.1525 5.56528 24.8531 5.12205ZM25.23 8.10889L26.7974 8.32389L26.9202 8.31396L25.6634 9.38896C25.4641 8.99369 25.4176 8.45785 25.23 8.10889ZM27.244 9.93473L26.9202 9.88511L27.342 9.81565L27.2424 9.93473H27.244ZM26.9202 8.91431L27.3071 8.53558L27.342 8.96227L27.0614 8.90108L26.9202 8.91431ZM27.6873 23.0381L27.5014 23.0464L27.342 22.8975L27.4648 22.7371L27.7637 22.6214L27.6873 23.0381ZM27.3503 23.8187C27.4001 23.7592 27.4532 23.6997 27.5064 23.6401L27.5196 23.4747L27.7654 23.8634L27.342 23.9014L27.3503 23.8187ZM27.1826 25.1815L26.9202 24.8673L27.7654 24.7548L27.3619 25.1683L27.1826 25.1815ZM27.342 26.4616L26.4969 26.3607L27.0946 26.0349L27.342 26.4616ZM26.7492 25.2576L26.9202 25.4197L26.3076 25.5751L25.6517 25.6082L26.5649 25.1815L26.7492 25.2576ZM24.3849 6.82881C24.878 6.84205 25.3994 6.96608 25.6517 7.25551C25.3114 7.22243 24.6987 7.27701 24.5443 7.0157L24.3849 6.82881ZM24.8133 8.53558C25.054 8.74562 25.1387 8.99369 25.0955 9.38896C24.7236 9.26162 24.8199 8.85642 24.8133 8.53558ZM25.2284 11.2264L25.2433 11.1536C26.0851 10.9717 26.2661 11.2628 25.8825 11.5241C25.5505 11.4778 25.3994 11.3537 25.2284 11.2264ZM26.3126 22.193L26.4969 22.2393C26.4944 22.2591 26.4922 22.279 26.4902 22.2989L26.0751 22.6197L26.2478 22.198L26.3126 22.193ZM26.0801 11.7837L26.3956 11.5241L26.4969 11.9508L26.0751 11.8581L26.0785 11.7837H26.0801ZM27.342 23.1952L26.3209 23.4615L26.0751 23.4731C26.0751 23.4598 26.0785 23.445 26.0818 23.4317C26.4637 23.3557 26.7094 23.23 26.9352 23.0464L27.2938 23.1125L27.342 23.1952ZM26.6131 22.193L26.4969 21.9565L26.7874 21.7663L26.9202 21.8374L26.7542 22.1814L26.6131 22.193ZM23.9615 25.1451L24.4646 24.7548L26.022 24.8871L26.0751 25.0029L25.0225 25.6082C24.6323 25.5437 24.2952 25.3717 24.0927 25.1352L23.9615 25.1451ZM23.1795 25.1815L23.9599 25.6082L22.693 25.3849C22.8557 25.3188 23.0168 25.2493 23.1795 25.1815ZM23.1164 26.0531C23.1146 26.0872 23.1129 26.1214 23.1114 26.1556L22.8707 26.2879L22.693 26.3111L22.6997 26.2085C22.884 25.9654 22.8524 26.0465 23.1147 26.0531H23.1164ZM21.124 8.68277C21.084 8.63997 21.0436 8.59752 21.0028 8.55543C21.4229 8.3272 22.0853 8.21804 22.7362 8.16677C23.2725 8.12212 23.8005 8.11716 24.179 8.10889L24.3849 9.38896C23.832 9.32942 23.3057 9.25665 22.7362 9.23185C22.2441 9.20755 21.7508 9.22526 21.2618 9.28477C21.2168 9.0839 21.1708 8.88323 21.124 8.68277ZM21.745 25.8083L21.8479 25.9902L21.7483 26.3723L20.5811 26.4616C20.7056 26.0812 20.8915 25.8976 21.0924 25.6082L21.745 25.8083ZM20.3038 24.3281C19.7725 24.2983 19.0452 23.9113 18.8892 23.4747L20.5811 23.9031L20.3038 24.3281ZM20.8982 24.305L20.5811 24.3281L20.591 24.2256L20.943 23.9014C20.9264 24.0354 20.9131 24.1693 20.8982 24.305ZM19.7359 8.69766L20.2507 8.53558L20.5811 8.94904L20.2324 8.96227L19.7359 8.69766ZM19.7293 27.0222C19.7011 27.1148 19.6762 27.2091 19.6496 27.3034C19.6085 27.3055 19.5675 27.3094 19.5267 27.315C19.4556 27.1726 19.3842 27.0304 19.3126 26.8883L19.7359 26.9313L19.7293 27.0222ZM19.9634 25.1815L20.9497 25.38L21.0028 25.5123L20.2374 26.4616L19.3126 26.326L19.9634 25.1815ZM27.342 11.8052L27.5329 11.5257L27.6027 11.5241L28.134 11.6564L28.1871 11.7325L27.5944 11.9508C27.5103 11.9021 27.4262 11.8536 27.342 11.8052ZM28.486 10.4259L28.1871 10.244C28.4909 10.3548 28.3166 10.2291 28.486 10.4259ZM28.3897 12.3775L28.1871 12.2055L28.6105 11.9508L28.3897 12.3775ZM28.1871 15.3643L28.8446 15.5264C29.0222 15.5958 29.0173 15.614 29.0322 15.791C28.75 15.6835 28.2784 15.6091 28.1871 15.3643ZM28.2535 14.2016L28.3432 14.0859L28.6105 14.5109L28.1871 14.4282L28.2535 14.2016ZM19.6911 28.2444L19.7359 28.3569L19.1664 28.5735L18.8892 28.595L18.8958 28.5371L19.0901 28.2345C19.359 28.1105 19.3657 28.1915 19.6911 28.2444ZM18.4674 6.82716C18.836 7.1017 18.9323 7.43908 18.8742 8.53558C18.6318 8.22631 18.484 7.56974 18.4674 6.82881V6.82716ZM18.7099 5.97543L18.68 6.2847L18.4691 6.29959L18.7115 5.97543H18.7099ZM18.4674 6.40212C18.4558 6.50466 18.4475 6.6072 18.4342 6.70974L18.0441 6.63862L18.3662 6.40874L18.4658 6.40212H18.4674ZM18.4674 31.1568L18.6766 28.9837L20.1577 28.595L18.6003 31.0774L18.4674 31.1568ZM18.572 25.3155L18.7995 25.1815C19.0071 25.4263 18.8211 25.7785 18.6252 26.0349C18.4625 25.8827 18.4442 25.7868 18.4874 25.4412L18.572 25.3155ZM17.1989 25.1071L17.6854 24.3281L18.4658 24.7846C18.2001 25.2013 17.9295 25.6181 17.6605 26.0349C17.4181 25.8199 17.2687 25.504 17.1989 25.1087V25.1071ZM17.1989 28.4495L17.9793 27.7416L18.3462 27.7747L18.4674 27.9732C18.4342 28.1816 18.4044 28.3883 18.3745 28.595L17.1989 28.4495ZM15.9321 27.8706L16.8619 27.315L17.5692 27.4258L17.6223 27.5233L16.8768 28.1683C16.5049 28.1303 16.2575 28.0311 16.0633 27.8624L15.9304 27.8706H15.9321ZM15.8076 27.0454L16.1479 26.8883L16.2941 26.9197L16.3538 26.9891L15.3692 27.315L15.087 27.2157L15.8076 27.0454ZM14.6636 26.6451L14.9126 26.0448C15.3742 25.9853 15.4838 26.2118 15.8308 26.3557L15.9304 26.5079L15.4141 26.8601L14.994 26.8883L14.6636 26.6451ZM13.8168 28.3966L14.4328 27.315C14.8413 27.315 14.8911 27.348 15.0588 27.563C15.1335 27.6887 15.0687 27.6209 14.906 27.649L14.8678 28.0211L15.5087 28.1204C15.3825 28.433 15.3626 28.3916 15.1733 28.5901C14.5424 28.6231 14.2568 28.5041 13.8168 28.3966ZM13.1062 26.8883L14.1804 27.2108L14.2402 27.3381L13.5512 28.1683L12.55 27.8409L13.1062 26.8883ZM8.96696 25.7339L8.98024 25.6065L9.57963 26.0663L9.6311 26.1887C8.38418 27.1479 10.2919 30.2737 12.462 28.2477L13.3951 28.6215C13.0365 29.2582 12.4205 29.5096 11.7713 29.8701C10.2189 29.9991 8.04713 27.4737 8.96696 25.7339ZM10.4148 26.1705L10.438 26.4599C10.3218 26.3723 10.2056 26.2879 10.0927 26.2003L10.0146 26.0332L10.4148 26.1705ZM12.55 27.9831L11.7779 28.5785C10.257 28.7373 9.64106 27.6887 9.59125 26.4004L9.88845 26.0431L10.018 26.0332C10.7834 26.6336 11.4608 27.5498 12.5002 27.8525L12.55 27.9831ZM11.0773 21.7647C10.9394 21.6654 10.9311 21.6158 10.8614 21.4471L11.1503 20.3523L11.4874 20.0579L11.7049 20.3754L11.0773 21.7647ZM10.8614 22.1335L11.5272 20.564L11.6634 20.4846C11.9705 21.0237 12.4155 21.2685 12.55 22.0012L11.5471 23.0447C11.2353 22.8133 10.9967 22.4976 10.8598 22.1351L10.8614 22.1335ZM12.1283 23.44L12.975 22.618L13.3951 23.4731C12.9729 23.4604 12.5506 23.4494 12.1283 23.44ZM14.2402 14.8152C13.8401 15.6669 13.3071 16.2458 12.9883 17.0711C12.8488 16.3219 13.689 15.2452 13.9596 14.5837L14.0891 14.5093L14.2402 14.8152ZM14.2402 12.4668C14.8695 12.2733 15.2912 11.9193 15.7412 11.5224L15.9321 12.0913L15.3975 12.8025L14.2402 12.4668ZM16.3538 12.5114L16.1247 12.8025L15.9321 12.7694L15.9354 12.7231L16.3206 12.3758L16.3538 12.5114ZM16.0218 10.6723L16.0882 10.669L16.3538 11.2264L16.2542 11.5224C15.8673 11.3206 15.8823 11.0808 16.0218 10.6723ZM15.9421 23.0447L16.3322 23.3242L15.9321 23.1489C15.9343 23.1141 15.9377 23.0794 15.9421 23.0447ZM15.9354 23.4731L16.3538 23.6533C16.3513 23.6698 16.3491 23.6864 16.3472 23.703L15.4506 24.3265C15.1932 24.2107 15.1617 23.9808 15.0853 23.7311L15.0936 23.6782L15.9354 23.4731ZM14.6852 22.618L15.087 22.7801L14.8711 22.9042L14.6636 22.9273L14.6852 22.618ZM14.6636 14.0842C15.1717 14.2264 15.0106 14.1305 15.0322 14.5093C14.7997 14.3736 14.7831 14.3108 14.6636 14.0842ZM14.6636 21.7068L14.6985 21.338C14.896 21.4752 14.9641 21.5563 15.087 21.7647C14.9459 21.7451 14.8048 21.7258 14.6636 21.7068ZM15.5104 16.3764C15.351 16.5799 15.3576 16.5253 15.087 16.6427L15.2713 16.216L15.5104 16.3764ZM15.5104 14.6598L15.2447 14.9359C14.9791 14.7871 15.1036 14.8466 15.2231 14.5704L15.3809 14.5093L15.5104 14.6598ZM15.4755 13.9337L15.087 13.6559C15.3858 13.77 15.3161 13.7005 15.4755 13.9337ZM14.6636 21.7647L15.087 22.1004C14.8711 22.0954 14.7549 22.0491 14.6636 21.7647ZM15.9321 21.7481L15.7594 21.7647L15.6117 21.4934L15.5087 21.3611L15.7378 21.338C15.8026 21.4752 15.8657 21.6125 15.9321 21.7481ZM15.6997 13.8461L15.5087 13.6575C15.6947 13.7865 15.5718 13.6608 15.698 13.8477L15.6997 13.8461ZM15.7246 20.8749L15.5087 20.4284L15.6 20.0612L15.6532 20.0579L15.9321 20.9113C15.8629 20.899 15.7938 20.8869 15.7246 20.8749ZM14.6171 25.8414L14.6636 25.8976L14.5125 26.4616C14.3347 26.3881 14.1781 26.2715 14.0569 26.1225C13.9357 25.9735 13.8538 25.7967 13.8185 25.6082L14.6171 25.843V25.8414ZM13.3951 26.4616L13.8185 26.8353C13.5478 26.7163 13.5312 26.7212 13.3951 26.4616ZM14.1256 22.6776L14.1755 23.0464L13.8185 22.6197L14.1256 22.6776ZM13.7072 24.6738L13.3951 23.9014C13.7654 24.042 14.0543 24.4637 14.2419 24.7548L13.7072 24.6738ZM14.0393 17.076L14.1439 17.0727L13.8351 17.4994C13.7853 17.3936 13.8467 17.2927 14.0177 17.1686L14.0393 17.076ZM13.8185 20.7442L13.7338 20.9129L13.4914 20.726C13.4593 20.6583 13.4272 20.5905 13.3951 20.5226L13.7272 20.4862L13.8185 20.7442ZM10.8598 24.3281C11.7065 24.8772 13.146 25.3866 13.3951 26.4616C12.3911 25.9622 11.5218 25.2306 10.8598 24.3281ZM13.0564 23.9147L13.3951 24.3281L12.55 23.9014L13.0564 23.9147ZM16.1513 25.1815L15.5087 24.5365L16.6328 23.4747L16.7772 24.644L16.1513 25.1815ZM16.7772 25.8943L16.8885 25.6165L17.0379 25.6082L17.1989 26.0349L16.7772 25.8943ZM17.3467 24.3281L17.1989 23.9014L17.5061 23.9577L17.3467 24.3281ZM16.7772 9.95623L16.7805 9.91819C16.92 9.88511 17.0595 9.85204 17.1989 9.81565L16.9067 10.2423L16.7772 9.95623ZM12.5151 18.7795L12.1283 17.9261C12.6247 18.0336 12.5433 18.3859 12.5151 18.7795ZM11.4807 19.2062C11.1188 18.9564 10.888 18.4586 10.8598 17.9261C11.6019 18.0997 11.5604 18.3908 11.7065 19.0656L11.4807 19.2062ZM11.044 16.9784C10.5044 16.4707 11.2898 14.4398 11.6351 13.9718C11.8178 13.7419 12.0469 13.7468 12.3491 13.6575L12.55 13.7088C12.0419 14.6052 11.6999 15.8257 11.5787 17.0727L11.044 16.9784ZM10.2554 23.9014L10.5127 24.3331L10.282 24.8706L10.1491 25.0112C10.3384 25.0376 10.3816 24.8755 10.6638 24.6457C11.2117 25.5305 12.0486 26.3772 12.9717 26.8585L12.4686 27.7416L10.9411 26.7626C10.7668 26.4401 11.0075 26.0696 10.7269 25.8728C10.4729 25.6942 10.1458 25.9522 9.88679 25.8745L9.16952 25.2195C9.38039 24.7498 9.58295 24.2901 9.99969 24.0503L10.2554 23.9014ZM8.79428 19.1946C8.85191 18.769 8.93451 18.3471 9.04168 17.9311L9.09813 17.9261L9.31895 19.1946L9.43518 19.8561C9.76725 20.779 10.1026 21.7002 10.438 22.6197C9.63442 22.1831 9.13797 21.1726 9.20937 19.8131C9.01677 20.2514 9.17616 20.941 9.23926 21.328C8.74613 20.9113 8.6847 20.0827 8.79428 19.1946ZM8.06041 19.6329C7.98362 19.4714 7.93532 19.298 7.91762 19.1202C7.89397 18.8808 7.8962 18.6396 7.92426 18.4007L7.99732 18.2486L8.32441 17.9261L8.14011 19.1185L8.06041 19.6312V19.6329ZM37.485 23.8998L36.6399 23.5756L37.4601 23.4747L37.485 23.8998ZM15.1202 30.8459L15.341 30.7301L15.0853 31.1552L15.1185 30.8476L15.1202 30.8459ZM8.74613 16.2193L8.38584 16.1863C7.93755 16.0391 7.51748 15.5181 7.47929 14.9393C8.16501 15.0004 8.39746 15.3246 8.73617 15.7199C8.73949 15.8853 8.74447 16.0523 8.74613 16.2193ZM8.69632 16.1846C8.74613 15.2634 8.04049 14.6879 7.12398 14.7127C7.28005 13.4194 8.40908 12.7578 9.41525 12.3229L9.60951 12.308C9.44182 13.9321 9.56966 15.3312 8.96032 16.737C8.51037 17.7723 6.91478 17.7524 7.00111 19.3501L7.01274 19.4824C7.2402 21.6059 9.55804 22.0375 9.87849 23.9047C6.44158 25.6462 10.6306 32.9645 13.3486 28.6661C13.8367 28.7356 14.2701 28.9556 14.8761 28.7439C15.1584 28.5884 15.2132 28.4627 15.3228 28.1386L16.2941 28.6397L16.3439 28.7621C15.4539 29.4501 14.8263 30.3944 13.87 31.0394L13.9613 30.7781L13.7122 30.7334L13.5744 30.8079L13.4499 31.3867C13.9961 31.9424 15.6515 29.933 16.1363 29.5394C15.8624 30.4936 15.1849 30.9848 14.808 31.8581L14.9243 31.9771C15.6382 31.4677 16.5132 30.0256 16.646 28.9291L17.7153 29.1061C16.3754 30.9104 12.9335 34.8796 11.1237 35.9397C11.3994 35.0781 11.8377 34.4199 12.0602 33.712L11.9307 33.7219C11.8921 33.6821 11.8533 33.6424 11.8144 33.6029C11.3745 34.4662 10.6489 35.0731 10.5194 36.2374C10.5968 36.3528 10.6947 36.4532 10.8083 36.5335C12.9601 36.1762 16.5531 30.7897 18.2699 29.3178C17.805 33.965 15.3045 34.6894 13.1361 37.5043C15.1069 36.5252 16.3024 34.0279 17.9876 32.642C17.8016 34.5819 17.3384 38.92 16.1728 39.6923L16.3654 39.6774C17.6738 38.867 17.7502 35.5345 18.1868 33.8311L18.3728 32.04L20.2407 29.4269L20.3768 29.3525C20.586 30.0058 21.5324 30.7153 22.5569 30.5251L23.2924 30.2174L25.1387 30.9054C25.3811 33.5516 25.2881 35.0351 23.6062 37.0495C25.3247 36.1746 25.9556 32.8041 25.3828 31.0146C29.3792 31.476 29.2182 30.1331 28.4611 27.2339L29.1634 27.2455C29.0339 27.052 28.6835 27.1959 28.4162 27.047C28.295 26.9693 28.3183 26.9842 28.2435 26.8684C29.1933 25.8017 31.4812 26.8618 30.9997 28.6331C31.6572 27.1645 30.2044 25.8579 28.8047 26.3838C29.4025 25.6777 30.1264 25.0972 30.5049 24.1627L30.6411 24.09L33.9286 27.53L34.1228 27.5151L34.2723 27.3133C33.2262 26.0795 32.1819 24.8441 31.1392 23.6087L31.4746 23.4565C31.5487 23.3804 31.6398 23.3226 31.7404 23.2878C31.841 23.253 31.9485 23.2423 32.054 23.2564C31.9986 23.229 31.9433 23.2014 31.888 23.1737C33.5666 23.3408 35.7118 24.735 37.4634 24.2851C37.6245 24.0056 37.6328 23.8551 37.5348 23.5822C39.4011 23.6285 42.7583 23.0067 43.8275 22.1037C40.9551 22.704 37.7208 22.9075 35.0842 22.5569L32.7481 22.284L32.6169 22.2939L33.2462 21.1693C35.1722 21.1329 40.2229 21.0849 41.244 19.8809L41.0182 19.5799L40.1382 19.4542C40.0766 19.5521 40.0422 19.6646 40.0386 19.7801L40.736 19.8545C39.2217 20.2349 35.0045 21.037 33.628 20.5689C33.4836 20.3936 33.5899 19.785 33.5965 19.3467C33.599 19.2683 33.5956 19.1898 33.5865 19.1119C35.5657 18.5231 37.0351 17.1968 37.6378 15.1956C37.9815 14.0495 37.754 12.5445 38.4978 11.83C38.9727 11.8714 39.069 12.0715 39.4177 12.2071C39.2334 11.9524 38.9694 11.8102 38.639 11.6944L38.0196 12.1195C37.4535 12.3378 36.8607 11.7672 35.8994 12.2121C35.119 11.5472 34.679 10.497 33.6247 10.0952L33.5168 9.91323L34.7953 8.6745C34.3769 9.02346 33.9501 9.43527 33.5234 9.84873L32.6667 9.46669L32.6169 9.34265C33.5932 8.65466 34.4599 8.39996 35.5706 8.61827C35.6221 8.72081 35.6769 8.82169 35.73 8.92423C35.6786 9.01189 35.6321 9.03669 35.5872 9.0615L35.2137 8.96227C35.3747 9.05654 35.5424 9.08631 35.7101 9.11608L35.8512 8.97881L35.8728 8.78696C35.6304 8.57196 35.5557 8.4165 35.0792 8.39996L35.3066 8.06589C34.7621 8.43966 33.6563 8.53889 33.115 8.86304L34.3669 7.88066L34.5163 7.68054L32.2001 9.05654C31.7054 9.02346 31.179 8.79193 30.9117 8.51573C30.8691 8.519 30.8265 8.52231 30.7839 8.52566L33.5334 6.67335L33.4886 6.48647C32.4459 7.09178 31.4015 7.69708 30.3605 8.30404L29.361 8.05927L29.4539 7.16454L36.6216 1.55802L36.7495 1.5481L36.6482 1.30168C36.3825 1.17598 35.2917 2.05748 34.8799 2.32044C33.2926 3.33425 31.8897 4.59613 30.3289 5.51236C30.9732 4.69701 32.152 3.88498 32.3479 2.69752L32.0324 2.65783L31.541 3.07459L32.0756 2.84306C31.7303 3.88994 30.1662 5.75878 29.2829 6.35085L29.18 6.10443C29.7545 5.1419 30.3206 3.84694 30.055 2.61152L29.5735 2.33037L29.0571 2.3684C29.3875 2.49906 29.6117 2.53048 29.8541 2.6909C30.0085 3.88828 29.4174 4.69867 29.0986 5.66782L28.9625 5.74059C28.75 5.34863 28.7632 5.16009 28.3266 5.08897L28.2884 4.83759L28.5872 4.43405L28.7931 4.29182C28.8629 4.42413 28.8662 4.37617 28.8878 4.60274C28.949 4.50537 28.9828 4.39343 28.9857 4.27859L28.7416 4.16944L28.0958 4.85082C27.5562 4.49194 26.9618 4.11486 26.203 3.97428C26.633 3.08617 27.9397 1.65891 27.2656 0.532639C26.4421 -0.836742 23.6311 0.741023 22.6017 1.8276C22.4823 1.94876 22.3785 2.08432 22.2929 2.23113C22.3948 2.15042 22.4977 2.07103 22.6017 1.99298C23.6178 1.23883 26.3225 -0.567166 26.9086 0.876638C27.523 1.68206 26.3458 3.23171 26.0253 3.86182C24.9295 3.75102 23.7839 3.64682 22.605 3.66998C21.3642 3.68075 20.1322 3.87813 18.9506 4.25544C18.3529 4.45224 15.8026 5.97378 15.7046 5.95393L14.5424 4.83263L12.1116 3.61705L12.0984 3.7444L11.9556 3.88167L15.0704 6.50797L14.5955 6.79739C13.3137 5.82989 12.4304 5.24278 10.5227 4.74828L10.2006 4.77309C11.3147 5.53716 12.4371 6.23674 13.5578 6.93797L13.782 7.23897C12.9817 7.5747 12.643 8.27262 11.9672 8.70592C10.9112 8.20316 9.93328 7.7467 8.65315 7.36135L8.5635 7.62266L10.961 9.16073L11.0905 9.15081L10.6771 9.43527C10.4862 10.0753 10.1126 10.8179 9.80045 11.7209C8.605 12.69 7.0559 12.6321 6.81515 14.6068C6.43328 14.711 6.1643 14.7441 5.81563 14.9988L5.78906 15.2551C6.00823 15.5594 7.94917 16.3781 8.4124 16.4575L8.69798 16.1829L8.69632 16.1846ZM22.8757 2.53048L23.0533 2.56356L22.8159 2.53379C22.7744 2.53379 22.7329 2.5371 22.693 2.53875C22.8806 2.19144 23.4319 2.10544 23.9615 2.14348L23.925 2.39487L22.8889 2.44613L22.8757 2.53048ZM23.6162 2.98859L24.1143 2.82652C24.3301 2.46929 24.453 2.09056 24.3434 1.74491C23.8304 1.64402 23.5348 1.76806 23.055 1.96983C22.9676 2.11124 22.8808 2.25292 22.7943 2.39487L22.6947 2.56025C22.7254 2.59575 22.7587 2.62891 22.7943 2.65948C22.957 2.79179 23.1529 2.83809 23.5132 2.80833C23.6128 2.97702 23.4966 2.90259 23.319 2.9489L23.6178 2.98859H23.6162ZM35.9077 6.83047L35.3731 6.9297L35.7018 6.90655L36.0787 7.06862L35.5075 8.11054C35.8014 7.76489 36.0936 7.52012 36.2182 6.99585L35.9077 6.83047ZM32.8361 23.4764C32.7032 23.2399 32.5588 23.0844 32.4143 23.048C32.5422 23.1688 32.6899 23.311 32.8361 23.4764ZM31.1458 28.5967L30.7241 28.8414L31.0479 28.8117L31.1475 28.5967H31.1458ZM32.8361 23.4764C33.2661 23.9593 33.5882 24.8855 33.4952 25.6098C33.9834 24.5597 33.4271 23.9047 32.8361 23.4764Z" fill="#F0F6FF"/>
</g>
</g>
<defs>
<clipPath id="clip0_119_1393">
<rect width="43" height="40.5192" fill="white"/>
</clipPath>
<clipPath id="clip1_119_1393">
<rect width="71.1154" height="71.1154" fill="white"/>
</clipPath>
</defs>
</svg>
