<svg width="50" height="53" viewBox="0 0 50 53" fill="none" xmlns="http://www.w3.org/2000/svg">
<path d="M23.7321 35.4702L29.656 42.2053C31.8508 44.7007 32.9482 45.9484 34.0969 45.6446C35.2456 45.3409 35.6395 43.6988 36.4273 40.4148L40.7972 22.1976C42.0105 17.1396 42.6171 14.6106 41.2686 13.3632C39.9201 12.1158 37.5827 13.0438 32.9078 14.8998L11.2193 23.5108C7.48033 24.9953 5.61086 25.7375 5.49217 27.0131C5.48003 27.1436 5.47983 27.275 5.49157 27.4055C5.60634 28.6815 7.47354 29.43 11.2079 30.9269C12.9 31.6051 13.746 31.9442 14.3526 32.5937C14.4208 32.6667 14.4863 32.7423 14.5492 32.8204C15.108 33.5148 15.3465 34.4262 15.8235 36.249L16.7162 39.6603C17.1804 41.434 17.4125 42.3209 18.0203 42.4418C18.6281 42.5627 19.1574 41.8273 20.2158 40.3565L23.7321 35.4702ZM23.7321 35.4702L23.1513 34.8649C22.4903 34.176 22.1598 33.8315 22.1598 33.4035C22.1598 32.9755 22.4903 32.631 23.1513 31.9421L29.6812 25.1367" stroke="#F0F6FF" stroke-width="1.5" stroke-linecap="round" stroke-linejoin="round"/>
</svg>
