<svg width="192" height="58" viewBox="0 0 192 58" fill="none" xmlns="http://www.w3.org/2000/svg">
<path d="M60.61 38.895V26.82H64.06V39.24C64.06 40.045 64.75 40.045 65.44 40.045H73.03C73.72 40.045 74.41 40.045 74.41 39.24V26.82H77.86V38.895C77.86 42 75.1 42 72.34 42H66.13C63.37 42 60.61 42 60.61 38.895ZM81.0719 42V26.82H85.6719L91.5369 38.55L97.4019 26.82H102.002V42H98.5519V30.73L92.9169 42H90.1569L84.5219 30.73V42H81.0719ZM105.217 38.895V29.925C105.217 26.82 107.977 26.82 110.737 26.82H121.317V28.775H110.047C109.357 28.775 108.667 28.775 108.667 29.58V39.24C108.667 40.045 109.357 40.045 110.047 40.045H121.317V42H110.737C107.977 42 105.217 42 105.217 38.895ZM124.534 38.895V29.925C124.534 26.82 127.294 26.82 130.054 26.82H136.264C139.024 26.82 141.784 26.82 141.784 29.925V38.895C141.784 42 139.024 42 136.264 42H130.054C127.294 42 124.534 42 124.534 38.895ZM127.984 39.24C127.984 40.045 128.674 40.045 129.364 40.045H136.954C137.644 40.045 138.334 40.045 138.334 39.24V29.58C138.334 28.775 137.644 28.775 136.954 28.775H129.364C128.674 28.775 127.984 28.775 127.984 29.58V39.24ZM144.996 42V26.82H149.596L155.461 38.55L161.326 26.82H165.926V42H162.476V30.73L156.841 42H154.081L148.446 30.73V42H144.996Z" fill="#F0F6FF"/>
<g clip-path="url(#clip0_98_2757)">
<path fill-rule="evenodd" clip-rule="evenodd" d="M0 41.5596C0 50.3996 7.17 57.5696 16.01 57.5696C24.85 57.5696 32.02 50.3996 32.02 41.5596C28.59 47.0996 22.53 50.4696 16.01 50.4696C9.49 50.4696 3.43 47.0996 0 41.5596Z" fill="#F0F6FF"/>
<mask id="mask0_98_2757" style="mask-type:luminance" maskUnits="userSpaceOnUse" x="0" y="41" width="33" height="17">
<path d="M0 41.5596C0 50.3996 7.17 57.5696 16.01 57.5696C24.85 57.5696 32.02 50.3996 32.02 41.5596C28.59 47.0996 22.53 50.4696 16.01 50.4696C9.49 50.4696 3.43 47.0996 0 41.5596Z" fill="white"/>
</mask>
<g mask="url(#mask0_98_2757)">
<path d="M32.02 41.5596H0V57.5696H32.02V41.5596Z" fill="#F0F6FF"/>
</g>
<path fill-rule="evenodd" clip-rule="evenodd" d="M29.05 50.8396C30.92 48.2196 32.02 45.0196 32.02 41.5596C30.47 44.0596 28.38 46.1196 25.96 47.6296C25.96 47.6296 29.99 46.8896 29.05 50.8396Z" fill="#F0F6FF"/>
<path fill-rule="evenodd" clip-rule="evenodd" d="M8.52993 55.7202C10.7599 56.9002 13.3099 57.5702 16.0099 57.5702C19.4299 57.5702 22.5999 56.5002 25.1999 54.6702C27.4499 49.0702 22.2699 49.4102 22.2699 49.4102C20.2799 50.1102 18.1699 50.4802 15.9999 50.4802C14.6799 50.4802 13.3699 50.3402 12.0999 50.0702C5.37993 51.6602 8.43993 55.6202 8.51993 55.7202" fill="#F0F6FF"/>
<path fill-rule="evenodd" clip-rule="evenodd" d="M0 41.5596C0 47.1496 2.86 52.0596 7.2 54.9296C7.03 54.7596 1.28 49.0196 9.35 49.2596C5.53 47.8096 2.22 45.1396 0 41.5596Z" fill="#F0F6FF"/>
<path fill-rule="evenodd" clip-rule="evenodd" d="M0 41.5598C3.43 47.0998 9.49 50.4698 16.01 50.4698C11.09 50.4698 7.1 46.4798 7.1 41.5598V28.2598C2.82 31.1298 0.01 36.0198 0.01 41.5598" fill="#F0F6FF"/>
<mask id="mask1_98_2757" style="mask-type:luminance" maskUnits="userSpaceOnUse" x="0" y="28" width="17" height="23">
<path d="M0 41.5598C3.43 47.0998 9.49 50.4698 16.01 50.4698C11.09 50.4698 7.1 46.4798 7.1 41.5598V28.2598C2.82 31.1298 0.01 36.0198 0.01 41.5598" fill="white"/>
</mask>
<g mask="url(#mask1_98_2757)">
<path d="M16.01 28.2598H0V50.4698H16.01V28.2598Z" fill="#F0F6FF"/>
</g>
<path fill-rule="evenodd" clip-rule="evenodd" d="M7.09 36.4898V28.2598C2.82 31.1398 0 36.0198 0 41.5598C2.08 35.7398 7.09 36.4898 7.09 36.4898Z" fill="#F0F6FF"/>
<path fill-rule="evenodd" clip-rule="evenodd" d="M24.92 41.5598C24.92 46.4798 20.93 50.4698 16.01 50.4698C22.53 50.4698 28.59 47.0998 32.02 41.5598C32.02 36.0198 29.2 31.1398 24.93 28.2598V41.5598H24.92Z" fill="#F0F6FF"/>
<mask id="mask2_98_2757" style="mask-type:luminance" maskUnits="userSpaceOnUse" x="16" y="28" width="17" height="23">
<path d="M24.92 41.5598C24.92 46.4798 20.93 50.4698 16.01 50.4698C22.53 50.4698 28.59 47.0998 32.02 41.5598C32.02 36.0198 29.2 31.1398 24.93 28.2598V41.5598H24.92Z" fill="white"/>
</mask>
<g mask="url(#mask2_98_2757)">
<path d="M32.02 28.2598H16.01V50.4698H32.02V28.2598Z" fill="#F0F6FF"/>
</g>
<path fill-rule="evenodd" clip-rule="evenodd" d="M24.9199 28.26C29.1999 31.13 32.0099 36.02 32.0099 41.56V12H24.9199V28.26Z" fill="#F0F6FF"/>
<mask id="mask3_98_2757" style="mask-type:luminance" maskUnits="userSpaceOnUse" x="24" y="12" width="9" height="30">
<path d="M24.9199 28.26C29.1999 31.13 32.0099 36.02 32.0099 41.56V12H24.9199V28.26Z" fill="white"/>
</mask>
<g mask="url(#mask3_98_2757)">
<path d="M32.0099 12H24.9199V41.56H32.0099V12Z" fill="#F0F6FF"/>
</g>
<path fill-rule="evenodd" clip-rule="evenodd" d="M24.9199 28.2599C29.1999 31.1299 32.0099 36.0199 32.0099 41.5599V27.3799C29.7699 31.1699 24.9199 28.2599 24.9199 28.2599Z" fill="#F0F6FF"/>
<path fill-rule="evenodd" clip-rule="evenodd" d="M7.09 28.26V12H0V41.56C0 36.02 2.82 31.14 7.09 28.26Z" fill="#F0F6FF"/>
<mask id="mask4_98_2757" style="mask-type:luminance" maskUnits="userSpaceOnUse" x="0" y="12" width="8" height="30">
<path d="M7.09 28.26V12H0V41.56C0 36.02 2.82 31.14 7.09 28.26Z" fill="white"/>
</mask>
<g mask="url(#mask4_98_2757)">
<path d="M7.09 12H0V41.56H7.09V12Z" fill="#F0F6FF"/>
</g>
<path fill-rule="evenodd" clip-rule="evenodd" d="M7.09 20.98V12H0V24.22C2.41 16.45 7.09 20.98 7.09 20.98Z" fill="#F0F6FF"/>
<path fill-rule="evenodd" clip-rule="evenodd" d="M7.09 28.26V25.96L6.02 26.68C3.42 28.43 1.37 30.79 0 33.5V41.56C0 36.02 2.82 31.14 7.09 28.26Z" fill="#F0F6FF"/>
<path fill-rule="evenodd" clip-rule="evenodd" d="M0 41.5596C3.43 47.0996 9.49 50.4696 16.01 50.4696C11.49 50.4696 7.75 47.0996 7.17 42.7396C3.9 45.6296 0 41.5596 0 41.5596Z" fill="#F0F6FF"/>
<path fill-rule="evenodd" clip-rule="evenodd" d="M24.9199 36.4898V28.2598C29.1999 31.1298 32.0099 36.0198 32.0099 41.5598C29.9299 35.7398 24.9199 36.4898 24.9199 36.4898Z" fill="#F0F6FF"/>
<path fill-rule="evenodd" clip-rule="evenodd" d="M24.9199 20.98V12H32.0099V24.22C29.5999 16.45 24.9199 20.98 24.9199 20.98Z" fill="#F0F6FF"/>
<path fill-rule="evenodd" clip-rule="evenodd" d="M24.9199 28.26V25.96L25.9899 26.68C28.5999 28.43 30.6499 30.79 32.0199 33.51V41.57C32.0199 36.03 29.1999 31.15 24.9299 28.27" fill="#F0F6FF"/>
<path fill-rule="evenodd" clip-rule="evenodd" d="M32.02 41.5596C28.59 47.0996 22.53 50.4696 16.01 50.4696C20.53 50.4696 24.27 47.0996 24.85 42.7396C28.12 45.6296 32.02 41.5596 32.02 41.5596Z" fill="#F0F6FF"/>
<path fill-rule="evenodd" clip-rule="evenodd" d="M0 41.5596C3.34 47.2296 9.43 50.7096 16.01 50.7096C22.59 50.7096 28.68 47.2296 32.02 41.5596C28.59 47.0996 22.53 50.4696 16.01 50.4696C9.49 50.4696 3.43 47.0996 0 41.5596Z" fill="#F0F6FF"/>
<path fill-rule="evenodd" clip-rule="evenodd" d="M7.09 28.2598C2.95 31.4898 0.37 36.3198 0 41.5598C0 36.2198 2.66 31.2298 7.09 28.2598Z" fill="#F0F6FF"/>
<path fill-rule="evenodd" clip-rule="evenodd" d="M24.9199 28.2598C29.0599 31.4898 31.6399 36.3198 32.0099 41.5598C32.0099 36.2198 29.3499 31.2298 24.9199 28.2598Z" fill="#F0F6FF"/>
<path fill-rule="evenodd" clip-rule="evenodd" d="M7.09 28.2599C2.81 31.1299 0 36.0199 0 41.5599V27.3799C2.24 31.1699 7.09 28.2599 7.09 28.2599Z" fill="#F0F6FF"/>
<path fill-rule="evenodd" clip-rule="evenodd" d="M12 16.01C12 7.17 19.17 0 28.01 0C36.85 0 44.02 7.17 44.02 16.01C40.59 10.47 34.53 7.1 28.01 7.1C21.49 7.1 15.43 10.47 12 16.01Z" fill="#F0F6FF"/>
<mask id="mask5_98_2757" style="mask-type:luminance" maskUnits="userSpaceOnUse" x="12" y="0" width="33" height="17">
<path d="M12 16.01C12 7.17 19.17 0 28.01 0C36.85 0 44.02 7.17 44.02 16.01C40.59 10.47 34.53 7.1 28.01 7.1C21.49 7.1 15.43 10.47 12 16.01Z" fill="white"/>
</mask>
<g mask="url(#mask5_98_2757)">
<path d="M44.02 0H12V16.01H44.02V0Z" fill="#F0F6FF"/>
</g>
<path fill-rule="evenodd" clip-rule="evenodd" d="M41.05 6.71973C42.92 9.33973 44.02 12.5397 44.02 15.9997C42.47 13.4997 40.38 11.4397 37.96 9.92973C37.96 9.92973 41.99 10.6697 41.05 6.71973Z" fill="#F0F6FF"/>
<path fill-rule="evenodd" clip-rule="evenodd" d="M20.5299 1.85C22.7599 0.67 25.3099 0 28.0099 0C31.4299 0 34.5999 1.07 37.1999 2.9C39.4499 8.5 34.2699 8.16 34.2699 8.16C32.2799 7.46 30.1699 7.09 27.9999 7.09C26.6799 7.09 25.3699 7.23 24.0999 7.5C17.3799 5.91 20.4399 1.95 20.5199 1.85" fill="#F0F6FF"/>
<path fill-rule="evenodd" clip-rule="evenodd" d="M12 16.0096C12 10.4196 14.86 5.50965 19.2 2.63965C19.03 2.80965 13.28 8.54965 21.35 8.30965C17.53 9.75965 14.22 12.4296 12 16.0096Z" fill="#F0F6FF"/>
<path fill-rule="evenodd" clip-rule="evenodd" d="M12 16.0096C15.43 10.4696 21.49 7.09961 28.01 7.09961C23.09 7.09961 19.1 11.0896 19.1 16.0096V29.3096C14.82 26.4396 12.01 21.5496 12.01 16.0096" fill="#F0F6FF"/>
<mask id="mask6_98_2757" style="mask-type:luminance" maskUnits="userSpaceOnUse" x="12" y="7" width="17" height="23">
<path d="M12 16.0096C15.43 10.4696 21.49 7.09961 28.01 7.09961C23.09 7.09961 19.1 11.0896 19.1 16.0096V29.3096C14.82 26.4396 12.01 21.5496 12.01 16.0096" fill="white"/>
</mask>
<g mask="url(#mask6_98_2757)">
<path d="M28.01 7.08984H12V29.2998H28.01V7.08984Z" fill="#F0F6FF"/>
</g>
<path fill-rule="evenodd" clip-rule="evenodd" d="M19.09 21.0798V29.3098C14.81 26.4398 12 21.5498 12 16.0098C14.08 21.8298 19.09 21.0798 19.09 21.0798Z" fill="#F0F6FF"/>
<path fill-rule="evenodd" clip-rule="evenodd" d="M36.92 16.0096C36.92 11.0896 32.93 7.09961 28.01 7.09961C34.53 7.09961 40.59 10.4696 44.02 16.0096C44.02 21.5496 41.2 26.4296 36.93 29.3096V16.0096H36.92Z" fill="#F0F6FF"/>
<mask id="mask7_98_2757" style="mask-type:luminance" maskUnits="userSpaceOnUse" x="28" y="7" width="17" height="23">
<path d="M36.92 16.0096C36.92 11.0896 32.93 7.09961 28.01 7.09961C34.53 7.09961 40.59 10.4696 44.02 16.0096C44.02 21.5496 41.2 26.4296 36.93 29.3096V16.0096H36.92Z" fill="white"/>
</mask>
<g mask="url(#mask7_98_2757)">
<path d="M44.02 7.08984H28.01V29.2998H44.02V7.08984Z" fill="#F0F6FF"/>
</g>
<path fill-rule="evenodd" clip-rule="evenodd" d="M36.9199 29.3098C41.1999 26.4398 44.0099 21.5498 44.0099 16.0098V45.5698H36.9199V29.3098Z" fill="#F0F6FF"/>
<mask id="mask8_98_2757" style="mask-type:luminance" maskUnits="userSpaceOnUse" x="36" y="16" width="9" height="30">
<path d="M36.9199 29.3098C41.1999 26.4398 44.0099 21.5498 44.0099 16.0098V45.5698H36.9199V29.3098Z" fill="white"/>
</mask>
<g mask="url(#mask8_98_2757)">
<path d="M44.0099 16.0098H36.9199V45.5698H44.0099V16.0098Z" fill="#F0F6FF"/>
</g>
<path fill-rule="evenodd" clip-rule="evenodd" d="M36.9199 29.3098C41.1999 26.4398 44.0099 21.5498 44.0099 16.0098V30.1898C41.7699 26.3998 36.9199 29.3098 36.9199 29.3098Z" fill="#F0F6FF"/>
<path fill-rule="evenodd" clip-rule="evenodd" d="M19.09 29.3098V45.5698H12V16.0098C12 21.5498 14.82 26.4298 19.09 29.3098Z" fill="#F0F6FF"/>
<mask id="mask9_98_2757" style="mask-type:luminance" maskUnits="userSpaceOnUse" x="12" y="16" width="8" height="30">
<path d="M19.09 29.3098V45.5698H12V16.0098C12 21.5498 14.82 26.4298 19.09 29.3098Z" fill="white"/>
</mask>
<g mask="url(#mask9_98_2757)">
<path d="M19.09 16.0098H12V45.5698H19.09V16.0098Z" fill="#F0F6FF"/>
</g>
<path fill-rule="evenodd" clip-rule="evenodd" d="M19.09 36.5896V45.5696H12V33.3496C14.41 41.1196 19.09 36.5896 19.09 36.5896Z" fill="#F0F6FF"/>
<path fill-rule="evenodd" clip-rule="evenodd" d="M19.09 29.31V31.61L18.02 30.89C15.41 29.14 13.36 26.78 11.99 24.06V16C11.99 21.54 14.81 26.42 19.08 29.3" fill="#F0F6FF"/>
<path fill-rule="evenodd" clip-rule="evenodd" d="M12 16.0096C15.43 10.4696 21.49 7.09961 28.01 7.09961C23.49 7.09961 19.75 10.4696 19.17 14.8296C15.9 11.9396 12 16.0096 12 16.0096Z" fill="#F0F6FF"/>
<path fill-rule="evenodd" clip-rule="evenodd" d="M36.9199 21.0798V29.3098C41.1999 26.4398 44.0099 21.5498 44.0099 16.0098C41.9299 21.8298 36.9199 21.0798 36.9199 21.0798Z" fill="#F0F6FF"/>
<path fill-rule="evenodd" clip-rule="evenodd" d="M36.9199 36.5896V45.5696H44.0099V33.3496C41.5999 41.1196 36.9199 36.5896 36.9199 36.5896Z" fill="#F0F6FF"/>
<path fill-rule="evenodd" clip-rule="evenodd" d="M36.9199 29.31V31.61L37.9899 30.89C40.5999 29.14 42.6499 26.78 44.0199 24.06V16C44.0199 21.54 41.1999 26.42 36.9299 29.3" fill="#F0F6FF"/>
<path fill-rule="evenodd" clip-rule="evenodd" d="M44.02 16.0096C40.59 10.4696 34.53 7.09961 28.01 7.09961C32.53 7.09961 36.27 10.4696 36.85 14.8296C40.12 11.9396 44.02 16.0096 44.02 16.0096Z" fill="#F0F6FF"/>
<path fill-rule="evenodd" clip-rule="evenodd" d="M12 16.0104C15.34 10.3404 21.43 6.86035 28.01 6.86035C34.59 6.86035 40.68 10.3404 44.02 16.0104C40.59 10.4704 34.53 7.10035 28.01 7.10035C21.49 7.10035 15.44 10.4704 12 16.0104Z" fill="#F0F6FF"/>
<path fill-rule="evenodd" clip-rule="evenodd" d="M19.09 29.3098C14.95 26.0798 12.37 21.2498 12 16.0098C12 21.3498 14.66 26.3398 19.09 29.3098Z" fill="#F0F6FF"/>
<path fill-rule="evenodd" clip-rule="evenodd" d="M36.9199 29.3098C41.0599 26.0798 43.6399 21.2498 44.0099 16.0098C44.0099 21.3498 41.3499 26.3398 36.9199 29.3098Z" fill="#F0F6FF"/>
<path fill-rule="evenodd" clip-rule="evenodd" d="M19.09 29.3098C14.81 26.4398 12 21.5498 12 16.0098V30.1898C14.24 26.3998 19.09 29.3098 19.09 29.3098Z" fill="#F0F6FF"/>
<path d="M3.52002 10C5.45302 10 7.02002 8.433 7.02002 6.5C7.02002 4.567 5.45302 3 3.52002 3C1.58702 3 0.0200195 4.567 0.0200195 6.5C0.0200195 8.433 1.58702 10 3.52002 10Z" fill="#F0F6FF"/>
<path d="M40.52 54C42.453 54 44.02 52.433 44.02 50.5C44.02 48.567 42.453 47 40.52 47C38.587 47 37.02 48.567 37.02 50.5C37.02 52.433 38.587 54 40.52 54Z" fill="#F0F6FF"/>
</g>
<defs>
<clipPath id="clip0_98_2757">
<rect width="44.02" height="57.57" fill="white"/>
</clipPath>
</defs>
</svg>
