<svg width="68" height="58" viewBox="0 0 68 58" fill="none" xmlns="http://www.w3.org/2000/svg">
<path d="M2.01078 49.4311L4.79936 55.1364L7.67341 49.4311H9.1692V56.896H7.91914V51.5212L5.22672 56.896H4.31857L1.64751 51.5319V56.896H0.397461V49.4311H2.01078ZM14.7503 49.4311L17.9556 56.7573C17.9699 56.7931 17.9699 56.8251 17.9556 56.8533C17.9485 56.8815 17.9235 56.896 17.8808 56.896H16.6414L16.1179 55.6696H12.1434L11.6519 56.896H10.4125C10.3698 56.896 10.3413 56.8815 10.3271 56.8533C10.32 56.8251 10.3235 56.7931 10.3377 56.7573L13.4148 49.4311H14.7503ZM12.5173 54.7525H15.7333L14.0986 50.8494L12.5173 54.7525ZM22.7702 49.4311C23.2047 49.4311 23.5822 49.495 23.9027 49.623C24.2232 49.7438 24.4868 49.9144 24.6934 50.1349C24.8999 50.3553 25.053 50.6183 25.1528 50.924C25.2525 51.2226 25.3024 51.5461 25.3024 51.8945C25.3024 52.4561 25.1848 52.9253 24.9498 53.3021C24.7147 53.6718 24.3942 53.9491 23.9882 54.1339L25.8686 56.768C25.8829 56.7893 25.8864 56.8175 25.8793 56.8533C25.8722 56.8815 25.8508 56.896 25.8152 56.896H24.4262L22.7061 54.3579H20.4197V56.896H19.0948V49.4311H22.7702ZM20.4197 53.3555H22.5886C23.0017 53.3555 23.3365 53.231 23.5929 52.9822C23.8564 52.7334 23.9882 52.385 23.9882 51.9371C23.9882 51.5177 23.8707 51.1728 23.6356 50.9027C23.4006 50.6325 23.0516 50.4975 22.5886 50.4975H20.4197V53.3555ZM28.3081 49.4311V52.5663L31.6309 49.4311H32.9558C32.9913 49.4311 33.0163 49.4488 33.0305 49.4844C33.0447 49.5199 33.0376 49.5554 33.0092 49.591L29.4727 52.8329L33.4793 56.768C33.5007 56.7893 33.5078 56.8175 33.5007 56.8533C33.4935 56.8815 33.4686 56.896 33.4259 56.896H32.0049L28.3081 53.2702V56.896H26.9619V49.4311H28.3081ZM40.4117 49.4311V50.5081H35.9457V52.6196H40.3796V53.5368H35.9457V55.7976H40.4223V56.896H34.5994V49.4311H40.4117ZM48.1198 49.4311V50.5081H45.4808V56.896H44.1346V50.5081H41.4849V49.4311H48.1198ZM50.7408 49.4311V56.896H49.3946V49.4311H50.7408ZM53.9572 49.4311L57.9424 54.7631V49.4311H59.1497V56.896H58.0172L53.7114 51.1373V56.896H52.4934V49.4311H53.9572ZM67.8367 52.7263C67.8795 53.0462 67.9008 53.3483 67.9008 53.6327C67.9008 54.1304 67.8299 54.5925 67.6871 55.0191C67.5521 55.4456 67.3414 55.8151 67.0568 56.1282C66.7721 56.4336 66.4119 56.6758 65.9777 56.8533C65.5503 57.0239 65.0443 57.1093 64.4605 57.1093C63.805 57.1093 63.2357 57.0026 62.751 56.7893C62.2741 56.576 61.8749 56.2919 61.5544 55.9362C61.2408 55.5736 61.0057 55.1577 60.8493 54.6885C60.6928 54.2193 60.6142 53.7287 60.6142 53.2168C60.6142 52.6196 60.7142 52.0758 60.9134 51.5852C61.1125 51.0947 61.3873 50.6752 61.736 50.3268C62.0924 49.9713 62.5091 49.6977 62.9861 49.5057C63.4707 49.3137 63.9942 49.2178 64.5567 49.2178C65.084 49.2178 65.5999 49.3066 66.1059 49.4844C66.6187 49.655 67.0568 49.9109 67.42 50.2522L66.6828 51.1053C66.4119 50.8565 66.0883 50.6681 65.7106 50.5401C65.3404 50.405 64.9695 50.3375 64.5994 50.3375C64.2148 50.3375 63.8584 50.4086 63.531 50.5508C63.2105 50.6858 62.9289 50.8814 62.6869 51.1373C62.4519 51.3861 62.2664 51.6883 62.1314 52.0438C62.0032 52.3992 61.939 52.7938 61.939 53.2275C61.939 53.6042 61.9925 53.9633 62.0993 54.3046C62.2062 54.639 62.3626 54.9338 62.5694 55.1897C62.7831 55.4388 63.0464 55.6376 63.36 55.7869C63.6737 55.9293 64.04 56.0002 64.4605 56.0002C65.1657 56.0002 65.7106 55.7938 66.0952 55.3817C66.4798 54.9696 66.6721 54.3967 66.6721 53.6647H64.2896V52.7263H67.8367Z" fill="#F0F6FF"/>
<path d="M31.951 1.79009C33.0987 0.830388 34.9514 0.830388 36.0662 1.79009L38.6567 3.98599C39.1485 4.39268 40.0831 4.73423 40.7389 4.73423H43.5261C45.264 4.73423 46.6904 6.14937 46.6904 7.87354V10.6388C46.6904 11.2894 47.0347 12.2004 47.4446 12.6883L49.658 15.2583C50.6253 16.3969 50.6253 18.2351 49.658 19.3411L47.4446 21.9112C47.0347 22.3991 46.6904 23.3101 46.6904 23.9607V26.7259C46.6904 28.4501 45.264 29.8653 43.5261 29.8653H40.7389C40.0831 29.8653 39.1649 30.2068 38.6731 30.6135L36.0826 32.8094C34.935 33.7691 33.0822 33.7691 31.9674 32.8094L29.377 30.6135C28.8851 30.2068 27.9505 29.8653 27.3111 29.8653H24.4419C22.7041 29.8653 21.2776 28.4501 21.2776 26.7259V23.9444C21.2776 23.3101 20.9497 22.3829 20.5399 21.9112L18.3265 19.3249C17.3755 18.2025 17.3755 16.3807 18.3265 15.2583L20.5399 12.672C20.9497 12.1841 21.2776 11.2732 21.2776 10.6388V7.88984C21.2776 6.16567 22.7041 4.75046 24.4419 4.75046H27.2784C27.9341 4.75046 28.8523 4.4089 29.3441 4.00229L31.951 1.79009Z" stroke="#F0F6FF" stroke-width="2" stroke-linecap="round" stroke-linejoin="round"/>
<path d="M28.2617 23.7327L34.0001 10.915L39.7384 23.7327" stroke="#F0F6FF" stroke-width="2" stroke-linejoin="bevel"/>
<path d="M36.8693 19.4551H31.1309" stroke="#F0F6FF" stroke-width="2" stroke-linecap="round" stroke-linejoin="round"/>
</svg>
