<svg width="27" height="27" viewBox="0 0 27 27" fill="none" xmlns="http://www.w3.org/2000/svg">
<path d="M0.76781 0.10046C0.496287 0.225214 0.180735 0.555443 0.0779964 0.826965C-0.0247417 1.09115 -0.0247417 1.61952 0.070658 1.8837C0.114689 2.00112 2.65379 4.59892 5.85335 7.79114L11.5553 13.5004L5.85335 19.2024C2.65379 22.402 0.114689 24.9998 0.070658 25.1172C-0.0247417 25.3814 -0.0247417 25.9097 0.0779964 26.1739C0.180735 26.4528 0.496287 26.783 0.782486 26.9004C1.06135 27.0252 1.58971 27.0325 1.88325 26.9298C2.00067 26.8858 4.59847 24.3467 7.79803 21.1471L13.5 15.4451L19.2093 21.1471C22.4015 24.3467 24.9993 26.8858 25.1167 26.9298C25.4103 27.0325 25.9387 27.0252 26.2175 26.9004C26.5037 26.783 26.8193 26.4528 26.922 26.1739C27.0247 25.9097 27.0247 25.3814 26.9293 25.1172C26.8853 24.9998 24.3462 22.402 21.1467 19.2024L15.4447 13.5004L21.1467 7.79114C24.3462 4.59892 26.8853 2.00112 26.9293 1.8837C27.0247 1.61952 27.0247 1.09115 26.922 0.826965C26.8193 0.548105 26.5037 0.217875 26.2175 0.10046C25.9387 -0.0242939 25.4103 -0.0316315 25.1167 0.071106C24.9993 0.115137 22.4015 2.65424 19.2093 5.8538L13.5 11.5558L7.79803 5.8538C4.59847 2.65424 2.00067 0.115137 1.88325 0.071106C1.59705 -0.0316315 1.03199 -0.0169544 0.76781 0.10046Z" fill="url(#paint0_linear_391_2068)"/>
<defs>
<linearGradient id="paint0_linear_391_2068" x1="0" y1="27.001" x2="27" y2="27.001" gradientUnits="userSpaceOnUse">
<stop offset="0.03" stop-color="#A237A1"/>
<stop offset="0.575" stop-color="#4C5ED9"/>
<stop offset="0.93" stop-color="#4C5ED9"/>
</linearGradient>
</defs>
</svg>
