<svg width="57" height="68" viewBox="0 0 57 68" fill="none" xmlns="http://www.w3.org/2000/svg">
<path d="M47.0793 19.1594C47.0793 16.8026 45.8134 14.5692 43.5261 12.7083C43.8458 9.79318 43.0812 7.37392 41.3705 5.69889C39.6598 4.02385 37.1845 3.34212 34.2079 3.58968C32.3092 1.35706 30.0219 0.116211 27.6156 0.116211C25.2093 0.116211 22.922 1.35706 21.0233 3.58968C18.0467 3.27966 15.5714 4.02385 13.8607 5.69889C12.15 7.37392 11.4544 9.79318 11.7051 12.7083C9.42405 14.5692 8.1582 16.8026 8.1582 19.1594C8.1582 21.5161 9.42405 23.7495 11.7051 25.6104C11.3854 28.5255 12.15 30.9448 13.8607 32.6198C15.7594 34.4807 18.36 34.9766 21.0233 34.729C22.922 36.9617 25.2093 38.2025 27.6156 38.2025C30.0219 38.2025 32.3092 36.9617 34.2079 34.729C37.5041 35.0391 39.8477 34.1083 41.3705 32.6198C43.0812 30.9448 43.7768 28.5255 43.5261 25.6104C45.8071 23.7495 47.0793 21.5161 47.0793 19.1594ZM40.23 6.87727C41.3705 7.99396 42.0034 9.669 41.9408 11.6541C40.5433 10.7857 39.0269 10.1032 37.4414 9.60654C36.9338 8.05567 36.2383 6.56725 35.3484 5.203C35.4111 5.203 39.2148 5.82304 40.23 6.87727ZM40.5496 17.4226C39.9794 16.4918 39.3464 15.5617 38.6446 14.6934C38.5192 13.5767 38.2623 12.5224 38.0116 11.4674C39.3401 11.9641 40.6123 12.6466 41.7527 13.4525C41.5648 14.8175 41.1198 16.1818 40.5496 17.4226ZM41.8154 24.8662C40.6749 25.6721 39.3401 26.2929 38.0743 26.8513C38.325 25.7963 38.5819 24.742 38.7073 23.6253C39.4028 22.757 40.0358 21.827 40.606 20.8961C41.1136 22.137 41.5585 23.5012 41.8091 24.8662H41.8154ZM33.5124 32.9923C32.115 32.744 30.7238 32.3098 29.4579 31.7515C30.4104 31.1931 31.3629 30.5731 32.2465 29.8906C33.387 29.7664 34.4649 29.5181 35.5427 29.2705C35.0351 30.5731 34.3395 31.8756 33.5124 32.9923ZM19.8201 29.2705C20.8979 29.5181 21.9758 29.7664 23.1162 29.8906C24.0061 30.5731 24.9523 31.1931 25.9048 31.7515C24.639 32.3098 23.2416 32.744 21.8504 32.9923C21.0295 31.8756 20.3277 30.5731 19.8201 29.2705ZM14.8132 20.8961C15.3835 21.827 16.0164 22.757 16.7119 23.6253C16.8373 24.742 17.0942 25.7963 17.3449 26.8513C16.0164 26.3546 14.7443 25.6721 13.6038 24.8662C13.7918 23.5012 14.2367 22.137 14.8069 20.8961H14.8132ZM13.5474 13.4525C14.6879 12.6466 16.0226 12.0258 17.2885 11.4674C17.0378 12.5224 16.7809 13.5767 16.6555 14.6934C15.96 15.5617 15.3271 16.4918 14.7568 17.4226C14.2492 16.1818 13.8043 14.8175 13.5537 13.4525H13.5474ZM21.8504 5.32644C23.2479 5.57476 24.639 6.00892 25.9048 6.56726C24.9523 7.12561 23.9998 7.74565 23.1162 8.42816C21.9758 8.55232 20.8979 8.80066 19.8201 9.04822C20.3277 7.74567 21.0233 6.44313 21.8504 5.32644ZM35.5427 9.04822C34.4649 8.80066 33.387 8.55232 32.2465 8.42816C31.3567 7.74565 30.4104 7.12561 29.4579 6.56726C30.7864 6.00892 32.1212 5.57476 33.5124 5.32644C34.3332 6.44313 35.0351 7.74567 35.5427 9.04822ZM37.1281 23.0053C35.9876 24.432 34.7217 25.7346 33.3243 26.9754V23.8737C33.3243 21.7645 32.1212 19.9036 30.2789 18.9735C31.1687 18.2293 31.6763 17.1743 31.6763 15.9959C31.6763 13.825 29.8402 12.0258 27.6219 12.0258C25.4035 12.0258 23.5674 13.825 23.5674 15.9959C23.5674 17.1743 24.1377 18.291 24.9648 18.9735C23.1915 19.9036 21.9194 21.7645 21.9194 23.8737V26.9754C20.522 25.7346 19.2561 24.3696 18.1157 23.0053C17.796 20.5244 17.796 17.8568 18.1157 15.3134C19.701 13.3283 21.5998 11.4675 23.6301 9.9166C26.168 9.60658 28.894 9.60658 31.4882 9.9166C33.5186 11.4675 35.4174 13.3283 37.0027 15.3134C37.4477 17.8568 37.4477 20.4619 37.1281 23.0053ZM23.6238 28.3397V23.9354C23.6238 21.7645 25.4599 19.966 27.6783 19.966C29.8966 19.966 31.7327 21.7645 31.7327 23.9354V28.3397C31.6909 28.3808 31.6491 28.4227 31.6074 28.4639C29.0068 28.7739 26.3435 28.7739 23.7492 28.4639C23.7492 28.4022 23.6865 28.3397 23.6238 28.3397ZM25.2719 15.9959C25.2719 14.6934 26.3498 13.6384 27.6783 13.6384C29.0068 13.6384 30.0846 14.6934 30.0846 15.9959C30.0846 17.2985 29.0068 18.3527 27.6783 18.3527C26.3498 18.3527 25.2719 17.2985 25.2719 15.9959ZM34.7781 10.4749C35.2857 10.5991 35.7306 10.7233 36.2383 10.8474C36.3636 11.2816 36.4889 11.7775 36.6205 12.2741C35.9876 11.6541 35.4174 11.0333 34.7844 10.4749H34.7781ZM28.9441 8.11815C28.1232 8.11815 27.296 8.05569 26.3435 8.11815C26.7884 7.86982 27.1644 7.62151 27.6093 7.37395C28.1169 7.62151 28.5618 7.86982 28.9378 8.11815H28.9441ZM20.5784 10.4749C19.9454 11.0333 19.3752 11.5916 18.7423 12.2741C18.8676 11.7775 18.9929 11.3433 19.1246 10.8474C19.6321 10.7233 20.1397 10.5991 20.5846 10.4749H20.5784ZM16.3924 17.9185C16.3924 18.7252 16.3297 19.5319 16.3924 20.4619C16.1417 20.0277 15.8848 19.6552 15.6341 19.2211C15.8848 18.7252 16.1417 18.291 16.3924 17.9185ZM18.7987 26.107C19.3689 26.7271 19.9391 27.2855 20.6348 27.9055C20.1272 27.7813 19.6823 27.6572 19.1747 27.533C19.0493 27.0371 18.924 26.5412 18.7924 26.107H18.7987ZM26.4061 30.2006C27.296 30.263 28.1169 30.263 29.0068 30.2006C28.5618 30.4489 28.1858 30.6972 27.7409 30.9448C27.2333 30.6972 26.7884 30.4489 26.4124 30.2006H26.4061ZM34.7719 27.8438C35.4048 27.2855 35.9751 26.7271 36.608 26.0446C36.4827 26.5413 36.3573 26.9754 36.2257 27.4713C35.7181 27.5955 35.2105 27.7196 34.7656 27.8438H34.7719ZM38.9579 20.4002C39.0205 19.5319 39.0205 18.7252 38.9579 17.8568C39.2086 18.291 39.4655 18.6635 39.7162 19.0977C39.4655 19.5936 39.2086 20.0278 38.9579 20.4002ZM32.3656 3.96217C30.7802 4.3339 29.1947 4.89222 27.672 5.63719C26.2119 4.89222 24.6265 4.3339 22.9784 3.96217C25.8923 1.10875 29.3828 0.984587 32.3593 3.96217H32.3656ZM20.0018 5.203C19.112 6.56725 18.4164 8.05567 17.9088 9.60654C16.3234 10.1032 14.8007 10.7857 13.4095 11.6541C13.3468 7.68394 15.7532 5.14054 20.0018 5.203ZM12.1436 14.5692C12.5259 16.1201 13.0962 17.6709 13.8544 19.1594C13.0962 20.5861 12.5259 22.137 12.1436 23.7495C9.22975 20.8961 9.09819 17.4843 12.1436 14.5692ZM13.4095 26.6647C14.8069 27.533 16.3234 28.2155 17.9088 28.7122C18.4164 30.2631 19.112 31.7515 20.0018 33.1157C15.8785 33.1782 13.3468 30.8206 13.4095 26.6647ZM22.9784 34.3566C24.6265 33.9848 26.1493 33.4265 27.672 32.6815C29.1321 33.4265 30.7175 33.9848 32.3656 34.3566C29.4517 37.21 25.9612 37.3341 22.9847 34.3566H22.9784ZM35.3421 33.1157C36.232 31.7515 36.9276 30.2631 37.4352 28.7122C39.0205 28.2155 40.5433 27.533 41.9345 26.6647C41.9972 30.6972 39.5908 33.1782 35.3421 33.1157ZM41.4896 19.1594C42.2478 17.6709 42.8181 16.1201 43.2003 14.5692C46.1769 17.3602 46.2458 20.8344 43.2003 23.6878C42.8181 22.137 42.2478 20.6478 41.4896 19.1594Z" fill="#F0F6FF"/>
<path d="M4.37467 46.7338C4.80913 46.7338 5.18666 46.7947 5.50719 46.9166C5.82772 47.0385 6.09124 47.2061 6.29782 47.427C6.51151 47.6402 6.66818 47.8992 6.76793 48.2039C6.8676 48.501 6.91751 48.8362 6.91751 49.1942C6.91751 49.5827 6.8605 49.9331 6.74656 50.2454C6.63972 50.5577 6.47946 50.8243 6.26577 51.0528C6.05209 51.2737 5.78498 51.4413 5.46445 51.5631C5.14393 51.685 4.77349 51.746 4.3533 51.746H2.05619V54.1987H0.709981V46.7338H4.37467ZM2.05619 50.71H4.18235C4.63818 50.71 4.98718 50.5805 5.2294 50.3139C5.47865 50.0473 5.60335 49.6893 5.60335 49.2399C5.60335 48.8133 5.48582 48.4705 5.25077 48.2039C5.01572 47.9373 4.66314 47.8002 4.19303 47.8002H2.05619V50.71ZM9.55811 46.7338V49.834H13.5326V46.7338H14.8682V54.1987H13.5326V50.9157H9.55811V54.1987H8.2119V46.7338H9.55811ZM17.444 46.7338L19.8907 50.2454L22.348 46.7338H23.5874C23.623 46.7338 23.6443 46.7491 23.6515 46.7871C23.6657 46.8252 23.6622 46.8557 23.6408 46.8862L20.489 51.3499V54.1987H19.1428V51.3499L15.9909 46.8862C15.9696 46.8557 15.9624 46.8252 15.9696 46.7871C15.9837 46.7491 16.0123 46.7338 16.055 46.7338H17.444ZM24.2039 52.5001C24.5956 52.7286 25.0088 52.919 25.4432 53.0561C25.8849 53.2009 26.3835 53.2694 26.939 53.2694C27.4875 53.2694 27.9256 53.1856 28.2532 53.0028C28.5808 52.82 28.7447 52.5458 28.7447 52.1801C28.7447 52.0202 28.6983 51.8679 28.6058 51.7384C28.5203 51.6012 28.3743 51.4793 28.1677 51.3727C27.9754 51.2737 27.7474 51.1899 27.4839 51.1137C27.2204 51.0452 26.9426 50.969 26.6506 50.8928C26.3585 50.8166 26.0629 50.7252 25.7638 50.6262C25.4717 50.5196 25.2011 50.3825 24.9518 50.2073C24.674 50.0245 24.4603 49.8112 24.3107 49.5674C24.1682 49.3313 24.097 49.0266 24.097 48.661C24.097 48.2877 24.1718 47.9678 24.3214 47.7012C24.4781 47.4346 24.6882 47.2137 24.9518 47.0537C25.2153 46.8861 25.5144 46.7567 25.8492 46.6805C26.1911 46.6043 26.5508 46.5662 26.9283 46.5662C27.4768 46.5662 28.0004 46.6348 28.4989 46.7795C28.9975 46.909 29.432 47.0766 29.8024 47.2746L29.4071 48.2801C29.0509 48.0973 28.6699 47.945 28.2639 47.8231C27.8579 47.7012 27.4412 47.6403 27.0138 47.6403C26.8001 47.6403 26.5935 47.6631 26.3941 47.7012C26.2018 47.7469 26.0273 47.8078 25.8706 47.8992C25.7139 47.983 25.5892 48.0897 25.4967 48.2268C25.4041 48.3563 25.3578 48.5086 25.3578 48.6838C25.3578 48.859 25.4041 49.0038 25.4967 49.1256C25.5964 49.2399 25.7281 49.3542 25.892 49.4532C26.0986 49.5751 26.3336 49.674 26.5971 49.7502C26.8607 49.8264 27.1313 49.9026 27.4091 49.9788C27.694 50.0473 27.9754 50.1235 28.2532 50.2073C28.531 50.2987 28.791 50.4053 29.0331 50.5424C29.3679 50.7253 29.6137 50.9462 29.7703 51.2128C29.9342 51.4794 30.0161 51.7993 30.0161 52.1801C30.0161 52.5686 29.9377 52.8961 29.781 53.178C29.6244 53.4446 29.4071 53.6731 29.1293 53.8559C28.8586 54.0387 28.5381 54.1683 28.1677 54.252C27.7974 54.3358 27.3949 54.3815 26.9604 54.3815C26.3193 54.3815 25.746 54.2977 25.2402 54.1378C24.7345 53.9702 24.2751 53.7569 23.862 53.4827L24.2039 52.5001ZM32.7106 46.7338V54.1987H31.3644V46.7338H32.7106ZM40.0405 48.5696C39.7199 48.242 39.3923 48.0135 39.0575 47.8764C38.7299 47.7393 38.3737 47.6707 37.9891 47.6707C37.576 47.6707 37.2127 47.7469 36.8993 47.8992C36.5931 48.0363 36.3366 48.2344 36.13 48.4934C35.9235 48.7448 35.7668 49.0342 35.6599 49.377C35.5602 49.7121 35.5104 50.0702 35.5104 50.4587C35.5104 50.8395 35.5602 51.2051 35.6599 51.5403C35.7668 51.8755 35.9235 52.1725 36.13 52.4315C36.3366 52.6753 36.5931 52.8733 36.8993 53.0257C37.2127 53.1704 37.576 53.2389 37.9891 53.2389C38.3808 53.2389 38.7513 53.1628 39.1003 53.0181C39.4564 52.8581 39.784 52.6296 40.0832 52.3325L40.8097 53.2389C40.4749 53.5817 40.0761 53.8635 39.6131 54.0844C39.1501 54.3053 38.5945 54.412 37.9464 54.412C37.3267 54.412 36.7782 54.3054 36.301 54.0921C35.8309 53.8788 35.4356 53.5893 35.1151 53.2313C34.8016 52.8657 34.5631 52.4468 34.3992 51.9669C34.2425 51.4946 34.1642 50.9918 34.1642 50.4662C34.1642 49.9483 34.2425 49.4532 34.3992 48.9733C34.5631 48.4934 34.8016 48.0744 35.1151 47.7164C35.4356 47.3508 35.8309 47.0613 36.301 46.848C36.7782 46.6271 37.3267 46.5205 37.9464 46.5205C38.5945 46.5205 39.143 46.6271 39.5917 46.848C40.0405 47.0689 40.4322 47.3508 40.767 47.6936L40.0405 48.5696ZM45.8947 46.7338L49.0997 54.0616C49.1142 54.0921 49.1142 54.1302 49.0997 54.153C49.0928 54.1835 49.0676 54.1987 49.0249 54.1987H47.7855L47.262 52.9724H43.2878L42.7963 54.1987H41.5569C41.5142 54.1987 41.4857 54.1835 41.4715 54.153C41.4644 54.1302 41.4679 54.0921 41.4821 54.0616L44.5592 46.7338H45.8947ZM43.6617 52.0583H46.8774L45.243 48.1506L43.6617 52.0583ZM51.5853 46.7338V53.1247H55.7735V54.1987H50.2391V46.7338H51.5853ZM5.91182 59.6831V60.7572H1.44582V62.8748H5.87977V63.7888H1.44582V66.0512H5.9225V67.1481H0.0996094V59.6831H5.91182ZM8.25647 59.6831L10.6925 65.6551L13.1392 59.6831H14.3785C14.4213 59.6831 14.4462 59.6984 14.4533 59.7289C14.4676 59.7517 14.4676 59.7898 14.4533 59.8203L11.3228 67.1481H10.0835L6.88889 59.8203C6.87462 59.7898 6.87111 59.7517 6.8782 59.7289C6.89248 59.6984 6.92094 59.6831 6.96368 59.6831H8.25647ZM16.8878 59.6831V67.1481H15.5416V59.6831H16.8878ZM21.8671 59.6831C22.4583 59.6831 22.9747 59.7898 23.4163 59.9954C23.865 60.1935 24.239 60.4601 24.5381 60.8029C24.8373 61.1457 25.0617 61.5418 25.2112 61.9988C25.3679 62.4482 25.4463 62.9205 25.4463 63.4156C25.4463 63.9107 25.3679 64.3906 25.2112 64.8476C25.0617 65.2894 24.8373 65.6856 24.5381 66.0283C24.239 66.3711 23.865 66.6453 23.4163 66.851C22.9747 67.049 22.4583 67.1481 21.8671 67.1481H18.6405V59.6831H21.8671ZM19.9867 66.0512H21.7709C22.1627 66.0512 22.5046 65.9827 22.7966 65.8455C23.0958 65.7084 23.3415 65.5104 23.5338 65.2742C23.7332 65.0305 23.8793 64.7487 23.9719 64.4287C24.0716 64.1088 24.1215 63.766 24.1215 63.408C24.1215 63.0423 24.0716 62.6996 23.9719 62.3797C23.8793 62.0597 23.7332 61.7779 23.5338 61.5418C23.3415 61.298 23.0958 61.1076 22.7966 60.9705C22.5046 60.8334 22.1627 60.7572 21.7709 60.7572H19.9867V66.0512ZM32.7162 59.6831V60.7572H28.2502V62.8748H32.6842V63.7888H28.2502V66.0512H32.7269V67.1481H26.904V59.6831H32.7162ZM35.734 59.6831L39.7193 65.0152V59.6831H40.9266V67.1481H39.794L35.4883 61.3894V67.1481H34.2703V59.6831H35.734ZM48.2678 61.5189C47.9473 61.1914 47.6192 60.9628 47.2849 60.8257C46.9567 60.6886 46.6011 60.6201 46.2162 60.6201C45.803 60.6201 45.4397 60.6962 45.1264 60.8486C44.82 60.9857 44.5636 61.1838 44.3571 61.4427C44.1505 61.6941 43.9939 61.9836 43.887 62.3264C43.7873 62.6615 43.7374 63.0195 43.7374 63.408C43.7374 63.7888 43.7873 64.1545 43.887 64.4896C43.9939 64.8248 44.1505 65.1219 44.3571 65.3809C44.5636 65.6247 44.82 65.8226 45.1264 65.975C45.4397 66.1197 45.803 66.1883 46.2162 66.1883C46.608 66.1883 46.9781 66.1121 47.3276 65.9674C47.6833 65.8074 48.0114 65.5789 48.3106 65.2819L49.0371 66.1883C48.7021 66.5311 48.303 66.8129 47.8405 67.0338C47.3772 67.2547 46.8217 67.3614 46.1734 67.3614C45.5537 67.3614 45.0053 67.2547 44.5281 67.0414C44.058 66.8281 43.6626 66.5387 43.3421 66.1807C43.0287 65.815 42.7901 65.3961 42.6263 64.9162C42.4695 64.4439 42.3912 63.9412 42.3912 63.4156C42.3912 62.8976 42.4695 62.4025 42.6263 61.9226C42.7901 61.4427 43.0287 61.0238 43.3421 60.6658C43.6626 60.3001 44.058 60.0107 44.5281 59.7974C45.0053 59.5765 45.5537 59.4699 46.1734 59.4699C46.8217 59.4699 47.3704 59.5765 47.8191 59.7974C48.2678 60.0183 48.6593 60.3001 48.9944 60.6429L48.2678 61.5189ZM56.0986 59.6831V60.7572H51.6326V62.8748H56.0666V63.7888H51.6326V66.0512H56.1093V67.1481H50.2864V59.6831H56.0986Z" fill="#F0F6FF"/>
</svg>
