<svg width="44" height="59" viewBox="0 0 44 59" fill="none" xmlns="http://www.w3.org/2000/svg">
<path d="M31.3485 9.93074C31.2512 9.91475 31.1377 9.91475 31.0404 9.93074C28.8024 9.85152 27.0186 8.05766 27.0186 5.83647C27.0186 3.56728 28.8835 1.74219 31.2026 1.74219C33.5216 1.74219 35.3866 3.58252 35.3866 5.83647C35.3703 8.05766 33.5864 9.85152 31.3485 9.93074Z" stroke="#F0F6FF" stroke-width="2" stroke-linecap="round" stroke-linejoin="round"/>
<path d="M29.6775 21.4838C31.8993 21.8487 34.348 21.4679 36.0671 20.3413C38.3537 18.849 38.3537 16.4054 36.0671 14.914C34.3319 13.7866 31.8506 13.4058 29.6289 13.7866" stroke="#F0F6FF" stroke-width="2" stroke-linecap="round" stroke-linejoin="round"/>
<path d="M11.8389 9.93074C11.9362 9.91475 12.0497 9.91475 12.147 9.93074C14.3849 9.85152 16.1688 8.05766 16.1688 5.83647C16.1688 3.56728 14.3039 1.74219 11.9848 1.74219C9.66579 1.74219 7.80078 3.58252 7.80078 5.83647C7.81704 8.05766 9.60092 9.85152 11.8389 9.93074Z" stroke="#F0F6FF" stroke-width="2" stroke-linecap="round" stroke-linejoin="round"/>
<path d="M13.5098 21.4838C11.288 21.8487 8.83927 21.4679 7.12026 20.3413C4.83361 18.849 4.83361 16.4054 7.12026 14.914C8.85545 13.7866 11.3367 13.4058 13.5584 13.7866" stroke="#F0F6FF" stroke-width="2" stroke-linecap="round" stroke-linejoin="round"/>
<path d="M21.618 21.7843C21.5207 21.7683 21.4072 21.7683 21.3099 21.7843C19.072 21.705 17.2881 19.9119 17.2881 17.69C17.2881 15.4208 19.153 13.5957 21.4721 13.5957C23.7911 13.5957 25.6561 15.4368 25.6561 17.69C25.6399 19.9119 23.856 21.721 21.618 21.7843Z" stroke="#F0F6FF" stroke-width="2" stroke-linecap="round" stroke-linejoin="round"/>
<path d="M16.8995 26.7835C14.6129 28.2749 14.6129 30.7186 16.8995 32.2108C19.4942 33.9087 23.7431 33.9087 26.3379 32.2108C28.6245 30.7186 28.6245 28.2749 26.3379 26.7835C23.7594 25.1008 19.4942 25.1008 16.8995 26.7835Z" stroke="#F0F6FF" stroke-width="2" stroke-linecap="round" stroke-linejoin="round"/>
<path d="M3.99379 50.518C4.42825 50.518 4.80579 50.5782 5.12631 50.6993C5.44684 50.8204 5.71036 50.991 5.91694 51.2111C6.13063 51.4244 6.2873 51.6842 6.38705 51.9897C6.48672 52.2882 6.53663 52.6188 6.53663 52.9814C6.53663 53.3653 6.47962 53.7134 6.36568 54.0265C6.25884 54.3396 6.09857 54.6092 5.88489 54.837C5.67121 55.0571 5.4041 55.2277 5.08357 55.3488C4.76305 55.47 4.39261 55.5302 3.97242 55.5302H1.67531V57.9829H0.329102V50.518H3.99379ZM1.67531 54.4957H3.80147C4.2573 54.4957 4.6063 54.3639 4.84852 54.1011C5.09777 53.8307 5.22247 53.472 5.22247 53.0241C5.22247 52.5975 5.10494 52.2524 4.86989 51.9897C4.63484 51.7192 4.28226 51.5844 3.81215 51.5844H1.67531V54.4957ZM13.6432 50.518V51.5951H9.17723V53.7066H13.6112V54.6237H9.17723V56.8845H13.6539V57.9829H7.83102V50.518H13.6432ZM18.5948 50.3047C19.186 50.3047 19.7096 50.4114 20.1654 50.6246C20.6284 50.8379 21.0166 51.1258 21.33 51.4884C21.6505 51.851 21.8927 52.2707 22.0565 52.7468C22.2204 53.2229 22.3022 53.7241 22.3022 54.2504C22.3022 54.7768 22.2204 55.278 22.0565 55.7541C21.8927 56.2301 21.6505 56.6499 21.33 57.0125C21.0166 57.3751 20.6284 57.663 20.1654 57.8762C19.7096 58.0895 19.186 58.1962 18.5948 58.1962C18.0036 58.1962 17.4766 58.0895 17.0136 57.8762C16.5577 57.663 16.1731 57.3751 15.8597 57.0125C15.5462 56.6499 15.3077 56.2301 15.1438 55.7541C14.98 55.278 14.8981 54.7768 14.8981 54.2504C14.8981 53.7241 14.98 53.2229 15.1438 52.7468C15.3077 52.2707 15.5462 51.851 15.8597 51.4884C16.1731 51.1258 16.5577 50.8379 17.0136 50.6246C17.4766 50.4114 18.0036 50.3047 18.5948 50.3047ZM18.5948 51.4564C18.2102 51.4564 17.8719 51.5311 17.5798 51.6804C17.2878 51.8228 17.042 52.0216 16.8426 52.2776C16.6503 52.5267 16.5007 52.8214 16.3939 53.1627C16.2941 53.4971 16.2443 53.8559 16.2443 54.2398C16.2443 54.6237 16.2941 54.9863 16.3939 55.3275C16.5007 55.6619 16.6503 55.9567 16.8426 56.2127C17.042 56.4618 17.2878 56.6606 17.5798 56.8099C17.8719 56.9523 18.2102 57.0231 18.5948 57.0231C18.9795 57.0231 19.3178 56.9523 19.6098 56.8099C19.9019 56.6606 20.144 56.4618 20.3364 56.2127C20.5358 55.9567 20.6853 55.6619 20.7851 55.3275C20.8919 54.9863 20.9454 54.6237 20.9454 54.2398C20.9454 53.8559 20.8919 53.4971 20.7851 53.1627C20.6853 52.8214 20.5358 52.5267 20.3364 52.2776C20.144 52.0216 19.9019 51.8228 19.6098 51.6804C19.3178 51.5311 18.9795 51.4564 18.5948 51.4564ZM27.4176 50.518C27.8522 50.518 28.2296 50.5782 28.5501 50.6993C28.8707 50.8204 29.1343 50.991 29.3408 51.2111C29.5545 51.4244 29.7112 51.6842 29.8109 51.9897C29.9106 52.2882 29.9605 52.6188 29.9605 52.9814C29.9605 53.3653 29.9035 53.7134 29.7895 54.0265C29.6827 54.3396 29.5224 54.6092 29.3087 54.837C29.095 55.0571 28.8279 55.2277 28.5074 55.3488C28.1869 55.47 27.8165 55.5302 27.3962 55.5302H25.0991V57.9829H23.7529V50.518H27.4176ZM25.0991 54.4957H27.2253C27.6812 54.4957 28.0302 54.3639 28.2724 54.1011C28.5217 53.8307 28.6463 53.472 28.6463 53.0241C28.6463 52.5975 28.5288 52.2524 28.2937 51.9897C28.0587 51.7192 27.7061 51.5844 27.236 51.5844H25.0991V54.4957ZM32.6011 50.518V56.9058H36.7893V57.9829H31.2549V50.518H32.6011ZM43.8702 50.518V51.5951H39.4039V53.7066H43.8382V54.6237H39.4039V56.8845H43.8809V57.9829H38.0577V50.518H43.8702Z" fill="#F0F6FF"/>
</svg>
