<svg width="37" height="59" viewBox="0 0 37 59" fill="none" xmlns="http://www.w3.org/2000/svg">
<path d="M4.42347 51.0639C4.85794 51.0639 5.23548 51.124 5.556 51.2452C5.87653 51.3663 6.14005 51.5369 6.34663 51.757C6.56032 51.9703 6.71699 52.2301 6.81674 52.5355C6.9164 52.8341 6.96632 53.1647 6.96632 53.5273C6.96632 53.9112 6.90931 54.2593 6.79537 54.5724C6.68853 54.8855 6.52826 55.1551 6.31458 55.3829C6.1009 55.603 5.83379 55.7736 5.51326 55.8947C5.19274 56.0159 4.8223 56.076 4.40211 56.076H2.105V58.5288H0.758789V51.0639H4.42347ZM2.105 55.0416H4.23116C4.68699 55.0416 5.03598 54.9098 5.27821 54.647C5.52746 54.3766 5.65216 54.0178 5.65216 53.57C5.65216 53.1434 5.53463 52.7983 5.29958 52.5355C5.06453 52.2651 4.71195 52.1303 4.24184 52.1303H2.105V55.0416ZM9.60684 51.0639V57.4517H13.7951V58.5288H8.26063V51.0639H9.60684ZM19.1078 51.0639L22.313 58.3901C22.3273 58.4259 22.3273 58.4579 22.313 58.4861C22.3059 58.5143 22.281 58.5288 22.2383 58.5288H20.9989L20.4754 57.3024H16.5008L16.0094 58.5288H14.77C14.7273 58.5288 14.6988 58.5143 14.6845 58.4861C14.6774 58.4579 14.681 58.4259 14.6952 58.3901L17.7723 51.0639H19.1078ZM16.8748 56.3853H20.0907L18.456 52.4822L16.8748 56.3853ZM28.3721 52.8981C28.0516 52.5713 27.7239 52.3398 27.3892 52.2049C27.0615 52.0701 26.7054 52.0023 26.3208 52.0023C25.9076 52.0023 25.5443 52.077 25.231 52.2263C24.9246 52.3687 24.6682 52.5675 24.4617 52.8235C24.2551 53.0725 24.0984 53.3673 23.9916 53.7086C23.8919 54.043 23.842 54.4018 23.842 54.7857C23.842 55.1696 23.8919 55.5322 23.9916 55.8734C24.0984 56.2078 24.2551 56.5026 24.4617 56.7585C24.6682 57.0076 24.9246 57.2064 25.231 57.3557C25.5443 57.4982 25.9076 57.569 26.3208 57.569C26.7125 57.569 27.0829 57.4944 27.4319 57.3451C27.788 57.1889 28.1157 56.9612 28.4149 56.6626L29.1414 57.569C28.8066 57.9103 28.4077 58.1913 27.9448 58.4115C27.4818 58.6316 26.9262 58.7421 26.278 58.7421C25.6583 58.7421 25.1099 58.6354 24.6327 58.4221C24.1626 58.2089 23.7672 57.9209 23.4467 57.5583C23.1333 57.1958 22.8946 56.7761 22.7309 56.3C22.5741 55.8239 22.4958 55.3227 22.4958 54.7963C22.4958 54.2776 22.5741 53.7794 22.7309 53.3033C22.8946 52.8273 23.1333 52.4076 23.4467 52.045C23.7672 51.6824 24.1626 51.3945 24.6327 51.1812C25.1099 50.961 25.6583 50.8506 26.278 50.8506C26.9262 50.8506 27.4747 50.961 27.9234 51.1812C28.3721 51.4013 28.7639 51.6824 29.0987 52.0237L28.3721 52.8981ZM36.203 51.0639V52.141H31.737V54.2525H36.1709V55.1696H31.737V57.4304H36.2137V58.5288H30.3908V51.0639H36.203Z" fill="#F0F6FF"/>
<path d="M7.7922 12.1588C10.9269 12.1588 13.4682 9.62226 13.4682 6.49385C13.4682 3.36468 10.9269 0.828125 7.7922 0.828125C4.65745 0.828125 2.11621 3.36468 2.11621 6.49385C2.11621 9.62226 4.65745 12.1588 7.7922 12.1588Z" stroke="#F0F6FF" stroke-width="1.5"/>
<path d="M26.4417 21.8711H31.3068C33.0907 21.8711 34.5502 23.3275 34.5502 25.1084V29.9644C34.5502 31.7453 33.0907 33.2018 31.3068 33.2018H26.4417C24.6578 33.2018 23.1982 31.7453 23.1982 29.9644V25.1084C23.1982 23.3275 24.6578 21.8711 26.4417 21.8711Z" stroke="#F0F6FF" stroke-width="1.5"/>
<path d="M18.3814 5.68359H22.7275C25.7277 5.68359 27.1223 9.39015 24.8682 11.3653L11.9107 22.68C9.65655 24.6384 11.0512 28.3449 14.0352 28.3449H18.3814" stroke="#F0F6FF" stroke-width="1.5" stroke-linecap="round" stroke-linejoin="round"/>
<path d="M7.81836 6.49414H7.83738" stroke="#F0F6FF" stroke-width="1.5" stroke-linecap="round" stroke-linejoin="round"/>
<path d="M28.9004 27.5352H28.9194" stroke="#F0F6FF" stroke-width="1.5" stroke-linecap="round" stroke-linejoin="round"/>
</svg>
