<svg width="40" height="60" viewBox="0 0 40 60" fill="none" xmlns="http://www.w3.org/2000/svg">
<path d="M11.6537 10.814C13.5996 9.94256 15.0318 8.01312 15.0318 5.77288C15.0318 2.72369 12.4308 0.234375 9.25184 0.234375C6.0729 0.234375 3.47199 2.72369 3.47199 5.77288C3.47199 8.01312 4.83346 9.94256 6.85003 10.814C3.016 11.6854 0.158203 14.6097 0.158203 18.0953V24.816C0.158203 25.2517 0.549933 25.625 0.99951 25.625H4.31329V37.5117C4.31329 37.9467 4.70502 38.3207 5.16101 38.3207C5.617 38.3207 6.00231 37.9467 6.00231 37.5117V22.4509C6.00231 22.0159 5.61059 21.6419 5.16101 21.6419C4.71143 21.6419 4.31329 22.0159 4.31329 22.4509V24.0071H1.84722V18.0329C1.84722 14.7346 5.16101 12.0587 9.3161 12.0587C13.4712 12.0587 16.785 14.7346 16.785 18.0329V24.0071H14.3189V22.4509C14.3189 22.0159 13.9272 21.6419 13.4776 21.6419C13.0281 21.6419 12.6299 22.0159 12.6299 22.4509V37.5117C12.6299 37.9467 13.0216 38.3207 13.4776 38.3207C13.9336 38.3207 14.3189 37.9467 14.3189 37.5117V25.625H17.6327C18.0887 25.625 18.474 25.2517 18.474 24.816V18.0953C18.3456 14.6097 15.4877 11.6854 11.6537 10.814ZM5.09034 5.77288C5.09034 3.59511 6.97206 1.78981 9.24543 1.78981C11.5189 1.78981 13.4005 3.59511 13.4005 5.77288C13.4005 7.95142 11.5189 9.75595 9.24543 9.75595C6.97206 9.75595 5.09034 7.95142 5.09034 5.77288Z" fill="#F0F6FF"/>
<path d="M29.3302 19.2773C23.9769 19.2773 19.5811 23.5712 19.5811 28.7989C19.5811 34.0266 23.9769 38.3205 29.3302 38.3205C34.6833 38.3205 39.0796 34.0266 39.0796 28.7989C39.0796 23.5712 34.6833 19.2773 29.3302 19.2773ZM29.3302 36.7026C24.8713 36.7026 21.2374 33.1552 21.2374 28.7989C21.2374 24.4426 24.8713 20.8953 29.3302 20.8953C33.7891 20.8953 37.4229 24.4426 37.4229 28.7989C37.4229 33.1552 33.7891 36.7026 29.3302 36.7026Z" fill="#F0F6FF"/>
<path d="M30.8603 25.6252C30.9233 25.6252 30.9233 25.6869 30.9233 25.6869C30.9233 26.1226 31.3074 26.4959 31.7546 26.4959C32.2017 26.4959 32.5859 26.1226 32.5859 25.6869C32.5859 24.7538 31.8239 24.0065 30.8666 24.0065H30.1675V23.1976C30.1675 22.7619 29.7833 22.3887 29.3425 22.3887C28.9017 22.3887 28.5111 22.7619 28.5111 23.1976V24.0065H27.8121C26.8548 24.0065 26.0928 24.7538 26.0928 25.6869V27.8655C26.0928 28.7361 26.7918 29.4834 27.7491 29.5458H28.5804V31.9102H27.8814C27.8184 31.9102 27.8184 31.8478 27.8184 31.8478C27.8184 31.4128 27.4343 31.0388 26.987 31.0388C26.5399 31.0388 26.1621 31.4128 26.1621 31.8478C26.1621 32.7816 26.9241 33.5281 27.8814 33.5281H28.5804V34.3371C28.5804 34.7728 28.9646 35.146 29.4055 35.146C29.8463 35.146 30.2368 34.7728 30.2368 34.3371V33.5281H30.9358C31.8931 33.5281 32.6552 32.7816 32.6552 31.8478V29.67C32.6552 28.7986 31.9561 28.0521 30.9988 27.9896H30.1675V25.6252H30.8666H30.8603ZM30.8603 29.6075C30.9233 29.6075 30.9233 29.67 30.9233 29.67V31.8478C30.9233 31.9102 30.8603 31.9102 30.8603 31.9102H30.1612V29.5458L30.8603 29.6075ZM28.5049 27.9896H27.8058C27.7428 27.9896 27.7428 27.9272 27.7428 27.9272V25.7494C27.7428 25.6869 27.8058 25.6869 27.8058 25.6869H28.5049V27.9896Z" fill="#F0F6FF"/>
<path d="M23.6614 5.77222H35.0039C35.451 5.77222 35.8352 5.39897 35.8352 4.96326C35.8352 4.52755 35.451 4.1543 35.0039 4.1543H23.6614C23.2143 4.1543 22.8301 4.52755 22.8301 4.96326C22.8301 5.46143 23.2143 5.77222 23.6614 5.77222Z" fill="#F0F6FF"/>
<path d="M23.6614 10.5652H31.7542C32.2014 10.5652 32.5855 10.1919 32.5855 9.75623C32.5855 9.32052 32.2014 8.94727 31.7542 8.94727H23.6614C23.2143 8.94727 22.8301 9.32052 22.8301 9.75623C22.8301 10.1919 23.2143 10.5652 23.6614 10.5652Z" fill="#F0F6FF"/>
<path d="M23.6614 15.2947H35.0039C35.451 15.2947 35.8352 14.9214 35.8352 14.4857C35.8352 14.05 35.451 13.6768 35.0039 13.6768H23.6614C23.2143 13.6768 22.8301 14.05 22.8301 14.4857C22.8301 14.9839 23.2143 15.2947 23.6614 15.2947Z" fill="#F0F6FF"/>
<path d="M9.00662 27.9902C8.55948 27.9902 8.18164 28.3635 8.18164 28.7992V37.5111C8.18164 37.9468 8.56582 38.32 9.00662 38.32C9.44749 38.32 9.83792 37.9468 9.83792 37.5111V28.7992C9.83792 28.3635 9.45383 27.9902 9.00662 27.9902Z" fill="#F0F6FF"/>
<path d="M7.44398 52.184C7.87845 52.184 8.25598 52.2442 8.57651 52.3653C8.89703 52.4864 9.16055 52.657 9.36714 52.8772C9.58082 53.0904 9.7375 53.3502 9.83724 53.6557C9.93691 53.9543 9.98682 54.2849 9.98682 54.6474C9.98682 55.0313 9.92982 55.3795 9.81588 55.6925C9.70903 56.0056 9.54877 56.2752 9.33509 56.503C9.1214 56.7231 8.8543 56.8937 8.53377 57.0149C8.21324 57.136 7.84281 57.1962 7.42261 57.1962H5.12551V59.6489H3.7793V52.184H7.44398ZM5.12551 56.1617H7.25166C7.7075 56.1617 8.05649 56.0299 8.29872 55.7672C8.54797 55.4967 8.67266 55.138 8.67266 54.6901C8.67266 54.2635 8.55514 53.9185 8.32009 53.6557C8.08503 53.3853 7.73245 53.2504 7.26235 53.2504H5.12551V56.1617ZM14.9565 52.184C15.391 52.184 15.7685 52.248 16.089 52.376C16.4096 52.4971 16.6732 52.6677 16.8797 52.8879C17.0862 53.108 17.2394 53.3715 17.3391 53.677C17.4388 53.9756 17.4887 54.2993 17.4887 54.6474C17.4887 55.2088 17.3711 55.678 17.1361 56.0551C16.901 56.4245 16.5805 56.7018 16.1745 56.8869L18.0549 59.5209C18.0692 59.5423 18.0728 59.5704 18.0656 59.6062C18.0585 59.6344 18.0371 59.6489 18.0015 59.6489H16.6126L14.8924 57.1109H12.606V59.6489H11.2811V52.184H14.9565ZM12.606 56.1084H14.7749C15.1881 56.1084 15.5228 55.9843 15.7792 55.7352C16.0428 55.4861 16.1745 55.138 16.1745 54.6901C16.1745 54.2704 16.057 53.9261 15.8219 53.6557C15.5869 53.3853 15.2379 53.2504 14.7749 53.2504H12.606V56.1084ZM20.4944 52.184V59.6489H19.1482V52.184H20.4944ZM27.8243 54.0182C27.5037 53.6914 27.176 53.4599 26.8413 53.3251C26.5136 53.1902 26.1575 53.1225 25.7729 53.1225C25.3597 53.1225 24.9965 53.1971 24.6831 53.3464C24.3768 53.4888 24.1204 53.6877 23.9138 53.9436C23.7073 54.1927 23.5506 54.4875 23.4437 54.8287C23.344 55.1631 23.2942 55.5219 23.2942 55.9058C23.2942 56.2897 23.344 56.6523 23.4437 56.9935C23.5506 57.3279 23.7073 57.6227 23.9138 57.8787C24.1204 58.1278 24.3768 58.3266 24.6831 58.4759C24.9965 58.6183 25.3597 58.6891 25.7729 58.6891C26.1646 58.6891 26.535 58.6145 26.8841 58.4652C27.2401 58.309 27.5678 58.0813 27.867 57.7827L28.5935 58.6891C28.2587 59.0304 27.8598 59.3115 27.3969 59.5316C26.9339 59.7518 26.3783 59.8622 25.7302 59.8622C25.1105 59.8622 24.562 59.7555 24.0848 59.5423C23.6147 59.329 23.2194 59.0411 22.8988 58.6785C22.5854 58.3159 22.3468 57.8962 22.183 57.4201C22.0262 56.944 21.948 56.4428 21.948 55.9164C21.948 55.3977 22.0262 54.8996 22.183 54.4235C22.3468 53.9474 22.5854 53.5277 22.8988 53.1651C23.2194 52.8025 23.6147 52.5146 24.0848 52.3013C24.562 52.0812 25.1105 51.9707 25.7302 51.9707C26.3783 51.9707 26.9268 52.0812 27.3755 52.3013C27.8243 52.5214 28.216 52.8025 28.5508 53.1438L27.8243 54.0182ZM35.6551 52.184V53.2611H31.1891V55.3726H35.6231V56.2897H31.1891V58.5505H35.6658V59.6489H29.8429V52.184H35.6551Z" fill="#F0F6FF"/>
</svg>
