<svg width="52" height="60" viewBox="0 0 52 60" fill="none" xmlns="http://www.w3.org/2000/svg">
<path d="M34.7679 18.2852C34.3208 18.2852 33.943 18.6592 33.943 19.0957C33.943 23.8953 29.9313 27.8227 25.0252 27.8227C24.5781 27.8227 24.2002 28.1968 24.2002 28.6332C24.2002 29.0689 24.5844 29.4429 25.0252 29.4429C30.8256 29.4429 35.5993 24.8307 35.5993 19.0957C35.5993 18.6592 35.2152 18.2852 34.7679 18.2852Z" fill="#F0F6FF"/>
<path d="M25.8502 9.55854C25.8502 9.12207 25.4661 8.74805 25.0253 8.74805C19.225 8.74805 14.4512 13.3611 14.4512 19.0954C14.4512 19.5318 14.8353 19.9058 15.2762 19.9058C15.717 19.9058 16.1075 19.5318 16.1075 19.0954C16.1075 14.2957 20.1192 10.369 25.0253 10.369C25.4724 10.369 25.8502 9.99501 25.8502 9.55854Z" fill="#F0F6FF"/>
<path d="M43.6847 15.9154H39.2891C38.9049 14.3577 38.2688 12.8617 37.3808 11.4898L40.5046 8.43529C40.8258 8.12375 40.8258 7.62556 40.5046 7.31325L37.066 3.94723C36.7448 3.63568 36.2346 3.63568 35.9198 3.94723L32.796 7.00171C31.3916 6.12953 29.8675 5.50571 28.2742 5.13171V0.831004C28.2742 0.394535 27.89 0.0205078 27.4429 0.0205078H22.5998C22.1527 0.0205078 21.7749 0.394535 21.7749 0.831004V5.13171C20.1815 5.50571 18.6511 6.12953 17.253 7.00171L14.1293 3.94723C13.8081 3.63568 13.3043 3.63568 12.9831 3.94723L9.5445 7.31325C9.22328 7.62556 9.22328 8.12375 9.5445 8.43529L12.6682 11.4898C11.7739 12.8617 11.1378 14.3577 10.76 15.9154H6.36411C5.9169 15.9154 5.53906 16.2895 5.53906 16.7259V21.4639C5.53906 21.8996 5.92324 22.2736 6.36411 22.2736H10.76C11.1442 23.8321 11.7802 25.3281 12.6052 26.7L9.48154 29.7537C9.16032 30.066 9.16032 30.5642 9.48154 30.8758L12.9201 34.2418C13.2413 34.5541 13.7514 34.5541 14.0663 34.2418L17.19 31.188C18.5945 32.0602 20.1185 32.6841 21.7119 32.9956V37.2963C21.7119 37.7328 22.0961 38.1068 22.5369 38.1068H27.38C27.8271 38.1068 28.2113 37.7328 28.2113 37.2963V32.9956C29.8046 32.6216 31.3349 31.9978 32.733 31.188L35.8568 34.2418C36.1779 34.5541 36.6881 34.5541 37.003 34.2418L40.4416 30.8758C40.7628 30.5642 40.7628 30.066 40.4416 29.7537L37.3179 26.7C38.2121 25.3281 38.8482 23.8321 39.2324 22.2736H43.6283C44.0755 22.2736 44.4532 21.8996 44.4532 21.4639V16.7259C44.5166 16.2895 44.132 15.9154 43.6916 15.9154H43.6847ZM42.8537 20.6534H38.5837C38.1995 20.6534 37.8847 20.9025 37.7588 21.3389C37.4375 23.1465 36.7385 24.8299 35.6553 26.326C35.4033 26.6375 35.4663 27.074 35.7182 27.3231L38.7097 30.2527L36.4173 32.4967L33.4258 29.5671C33.1739 29.318 32.7268 29.2555 32.4056 29.5046C30.8752 30.5642 29.1559 31.2498 27.3107 31.5621C26.9265 31.6238 26.6116 31.9361 26.6116 32.3718V36.5483H23.4249V32.3718C23.4249 31.9978 23.173 31.6862 22.7258 31.5621C20.8806 31.2498 19.1613 30.5642 17.6309 29.5046C17.3097 29.2555 16.8688 29.318 16.6107 29.5671L13.6191 32.4967L11.3268 30.2527L14.3182 27.3231C14.5701 27.074 14.6394 26.6375 14.3812 26.326C13.298 24.8299 12.599 23.1465 12.2777 21.3389C12.2148 20.9649 11.8936 20.6534 11.4527 20.6534H7.18283V17.5364H11.4527C11.8369 17.5364 12.1518 17.2873 12.2777 16.8508C12.599 15.0432 13.298 13.3598 14.3812 11.8638C14.6332 11.5523 14.5701 11.1158 14.3182 10.8667L11.3268 7.93713L13.6191 5.6931L16.6107 8.6227C16.8626 8.87179 17.3097 8.93423 17.6309 8.68514C19.1613 7.62558 20.8806 6.93927 22.7258 6.62773C23.11 6.56527 23.4249 6.2537 23.4249 5.81723V1.64145H26.6116V5.81723C26.6116 6.19124 26.8635 6.50357 27.3107 6.62773C29.1559 6.93927 30.8815 7.62558 32.4056 8.68514C32.7268 8.93423 33.1676 8.87179 33.4258 8.6227L36.4173 5.6931L38.7097 7.93713L35.7182 10.8667C35.4663 11.1158 35.3971 11.5523 35.6553 11.8638C36.7385 13.3598 37.4375 15.0432 37.7588 16.8508C37.8217 17.2248 38.1429 17.5364 38.5837 17.5364H42.8537V20.6534Z" fill="#F0F6FF"/>
<path d="M29.8614 23.8316V21.4634C29.8614 19.655 28.8412 18.0973 27.3738 17.2868C27.9469 16.7254 28.2681 15.9774 28.2681 15.1052C28.2681 13.3594 26.8007 11.9258 25.0184 11.9258C23.2361 11.9258 21.7687 13.3594 21.7687 15.1052C21.7687 15.9774 22.0899 16.7254 22.663 17.2868C21.1326 18.0973 20.1816 19.655 20.1816 21.4634V23.8316C20.1816 24.268 20.5658 24.642 21.0067 24.642H29.0994C29.5465 24.642 29.8614 24.268 29.8614 23.8316ZM23.4251 15.1052C23.4251 14.2323 24.1241 13.5467 25.0184 13.5467C25.9127 13.5467 26.6117 14.2323 26.6117 15.1052C26.6117 15.9774 25.9127 16.663 25.0184 16.663C24.1241 16.7254 23.4251 15.9774 23.4251 15.1052ZM28.2681 23.0836H21.7687V21.525C21.7687 19.7799 23.2361 18.3464 25.0184 18.3464C26.8007 18.3464 28.2681 19.7799 28.2681 21.525V23.0836Z" fill="#F0F6FF"/>
<path d="M3.9225 51.9701C4.35696 51.9701 4.7345 52.0303 5.05502 52.1514C5.37555 52.2725 5.63907 52.4432 5.84565 52.6633C6.05934 52.8766 6.21601 53.1363 6.31576 53.4418C6.41543 53.7404 6.46534 54.071 6.46534 54.4336C6.46534 54.8175 6.40833 55.1656 6.29439 55.4787C6.18755 55.7917 6.02729 56.0614 5.8136 56.2891C5.59992 56.5093 5.33281 56.6799 5.01229 56.801C4.69176 56.9221 4.32132 56.9823 3.90113 56.9823H1.60402V59.435H0.257812V51.9701H3.9225ZM1.60402 55.9479H3.73018C4.18601 55.9479 4.53501 55.8161 4.77723 55.5533C5.02648 55.2829 5.15118 54.9241 5.15118 54.4762C5.15118 54.0496 5.03366 53.7046 4.7986 53.4418C4.56355 53.1714 4.21097 53.0365 3.74086 53.0365H1.60402V55.9479ZM11.435 51.9701C11.8696 51.9701 12.247 52.0341 12.5675 52.1621C12.8881 52.2832 13.1517 52.4538 13.3582 52.674C13.5648 52.8941 13.7179 53.1576 13.8176 53.4631C13.9173 53.7617 13.9672 54.0855 13.9672 54.4336C13.9672 54.995 13.8497 55.4642 13.6146 55.8412C13.3795 56.2106 13.059 56.4879 12.653 56.673L14.5334 59.3071C14.5477 59.3284 14.5513 59.3566 14.5441 59.3924C14.537 59.4206 14.5157 59.435 14.48 59.435H13.0911L11.3709 56.897H9.0845V59.435H7.75965V51.9701H11.435ZM9.0845 55.8945H11.2534C11.6666 55.8945 12.0013 55.7704 12.2577 55.5213C12.5213 55.2722 12.653 54.9241 12.653 54.4762C12.653 54.0565 12.5355 53.7122 12.3004 53.4418C12.0654 53.1714 11.7164 53.0365 11.2534 53.0365H9.0845V55.8945ZM18.8365 51.7568C19.4277 51.7568 19.9513 51.8635 20.4071 52.0768C20.8701 52.2901 21.2583 52.578 21.5717 52.9406C21.8922 53.3032 22.1344 53.7228 22.2982 54.1989C22.462 54.675 22.5439 55.1762 22.5439 55.7026C22.5439 56.2289 22.462 56.7301 22.2982 57.2062C22.1344 57.6823 21.8922 58.102 21.5717 58.4646C21.2583 58.8272 20.8701 59.1151 20.4071 59.3284C19.9513 59.5417 19.4277 59.6484 18.8365 59.6484C18.2454 59.6484 17.7183 59.5417 17.2552 59.3284C16.7994 59.1151 16.4148 58.8272 16.1014 58.4646C15.788 58.102 15.5494 57.6823 15.3855 57.2062C15.2217 56.7301 15.1398 56.2289 15.1398 55.7026C15.1398 55.1762 15.2217 54.675 15.3855 54.1989C15.5494 53.7228 15.788 53.3032 16.1014 52.9406C16.4148 52.578 16.7994 52.2901 17.2552 52.0768C17.7183 51.8635 18.2454 51.7568 18.8365 51.7568ZM18.8365 52.9086C18.4519 52.9086 18.1136 52.9832 17.8215 53.1325C17.5295 53.275 17.2838 53.4738 17.0843 53.7297C16.892 53.9788 16.7424 54.2736 16.6356 54.6148C16.5359 54.9492 16.486 55.308 16.486 55.6919C16.486 56.0758 16.5359 56.4384 16.6356 56.7797C16.7424 57.1141 16.892 57.4089 17.0843 57.6648C17.2838 57.9139 17.5295 58.1127 17.8215 58.262C18.1136 58.4044 18.4519 58.4753 18.8365 58.4753C19.2211 58.4753 19.5595 58.4044 19.8515 58.262C20.1436 58.1127 20.3857 57.9139 20.578 57.6648C20.7775 57.4089 20.9271 57.1141 21.0268 56.7797C21.1336 56.4384 21.187 56.0758 21.187 55.6919C21.187 55.308 21.1336 54.9492 21.0268 54.6148C20.9271 54.2736 20.7775 53.9788 20.578 53.7297C20.3857 53.4738 20.1436 53.275 19.8515 53.1325C19.5595 52.9832 19.2211 52.9086 18.8365 52.9086ZM29.5718 53.8043C29.2513 53.4776 28.9236 53.246 28.5889 53.1112C28.2612 52.9764 27.9051 52.9086 27.5205 52.9086C27.1073 52.9086 26.744 52.9832 26.4307 53.1325C26.1244 53.275 25.8679 53.4738 25.6614 53.7297C25.4548 53.9788 25.2982 54.2736 25.1913 54.6148C25.0916 54.9492 25.0417 55.308 25.0417 55.6919C25.0417 56.0758 25.0916 56.4384 25.1913 56.7797C25.2982 57.1141 25.4548 57.4089 25.6614 57.6648C25.8679 57.9139 26.1244 58.1127 26.4307 58.262C26.744 58.4044 27.1073 58.4753 27.5205 58.4753C27.9122 58.4753 28.2826 58.4006 28.6316 58.2513C28.9877 58.0952 29.3154 57.8674 29.6146 57.5688L30.3411 58.4753C30.0063 58.8165 29.6074 59.0976 29.1445 59.3177C28.6815 59.5379 28.1259 59.6484 27.4777 59.6484C26.8581 59.6484 26.3096 59.5417 25.8324 59.3284C25.3623 59.1151 24.967 58.8272 24.6464 58.4646C24.333 58.102 24.0944 57.6823 23.9306 57.2062C23.7738 56.7301 23.6955 56.2289 23.6955 55.7026C23.6955 55.1838 23.7738 54.6857 23.9306 54.2096C24.0944 53.7335 24.333 53.3138 24.6464 52.9512C24.967 52.5886 25.3623 52.3007 25.8324 52.0874C26.3096 51.8673 26.8581 51.7568 27.4777 51.7568C28.1259 51.7568 28.6744 51.8673 29.1231 52.0874C29.5718 52.3076 29.9636 52.5887 30.2984 52.9299L29.5718 53.8043ZM37.4027 51.9701V53.0472H32.9367V55.1587H37.3706V56.0759H32.9367V58.3366H37.4134V59.435H31.5905V51.9701H37.4027ZM38.8285 57.7394C39.2203 57.9672 39.6334 58.1516 40.0679 58.294C40.5095 58.4364 41.0081 58.5073 41.5637 58.5073C42.1121 58.5073 42.5502 58.4181 42.8778 58.2407C43.2055 58.0556 43.3696 57.7821 43.3696 57.4195C43.3696 57.2558 43.323 57.1064 43.2304 56.9716C43.1449 56.8368 42.9989 56.7157 42.7923 56.609C42.6 56.5092 42.3721 56.4239 42.1086 56.3531C41.845 56.2822 41.5672 56.2076 41.2752 56.1291C40.9832 56.0507 40.6875 55.9623 40.3884 55.8626C40.0964 55.7559 39.8257 55.6173 39.5764 55.4466C39.2986 55.2615 39.0849 55.0483 38.9353 54.8068C38.7929 54.5653 38.7217 54.2629 38.7217 53.9004C38.7217 53.5233 38.7964 53.2034 38.946 52.9406C39.1028 52.6702 39.3129 52.4538 39.5764 52.2901C39.84 52.1194 40.1391 51.9953 40.4739 51.9168C40.8158 51.8384 41.1755 51.7995 41.553 51.7995C42.1015 51.7995 42.625 51.8703 43.1236 52.0128C43.6222 52.1476 44.0564 52.3152 44.4273 52.514L44.032 53.5164C43.6756 53.3313 43.2945 53.179 42.8885 53.0579C42.4825 52.9368 42.0658 52.8766 41.6384 52.8766C41.4248 52.8766 41.2183 52.8979 41.0188 52.9406C40.8264 52.9832 40.652 53.0472 40.4952 53.1325C40.3386 53.2178 40.2139 53.3283 40.1213 53.4631C40.0287 53.5911 39.9824 53.7442 39.9824 53.9217C39.9824 54.0923 40.0287 54.2378 40.1213 54.3589C40.221 54.48 40.3528 54.5897 40.5166 54.6895C40.7232 54.8106 40.9582 54.9096 41.2218 54.9881C41.4854 55.0665 41.756 55.1412 42.0338 55.212C42.3187 55.2829 42.6 55.3613 42.8778 55.4466C43.1556 55.5319 43.4154 55.6424 43.6581 55.7772C43.9923 55.9623 44.2381 56.1863 44.3953 56.4491C44.5586 56.7119 44.641 57.0356 44.641 57.4195C44.641 57.8034 44.5624 58.134 44.406 58.4113C44.2488 58.6817 44.032 58.9087 43.7542 59.0938C43.4833 59.2713 43.1628 59.4031 42.7923 59.4884C42.422 59.5737 42.0196 59.6163 41.585 59.6163C40.944 59.6163 40.3706 59.5348 39.8649 59.3711C39.3592 59.2073 38.8998 58.991 38.4866 58.7206L38.8285 57.7394ZM45.8605 57.7394C46.2528 57.9672 46.6657 58.1516 47.0999 58.294C47.5418 58.4364 48.0401 58.5073 48.5957 58.5073C49.1444 58.5073 49.5825 58.4181 49.9099 58.2407C50.238 58.0556 50.4013 57.7821 50.4013 57.4195C50.4013 57.2558 50.3555 57.1064 50.2624 56.9716C50.177 56.8368 50.0312 56.7157 49.8244 56.609C49.6321 56.5092 49.4046 56.4239 49.1406 56.3531C48.8773 56.2822 48.5995 56.2076 48.3072 56.1291C48.0157 56.0507 47.7196 55.9623 47.4204 55.8626C47.1289 55.7559 46.858 55.6173 46.6084 55.4466C46.3307 55.2615 46.117 55.0483 45.9674 54.8068C45.8254 54.5653 45.7537 54.2629 45.7537 53.9004C45.7537 53.5233 45.8285 53.2034 45.9781 52.9406C46.1353 52.6702 46.3451 52.4538 46.6084 52.2901C46.8725 52.1194 47.1716 51.9953 47.5059 51.9168C47.8478 51.8384 48.208 51.7995 48.585 51.7995C49.1337 51.7995 49.6573 51.8703 50.1556 52.0128C50.6547 52.1476 51.0889 52.3152 51.4591 52.514L51.0638 53.5164C50.7081 53.3313 50.3265 53.179 49.9205 53.0579C49.5145 52.9368 49.0979 52.8766 48.6705 52.8766C48.4568 52.8766 48.2508 52.8979 48.0508 52.9406C47.8585 52.9832 47.6845 53.0472 47.5273 53.1325C47.3708 53.2178 47.2464 53.3283 47.1533 53.4631C47.061 53.5911 47.0144 53.7442 47.0144 53.9217C47.0144 54.0923 47.061 54.2378 47.1533 54.3589C47.2533 54.48 47.3853 54.5897 47.5486 54.6895C47.7555 54.8106 47.9905 54.9096 48.2538 54.9881C48.5179 55.0665 48.788 55.1412 49.0658 55.212C49.3512 55.2829 49.6321 55.3613 49.9099 55.4466C50.1876 55.5319 50.4479 55.6424 50.6898 55.7772C51.0248 55.9623 51.2706 56.1863 51.427 56.4491C51.5911 56.7119 51.6727 57.0356 51.6727 57.4195C51.6727 57.8034 51.5949 58.134 51.4377 58.4113C51.2812 58.6817 51.0638 58.9087 50.786 59.0938C50.5158 59.2713 50.1953 59.4031 49.8244 59.4884C49.4543 59.5737 49.0521 59.6163 48.6171 59.6163C47.976 59.6163 47.4029 59.5348 46.8969 59.3711C46.3917 59.2073 45.9323 58.991 45.5186 58.7206L45.8605 57.7394Z" fill="#F0F6FF"/>
</svg>
