<svg width="55" height="61" viewBox="0 0 55 61" fill="none" xmlns="http://www.w3.org/2000/svg">
<path d="M44.5226 12.0586H10.7124C9.30599 12.0586 8.1582 13.1806 8.1582 14.5525V36.494C8.1582 37.8651 9.30599 38.9871 10.7124 38.9871H44.5226C45.929 38.9871 47.077 37.8651 47.077 36.494V14.5525C47.1395 13.1806 45.992 12.0586 44.5226 12.0586ZM45.4812 36.494C45.4812 36.9922 45.0334 37.4286 44.5226 37.4286H10.7124C10.2016 37.4286 9.75381 36.9922 9.75381 36.494V14.5525C9.75381 14.0535 10.2016 13.6171 10.7124 13.6171H44.5226C45.0334 13.6171 45.4812 14.0535 45.4812 14.5525V36.494Z" fill="#F0F6FF"/>
<path d="M12.1748 9.75185C12.6226 9.75185 13.001 9.37785 13.001 8.94138C13.001 8.38075 13.3227 8.00675 13.638 8.00675H41.646C41.9677 8.00675 42.2829 8.38075 42.2829 8.94138C42.2829 9.37785 42.6676 9.75185 43.1091 9.75185C43.5506 9.75185 43.9353 9.37785 43.9353 8.94138C43.9353 7.57027 42.9136 6.44824 41.6397 6.44824H13.6443C12.3704 6.44824 11.3486 7.57027 11.3486 8.94138C11.3486 9.44031 11.7333 9.75185 12.1812 9.75185H12.1748Z" fill="#F0F6FF"/>
<path d="M13.7709 4.204C14.2186 4.204 14.6033 3.83 14.6033 3.39353C14.6033 2.8329 14.925 2.45887 15.1142 2.45887H40.1202C40.3094 2.45887 40.6311 2.8329 40.6311 3.39353C40.6311 3.83 41.0158 4.204 41.4635 4.204C41.9114 4.204 42.2897 3.83 42.2897 3.39353C42.2897 1.95996 41.3311 0.900391 40.1833 0.900391H15.1142C13.9033 0.900391 13.0078 2.02242 13.0078 3.39353C13.0078 3.89246 13.3294 4.204 13.7709 4.204Z" fill="#F0F6FF"/>
<path d="M14.6031 31.8803H24.3659C24.8136 31.8803 25.192 31.5063 25.192 31.0698V27.8911C25.192 25.772 23.9812 23.902 22.127 22.9666C23.0225 22.2186 23.5333 21.159 23.5333 19.9745C23.5333 17.7929 21.6855 15.9854 19.453 15.9854C17.2203 15.9854 15.3725 17.7929 15.3725 19.9745C15.3725 21.159 15.9464 22.281 16.7789 22.9666C14.9941 23.902 13.7139 25.772 13.7139 27.8911V31.0698C13.7769 31.5063 14.1616 31.8803 14.6094 31.8803H14.6031ZM17.0248 19.9745C17.0248 18.6659 18.1096 17.6063 19.4466 17.6063C20.7836 17.6063 21.8684 18.6659 21.8684 19.9745C21.8684 21.2839 20.7836 22.3435 19.4466 22.3435C18.1096 22.3435 17.0248 21.2839 17.0248 19.9745ZM15.4293 27.8911C15.4293 25.7095 17.2771 23.902 19.5097 23.902C21.7423 23.902 23.5901 25.7095 23.5901 27.8911V30.2601H15.423V27.8911H15.4293Z" fill="#F0F6FF"/>
<path d="M41.4643 22.3428H28.4473C27.9995 22.3428 27.6211 22.7168 27.6211 23.1532C27.6211 23.5897 28.0058 23.9637 28.4473 23.9637H41.4643C41.9121 23.9637 42.2904 23.5897 42.2904 23.1532C42.2274 22.7168 41.9057 22.3428 41.4643 22.3428Z" fill="#F0F6FF"/>
<path d="M41.4643 27.1426H28.4473C27.9995 27.1426 27.6211 27.5166 27.6211 27.9531C27.6211 28.3895 28.0058 28.7635 28.4473 28.7635H41.4643C41.9121 28.7635 42.2904 28.3895 42.2904 27.9531C42.2274 27.4541 41.9057 27.1426 41.4643 27.1426Z" fill="#F0F6FF"/>
<path d="M41.4636 33.501H13.7709C13.3232 33.501 12.9385 33.875 12.9385 34.3114C12.9385 34.7479 13.3232 35.1219 13.7709 35.1219H41.3943C41.842 35.1219 42.2267 34.7479 42.2267 34.3114C42.2267 33.8125 41.9051 33.501 41.4636 33.501Z" fill="#F0F6FF"/>
<path d="M30.8055 17.6055H29.21V19.164H30.8055V17.6055Z" fill="#F0F6FF"/>
<path d="M35.7176 17.6055H34.1221V19.164H35.7176V17.6055Z" fill="#F0F6FF"/>
<path d="M40.5672 17.6055H38.9717V19.164H40.5672V17.6055Z" fill="#F0F6FF"/>
<path d="M4.46742 52.85C4.90196 52.85 5.27942 52.9102 5.59994 53.0313C5.92047 53.1524 6.18406 53.323 6.39058 53.5432C6.60426 53.7564 6.76101 54.0162 6.86068 54.3216C6.96043 54.6202 7.01026 54.9508 7.01026 55.3134C7.01026 55.6973 6.95333 56.0454 6.83931 56.3585C6.73247 56.6716 6.57221 56.9412 6.35852 57.169C6.14484 57.3891 5.87773 57.5597 5.55721 57.6809C5.23668 57.802 4.86632 57.8621 4.44605 57.8621H2.14894V60.3149H0.802734V52.85H4.46742ZM2.14894 56.8277H4.2751C4.73101 56.8277 5.08001 56.6959 5.32216 56.4331C5.57148 56.1627 5.6961 55.804 5.6961 55.3561C5.6961 54.9295 5.57858 54.5844 5.34352 54.3216C5.10847 54.0512 4.75589 53.9164 4.28579 53.9164H2.14894V56.8277ZM11.98 52.85C12.4146 52.85 12.792 52.914 13.1125 53.0419C13.4331 53.1631 13.6967 53.3337 13.9032 53.5538C14.1098 53.774 14.2629 54.0375 14.3626 54.343C14.4623 54.6416 14.5122 54.9653 14.5122 55.3134C14.5122 55.8748 14.3947 56.344 14.1596 56.7211C13.9245 57.0905 13.604 57.3678 13.198 57.5529L15.0784 60.1869C15.0927 60.2083 15.0963 60.2364 15.0891 60.2723C15.082 60.3004 15.0607 60.3149 15.025 60.3149H13.6361L11.9159 57.7768H9.6295V60.3149H8.30465V52.85H11.98ZM9.6295 56.7744H11.7984C12.2116 56.7744 12.5463 56.6502 12.8027 56.4012C13.0663 56.1521 13.198 55.804 13.198 55.3561C13.198 54.9364 13.0805 54.5921 12.8454 54.3216C12.6104 54.0512 12.2614 53.9164 11.7984 53.9164H9.6295V56.7744ZM19.3815 52.6367C19.9727 52.6367 20.4963 52.7433 20.9521 52.9566C21.4151 53.1699 21.8033 53.4578 22.1167 53.8204C22.4372 54.183 22.6794 54.6027 22.8432 55.0788C23.007 55.5549 23.0889 56.0561 23.0889 56.5825C23.0889 57.1088 23.007 57.61 22.8432 58.0861C22.6794 58.5622 22.4372 58.9819 22.1167 59.3445C21.8033 59.7071 21.4151 59.995 20.9521 60.2083C20.4963 60.4215 19.9727 60.5282 19.3815 60.5282C18.7904 60.5282 18.2633 60.4215 17.8002 60.2083C17.3444 59.995 16.9598 59.7071 16.6464 59.3445C16.333 58.9819 16.0944 58.5622 15.9305 58.0861C15.7667 57.61 15.6848 57.1088 15.6848 56.5825C15.6848 56.0561 15.7667 55.5549 15.9305 55.0788C16.0944 54.6027 16.333 54.183 16.6464 53.8204C16.9598 53.4578 17.3444 53.1699 17.8002 52.9566C18.2633 52.7433 18.7904 52.6367 19.3815 52.6367ZM19.3815 53.7884C18.9969 53.7884 18.6586 53.8631 18.3665 54.0124C18.0745 54.1548 17.8288 54.3536 17.6293 54.6096C17.437 54.8587 17.2874 55.1534 17.1806 55.4947C17.0809 55.8291 17.031 56.1879 17.031 56.5718C17.031 56.9557 17.0809 57.3183 17.1806 57.6595C17.2874 57.9939 17.437 58.2887 17.6293 58.5447C17.8288 58.7937 18.0745 58.9925 18.3665 59.1418C18.6586 59.2843 18.9969 59.3551 19.3815 59.3551C19.7661 59.3551 20.1045 59.2843 20.3965 59.1418C20.6886 58.9925 20.9307 58.7937 21.123 58.5447C21.3225 58.2887 21.4721 57.9939 21.5718 57.6595C21.6786 57.3183 21.732 56.9557 21.732 56.5718C21.732 56.1879 21.6786 55.8291 21.5718 55.4947C21.4721 55.1534 21.3225 54.8587 21.123 54.6096C20.9307 54.3536 20.6886 54.1548 20.3965 54.0124C20.1045 53.8631 19.7661 53.7884 19.3815 53.7884ZM27.7663 52.85C28.3575 52.85 28.8739 52.9528 29.3155 53.1592C29.7643 53.3581 30.1382 53.6285 30.4374 53.9697C30.7365 54.311 30.9609 54.7094 31.1105 55.1641C31.2672 55.612 31.3455 56.085 31.3455 56.5825C31.3455 57.0799 31.2672 57.5567 31.1105 58.0115C30.9609 58.4594 30.7365 58.8539 30.4374 59.1952C30.1382 59.5364 29.7643 59.8099 29.3155 60.0163C28.8739 60.2151 28.3575 60.3149 27.7663 60.3149H24.5397V52.85H27.7663ZM25.8859 59.2165H27.6702C28.0619 59.2165 28.4038 59.1487 28.6959 59.0139C28.995 58.8714 29.2407 58.6795 29.4331 58.438C29.6325 58.1966 29.7785 57.9155 29.8711 57.5955C29.9708 57.2756 30.0207 56.9344 30.0207 56.5718C30.0207 56.2092 29.9708 55.868 29.8711 55.548C29.7785 55.2281 29.6325 54.947 29.4331 54.7055C29.2407 54.4641 28.995 54.2752 28.6959 54.1404C28.4038 53.9979 28.0619 53.9271 27.6702 53.9271H25.8859V59.2165ZM34.0854 52.85V57.5742C34.0854 57.8088 34.121 58.0328 34.1922 58.2461C34.2706 58.4593 34.3881 58.6444 34.5448 58.8006C34.7086 58.9567 34.9187 59.0817 35.1751 59.1739C35.4316 59.266 35.7414 59.3125 36.1047 59.3125C36.4679 59.3125 36.7778 59.266 37.0342 59.1739C37.2906 59.0817 37.4972 58.9567 37.6539 58.8006C37.8177 58.6444 37.9353 58.4593 38.0065 58.2461C38.0848 58.0328 38.124 57.8088 38.124 57.5742V52.85H39.4595V57.6595C39.4595 58.0434 39.399 58.4098 39.2779 58.7579C39.1639 59.0992 38.9716 59.4016 38.7009 59.6644C38.4374 59.9272 38.0919 60.1374 37.6646 60.2936C37.2443 60.4497 36.7243 60.5282 36.1047 60.5282C35.485 60.5282 34.9615 60.4497 34.5341 60.2936C34.1067 60.1374 33.7577 59.9272 33.487 59.6644C33.2235 59.4016 33.0312 59.0992 32.9101 58.7579C32.7961 58.4098 32.7391 58.0434 32.7391 57.6595V52.85H34.0854ZM46.7381 54.6842C46.4176 54.3574 46.0897 54.1259 45.7549 53.9911C45.4272 53.8562 45.0712 53.7884 44.6865 53.7884C44.2734 53.7884 43.9101 53.8631 43.5967 54.0124C43.2904 54.1548 43.034 54.3536 42.8275 54.6096C42.6209 54.8587 42.4642 55.1534 42.3574 55.4947C42.2576 55.8291 42.2078 56.1879 42.2078 56.5718C42.2078 56.9557 42.2576 57.3183 42.3574 57.6595C42.4642 57.9939 42.6209 58.2887 42.8275 58.5447C43.034 58.7937 43.2904 58.9925 43.5967 59.1418C43.9101 59.2843 44.2734 59.3551 44.6865 59.3551C45.0783 59.3551 45.4486 59.2805 45.7977 59.1312C46.1538 58.975 46.4817 58.7473 46.7809 58.4487L47.5074 59.3551C47.1724 59.6964 46.7732 59.9775 46.3105 60.1976C45.8475 60.4177 45.2919 60.5282 44.6438 60.5282C44.0241 60.5282 43.4756 60.4215 42.9984 60.2083C42.5283 59.995 42.133 59.7071 41.8125 59.3445C41.499 58.9819 41.2604 58.5622 41.0966 58.0861C40.9399 57.61 40.8616 57.1088 40.8616 56.5825C40.8616 56.0637 40.9399 55.5656 41.0966 55.0895C41.2604 54.6134 41.499 54.1937 41.8125 53.8311C42.133 53.4685 42.5283 53.1806 42.9984 52.9673C43.4756 52.7472 44.0241 52.6367 44.6438 52.6367C45.2919 52.6367 45.8404 52.7472 46.2892 52.9673C46.7381 53.1874 47.1296 53.4685 47.4646 53.8098L46.7381 54.6842ZM54.9108 52.85V53.9271H52.2718V60.3149H50.9256V53.9271H48.2759V52.85H54.9108Z" fill="#F0F6FF"/>
</svg>
