<svg width="69" height="61" viewBox="0 0 69 61" fill="none" xmlns="http://www.w3.org/2000/svg">
<path d="M53.2494 0.448242H15.9817C15.5354 0.448242 15.1582 0.821497 15.1582 1.2572V37.7256C15.1582 38.1613 15.5417 38.5345 15.9817 38.5345H53.2494C53.6954 38.5345 54.0793 38.1613 54.0793 37.7256V1.2572C54.0793 0.821497 53.6954 0.448242 53.2494 0.448242ZM16.8116 2.06614H52.4887V6.79571H16.8116V2.06614ZM16.8116 36.9166V34.5515H43.5867C44.0331 34.5515 44.4166 34.1782 44.4166 33.7425C44.4166 33.3068 44.0331 32.9336 43.5867 32.9336H16.8116V8.41438H52.4887V36.9791L16.8116 36.9166Z" fill="#F0F6FF"/>
<path d="M48.4212 3.62109H41.9334C41.487 3.62109 41.1035 3.99435 41.1035 4.43006C41.1035 4.86576 41.487 5.23902 41.9334 5.23902H48.3584C48.8047 5.23902 49.1882 4.86576 49.1882 4.43006C49.1882 3.99435 48.8676 3.62109 48.4275 3.62109H48.4212Z" fill="#F0F6FF"/>
<path d="M21.6452 3.62109H20.0547V5.17732H21.6452V3.62109Z" fill="#F0F6FF"/>
<path d="M26.4801 3.62109H24.8896V5.17732H26.4801V3.62109Z" fill="#F0F6FF"/>
<path d="M31.3777 3.62109H29.7871V5.17732H31.3777V3.62109Z" fill="#F0F6FF"/>
<path d="M30.3598 14.9485C30.0392 14.637 29.53 14.637 29.2157 14.9485L22.7278 21.2959C22.4072 21.6075 22.4072 22.1049 22.7278 22.4165L29.2157 28.7639C29.53 29.0747 30.0392 29.0747 30.3598 28.7639C30.6805 28.4524 30.6805 27.955 30.3598 27.6434L24.444 21.8558L30.3598 16.0682C30.6805 15.7575 30.6805 15.2593 30.3598 14.9485Z" fill="#F0F6FF"/>
<path d="M40.0214 14.9485C39.7007 14.637 39.1978 14.637 38.8772 14.9485C38.5566 15.2593 38.5566 15.7575 38.8772 16.0682L44.793 21.8558L38.8772 27.6434C38.5566 27.955 38.5566 28.4524 38.8772 28.7639C39.1978 29.0747 39.7007 29.0747 40.0214 28.7639L46.5093 22.4165C46.8299 22.1049 46.8299 21.6075 46.5093 21.2959L40.0214 14.9485Z" fill="#F0F6FF"/>
<path d="M4.15394 52.3979C4.58841 52.3979 4.96594 52.458 5.28647 52.5791C5.60699 52.7002 5.87051 52.8709 6.0771 53.091C6.29078 53.3043 6.44746 53.564 6.5472 53.8695C6.64687 54.1681 6.69678 54.4987 6.69678 54.8613C6.69678 55.2452 6.63978 55.5933 6.52584 55.9064C6.41899 56.2194 6.25873 56.4891 6.04505 56.7168C5.83136 56.937 5.56426 57.1076 5.24373 57.2287C4.9232 57.3498 4.55277 57.41 4.13257 57.41H1.83547V59.8628H0.489258V52.3979H4.15394ZM1.83547 56.3756H3.96163C4.41746 56.3756 4.76645 56.2438 5.00868 55.981C5.25793 55.7106 5.38263 55.3518 5.38263 54.9039C5.38263 54.4773 5.2651 54.1323 5.03005 53.8695C4.795 53.5991 4.44242 53.4643 3.97231 53.4643H1.83547V56.3756ZM11.6665 52.3979C12.101 52.3979 12.4785 52.4618 12.799 52.5898C13.1195 52.7109 13.3831 52.8815 13.5896 53.1017C13.7962 53.3218 13.9494 53.5854 14.049 53.8908C14.1488 54.1894 14.1986 54.5131 14.1986 54.8613C14.1986 55.4227 14.0811 55.8919 13.846 56.2689C13.611 56.6384 13.2905 56.9156 12.8845 57.1007L14.7649 59.7348C14.7792 59.7561 14.7827 59.7843 14.7756 59.8201C14.7685 59.8483 14.7471 59.8628 14.7115 59.8628H13.3225L11.6024 57.3247H9.31594V59.8628H7.9911V52.3979H11.6665ZM9.31594 56.3222H11.4848C11.898 56.3222 12.2327 56.1981 12.4892 55.949C12.7527 55.6999 12.8845 55.3518 12.8845 54.9039C12.8845 54.4842 12.7669 54.1399 12.5319 53.8695C12.2968 53.5991 11.9478 53.4643 11.4848 53.4643H9.31594V56.3222ZM19.068 52.1846C19.6592 52.1846 20.1827 52.2912 20.6385 52.5045C21.1015 52.7178 21.4898 53.0057 21.8031 53.3683C22.1236 53.7309 22.3659 54.1506 22.5296 54.6267C22.6935 55.1027 22.7754 55.604 22.7754 56.1303C22.7754 56.6567 22.6935 57.1579 22.5296 57.634C22.3659 58.11 22.1236 58.5297 21.8031 58.8923C21.4898 59.2549 21.1015 59.5428 20.6385 59.7561C20.1827 59.9694 19.6592 60.076 19.068 60.076C18.4768 60.076 17.9497 59.9694 17.4867 59.7561C17.0309 59.5428 16.6462 59.2549 16.3328 58.8923C16.0194 58.5297 15.7808 58.11 15.617 57.634C15.4532 57.1579 15.3712 56.6567 15.3712 56.1303C15.3712 55.604 15.4532 55.1027 15.617 54.6267C15.7808 54.1506 16.0194 53.7309 16.3328 53.3683C16.6462 53.0057 17.0309 52.7178 17.4867 52.5045C17.9497 52.2912 18.4768 52.1846 19.068 52.1846ZM19.068 53.3363C18.6833 53.3363 18.345 53.4109 18.053 53.5602C17.761 53.7027 17.5152 53.9015 17.3157 54.1574C17.1234 54.4065 16.9738 54.7013 16.867 55.0426C16.7673 55.377 16.7174 55.7357 16.7174 56.1196C16.7174 56.5035 16.7673 56.8661 16.867 57.2074C16.9738 57.5418 17.1234 57.8366 17.3157 58.0925C17.5152 58.3416 17.761 58.5404 18.053 58.6897C18.345 58.8321 18.6833 58.903 19.068 58.903C19.4526 58.903 19.791 58.8321 20.083 58.6897C20.375 58.5404 20.6172 58.3416 20.8095 58.0925C21.009 57.8366 21.1586 57.5418 21.2582 57.2074C21.3651 56.8661 21.4185 56.5035 21.4185 56.1196C21.4185 55.7357 21.3651 55.377 21.2582 55.0426C21.1586 54.7013 21.009 54.4065 20.8095 54.1574C20.6172 53.9015 20.375 53.7027 20.083 53.5602C19.791 53.4109 19.4526 53.3363 19.068 53.3363ZM25.8395 52.3979L28.628 58.1032L31.5021 52.3979H32.9979V59.8628H31.7478V54.488L29.0554 59.8628H28.1472L25.4762 54.4987V59.8628H24.2261V52.3979H25.8395ZM38.1409 52.1846C38.7322 52.1846 39.2557 52.2912 39.7115 52.5045C40.1745 52.7178 40.5628 53.0057 40.8761 53.3683C41.1966 53.7309 41.4389 54.1506 41.6026 54.6267C41.7665 55.1027 41.8484 55.604 41.8484 56.1303C41.8484 56.6567 41.7665 57.1579 41.6026 57.634C41.4389 58.11 41.1966 58.5297 40.8761 58.8923C40.5628 59.2549 40.1745 59.5428 39.7115 59.7561C39.2557 59.9694 38.7322 60.076 38.1409 60.076C37.5498 60.076 37.0227 59.9694 36.5597 59.7561C36.1039 59.5428 35.7192 59.2549 35.4058 58.8923C35.0924 58.5297 34.8538 58.11 34.6899 57.634C34.5262 57.1579 34.4442 56.6567 34.4442 56.1303C34.4442 55.604 34.5262 55.1027 34.6899 54.6267C34.8538 54.1506 35.0924 53.7309 35.4058 53.3683C35.7192 53.0057 36.1039 52.7178 36.5597 52.5045C37.0227 52.2912 37.5498 52.1846 38.1409 52.1846ZM38.1409 53.3363C37.7563 53.3363 37.418 53.4109 37.1259 53.5602C36.834 53.7027 36.5882 53.9015 36.3887 54.1574C36.1964 54.4065 36.0468 54.7013 35.94 55.0426C35.8403 55.377 35.7904 55.7357 35.7904 56.1196C35.7904 56.5035 35.8403 56.8661 35.94 57.2074C36.0468 57.5418 36.1964 57.8366 36.3887 58.0925C36.5882 58.3416 36.834 58.5404 37.1259 58.6897C37.418 58.8321 37.7563 58.903 38.1409 58.903C38.5256 58.903 38.864 58.8321 39.156 58.6897C39.448 58.5404 39.6902 58.3416 39.8825 58.0925C40.082 57.8366 40.2315 57.5418 40.3312 57.2074C40.4381 56.8661 40.4915 56.5035 40.4915 56.1196C40.4915 55.7357 40.4381 55.377 40.3312 55.0426C40.2315 54.7013 40.082 54.4065 39.8825 54.1574C39.6902 53.9015 39.448 53.7027 39.156 53.5602C38.864 53.4109 38.5256 53.3363 38.1409 53.3363ZM49.1506 52.3979V53.4749H46.5116V59.8628H45.1654V53.4749H42.5158V52.3979H49.1506ZM51.7716 52.3979V59.8628H50.4254V52.3979H51.7716ZM56.9218 52.1846C57.5133 52.1846 58.0368 52.2912 58.4924 52.5045C58.9556 52.7178 59.3433 53.0057 59.657 53.3683C59.9775 53.7309 60.2194 54.1506 60.3835 54.6267C60.5476 55.1027 60.6292 55.604 60.6292 56.1303C60.6292 56.6567 60.5476 57.1579 60.3835 57.634C60.2194 58.11 59.9775 58.5297 59.657 58.8923C59.3433 59.2549 58.9556 59.5428 58.4924 59.7561C58.0368 59.9694 57.5133 60.076 56.9218 60.076C56.3304 60.076 55.8038 59.9694 55.3405 59.7561C54.8849 59.5428 54.5003 59.2549 54.1866 58.8923C53.873 58.5297 53.6349 58.11 53.4708 57.634C53.307 57.1579 53.2251 56.6567 53.2251 56.1303C53.2251 55.604 53.307 55.1027 53.4708 54.6267C53.6349 54.1506 53.873 53.7309 54.1866 53.3683C54.5003 53.0057 54.8849 52.7178 55.3405 52.5045C55.8038 52.2912 56.3304 52.1846 56.9218 52.1846ZM56.9218 53.3363C56.5372 53.3363 56.1991 53.4109 55.9068 53.5602C55.6145 53.7027 55.3688 53.9015 55.1696 54.1574C54.9773 54.4065 54.8277 54.7013 54.7209 55.0426C54.6209 55.377 54.5713 55.7357 54.5713 56.1196C54.5713 56.5035 54.6209 56.8661 54.7209 57.2074C54.8277 57.5418 54.9773 57.8366 55.1696 58.0925C55.3688 58.3416 55.6145 58.5404 55.9068 58.6897C56.1991 58.8321 56.5372 58.903 56.9218 58.903C57.3064 58.903 57.6445 58.8321 57.9368 58.6897C58.2291 58.5404 58.471 58.3416 58.6633 58.0925C58.8625 57.8366 59.0121 57.5418 59.1121 57.2074C59.2189 56.8661 59.2723 56.5035 59.2723 56.1196C59.2723 55.7357 59.2189 55.377 59.1121 55.0426C59.0121 54.7013 58.8625 54.4065 58.6633 54.1574C58.471 53.9015 58.2291 53.7027 57.9368 53.5602C57.6445 53.4109 57.3064 53.3363 56.9218 53.3363ZM63.5437 52.3979L67.5289 57.7299V52.3979H68.7363V59.8628H67.6037L63.298 54.1041V59.8628H62.08V52.3979H63.5437Z" fill="#F0F6FF"/>
</svg>
