<svg width="42" height="41" viewBox="0 0 42 41" fill="none" xmlns="http://www.w3.org/2000/svg">
<path d="M20.495 0.0388298C20.2846 0.0809135 19.9816 0.165081 19.8048 0.240833C19.3924 0.417587 18.7443 1.01518 18.5423 1.4276C18.3403 1.80636 15.6974 9.71818 15.7058 9.89494C15.7058 9.96227 15.4701 10.7366 15.1756 11.6288L14.6453 13.2448L8.36633 13.2533H2.08737L1.57395 13.5142C1.01844 13.7835 0.420842 14.3811 0.15992 14.9114C0.0336673 15.1639 0 15.4164 0 16.0729C0 16.822 0.0252505 16.9567 0.227254 17.3354C0.496593 17.8488 0.782766 18.1519 1.24569 18.438C1.43928 18.5643 1.64128 18.7074 1.68337 18.7579C1.73387 18.8168 2.46613 19.3639 3.32465 19.9867C4.18317 20.6096 5.04168 21.2492 5.22685 21.4092C5.42044 21.5775 5.68136 21.7711 5.81603 21.8384C6.11062 21.9899 8.38317 23.6228 8.79559 23.9763C8.96393 24.1194 9.44369 24.4813 9.87295 24.7843C10.2938 25.0873 10.6473 25.3567 10.6473 25.3987C10.6473 25.4324 10.2096 26.7791 9.67936 28.3867C9.1491 29.9943 8.71142 31.3663 8.71142 31.4336C8.71142 31.5009 8.30741 32.7551 7.81924 34.2112C7.04489 36.5258 6.92705 36.9382 6.91864 37.4517C6.9018 38.4869 7.25531 39.1939 8.06333 39.7326C8.75351 40.1955 8.72826 40.1871 9.25852 40.2713C10.0497 40.3975 10.9166 40.1619 11.6236 39.6316C11.7667 39.5222 11.9182 39.4296 11.9519 39.4296C11.994 39.4296 12.1202 39.337 12.2381 39.236C12.3643 39.1266 13.1555 38.529 14.014 37.9146C14.8725 37.3001 15.6132 36.7531 15.6553 36.6941C15.7731 36.5595 16.6906 35.8945 16.7579 35.8945C16.8337 35.8945 19.1567 34.2196 19.2745 34.0849C19.4176 33.9166 20.9074 32.8645 21 32.8645C21.0926 32.8645 22.5824 33.9166 22.7255 34.0849C22.8517 34.2364 25.1747 35.8945 25.2589 35.8945C25.301 35.903 25.5451 36.0713 25.7976 36.2733C26.0501 36.4753 27.0433 37.216 28.0028 37.9146C28.9623 38.6132 29.7872 39.2444 29.8461 39.3118C29.8966 39.3791 29.9808 39.4296 30.0313 39.4296C30.0733 39.4296 30.2333 39.5222 30.3764 39.6316C31.0497 40.1366 31.3359 40.2292 32.2786 40.2292C32.9098 40.2292 33.2212 40.1871 33.3812 40.0945C34.6521 39.3623 35.0982 38.6721 35.0814 37.4517C35.0729 36.9382 34.9551 36.5258 34.1808 34.2112C33.6926 32.7551 33.2886 31.5009 33.2886 31.4336C33.2886 31.3663 32.8509 29.9859 32.3206 28.3783C31.7904 26.7707 31.3527 25.424 31.3527 25.3903C31.3527 25.3567 31.7062 25.0873 32.1271 24.7843C32.5563 24.4813 33.0361 24.1194 33.2044 23.9763C33.6084 23.6228 35.881 21.9899 36.1755 21.8384C36.3102 21.7711 36.5122 21.628 36.6301 21.5186C36.7479 21.4092 37.6064 20.7695 38.5407 20.0961C39.4665 19.4144 40.2745 18.8168 40.3166 18.7579C40.3671 18.7074 40.5607 18.5643 40.7543 18.438C41.2172 18.1519 41.5034 17.8488 41.7727 17.3354C41.9747 16.9567 42 16.822 42 16.0729C42 15.4164 41.9663 15.1639 41.8401 14.9114C41.596 14.4232 41.0152 13.8256 40.5102 13.5478L40.0641 13.2953L33.7178 13.2533L27.3715 13.2112L26.7992 11.5278C26.4794 10.602 26.2184 9.7771 26.2184 9.68452C26.2184 9.46568 23.6681 1.8232 23.4577 1.41919C22.9611 0.451252 21.6397 -0.163177 20.495 0.0388298ZM21.2525 2.60596C21.3619 2.74063 22.7675 6.89854 22.7675 7.10055C22.7675 7.20155 24.6108 12.8492 25.4104 15.1639L25.5872 15.6941L32.5226 15.711C39.0204 15.7362 39.4665 15.7446 39.5507 15.8793C39.618 15.9887 39.618 16.0729 39.5507 16.1739C39.4665 16.317 38.204 17.2512 35.0477 19.5238C34.2144 20.1214 33.4653 20.6769 33.3896 20.7527C33.1623 20.9631 32.0092 21.7879 31.681 21.9815C31.521 22.0741 31.0076 22.436 30.5531 22.7727C30.0986 23.1178 29.4589 23.5975 29.1307 23.8416C28.8024 24.0941 28.4994 24.3214 28.4657 24.3551C28.4321 24.3971 28.7014 25.3398 29.0717 26.4509C29.4505 27.5703 29.7535 28.5466 29.7535 28.614C29.7535 28.6813 30.4016 30.6677 31.1844 33.0244C31.9755 35.3895 32.6152 37.3927 32.6152 37.4853C32.6152 37.5779 32.5563 37.7126 32.4806 37.7799C32.3796 37.8893 32.3122 37.8977 32.1691 37.8136C31.9503 37.7042 29.8124 36.147 29.7535 36.0629C29.7283 36.0292 29.6188 35.9535 29.501 35.8945C29.2485 35.7683 26.2942 33.6304 26.1764 33.4873C26.0501 33.3442 24.8465 32.4857 24.6866 32.4184C24.6108 32.3931 24.0974 32.0312 23.5587 31.6272C21.6565 30.1963 21.0421 29.7502 21 29.7502C20.9579 29.7502 20.3435 30.1963 18.4413 31.6272C17.9026 32.0312 17.3723 32.4016 17.2713 32.4436C17.1703 32.4857 16.7663 32.7719 16.3707 33.0665C15.083 34.0512 12.7178 35.7851 12.499 35.8945C12.3896 35.9535 12.2465 36.0545 12.1876 36.1134C12.1287 36.1723 11.5563 36.6016 10.9082 37.0645C8.98918 38.4617 8.98918 38.5206 10.7988 33.0412C11.59 30.6508 12.3559 28.2773 12.499 27.7723C12.6505 27.2589 12.9535 26.3162 13.1808 25.6765C13.408 25.0284 13.5932 24.4813 13.5932 24.4476C13.5932 24.414 13.2481 24.1278 12.8188 23.808C12.398 23.4881 11.7078 22.9663 11.287 22.6549C10.8661 22.335 10.4116 22.0236 10.2685 21.9478C10.016 21.8132 8.78717 20.9294 8.71142 20.8284C8.63567 20.7274 5.48778 18.4549 5.35311 18.4044C5.27735 18.3791 5.2016 18.3286 5.17635 18.2949C5.1511 18.2529 4.54509 17.7983 3.82966 17.2765C3.12265 16.7547 2.4998 16.2581 2.4493 16.1739C2.38196 16.0729 2.38196 15.9887 2.4493 15.8793C2.53347 15.7446 2.97956 15.7362 9.47735 15.711L16.4128 15.6941L16.5896 15.1639C17.3892 12.8492 19.2325 7.20155 19.2325 7.10055C19.2325 6.89854 20.6381 2.74063 20.7475 2.60596C20.8064 2.53863 20.9158 2.47971 21 2.47971C21.0842 2.47971 21.1936 2.53863 21.2525 2.60596Z" fill="url(#paint0_linear_105_3803)"/>
<defs>
<linearGradient id="paint0_linear_105_3803" x1="0" y1="40.3047" x2="42" y2="40.3047" gradientUnits="userSpaceOnUse">
<stop stop-color="#A237A1"/>
<stop offset="0.505" stop-color="#4C5ED9"/>
<stop offset="0.93" stop-color="#4C5ED9"/>
</linearGradient>
</defs>
</svg>
