<svg width="32" height="33" viewBox="0 0 32 33" fill="none" xmlns="http://www.w3.org/2000/svg">
<path d="M22.2265 3.4221C20.5654 3.94091 19.524 4.74991 18.6547 6.20082C18.3793 6.66687 17.9834 7.71328 17.8887 8.26726C17.8199 8.60141 17.8199 9.9556 17.8801 10.2458C17.9059 10.3689 17.9403 10.5448 17.9576 10.6415C18.1383 11.5384 18.8441 12.831 19.524 13.5257C20.6515 14.6601 21.9856 15.258 23.5606 15.3284C24.8344 15.3811 25.7553 15.1613 26.7279 14.5721C27.4251 14.1588 28.4234 13.2443 28.4234 13.0245C28.4234 12.9541 28.3374 12.8486 28.2341 12.7695C28.1222 12.6991 27.9415 12.5584 27.821 12.4529C27.5197 12.1979 27.4595 12.1539 27.2099 11.9869C26.9947 11.8462 26.9861 11.855 26.6074 12.2155C25.6521 13.13 25.1098 13.3498 23.7758 13.3586C22.7946 13.3674 22.7774 13.3586 22.1233 13.0333C20.7117 12.3298 19.8941 10.8701 19.9457 9.16419C19.9716 8.34641 20.0834 7.87156 20.4277 7.17688C21.1249 5.74356 22.5106 4.97853 24.1717 5.08405C24.9979 5.13682 25.1959 5.18078 25.7725 5.43579L26.2201 5.63804L26.2373 6.60531C26.2459 7.13292 26.2545 7.59897 26.2631 7.63414C26.2717 7.66931 26.6849 7.6869 27.2013 7.67811L28.1222 7.65173L28.1394 6.24478C28.1566 4.65318 28.1997 4.7587 27.3476 4.20471C25.9619 3.30779 23.7241 2.96485 22.2265 3.4221Z" fill="#F0F6FF"/>
<path d="M4.72822 3.53621C4.69379 3.56259 4.66797 4.00226 4.66797 4.50349C4.66797 5.16299 4.69379 5.40921 4.77986 5.418C4.8315 5.42679 5.25323 5.418 5.70939 5.40921C6.32048 5.40041 6.55286 5.42679 6.63032 5.51473C6.7336 5.64663 7.59428 7.99447 7.59428 8.15275C7.59428 8.19671 7.65453 8.36379 7.72339 8.51328C7.79224 8.67156 7.92134 9.0145 8.01602 9.2783C8.11069 9.5421 8.38611 10.3335 8.6271 11.037C9.6341 13.9212 9.93534 14.783 9.97837 14.95C10.0644 15.2226 10.1677 15.2578 10.9682 15.2578C11.7772 15.2578 11.9838 15.2138 11.9838 15.038C11.9838 14.9764 12.1387 14.5368 12.328 14.0619C12.5088 13.5783 12.8444 12.6726 13.0682 12.0482C13.2834 11.4151 13.5416 10.738 13.6277 10.5358C13.7137 10.3335 13.7912 10.1313 13.7912 10.0785C13.7912 10.0257 13.8428 9.85867 13.9117 9.70039C14.0408 9.39262 14.1355 9.13761 14.5486 8.00326C15.3146 5.87526 15.4523 5.53231 15.5384 5.47955C15.5986 5.44438 16.0204 5.40921 16.4765 5.40921C17.1909 5.40921 17.3114 5.39162 17.3544 5.25093C17.4061 5.06626 17.3974 3.73846 17.3458 3.58018C17.3114 3.50104 16.8982 3.47466 15.6847 3.47466H14.0666L13.8514 4.06382C13.7309 4.39797 13.5072 5.03988 13.3522 5.49714C13.2059 5.9544 12.9047 6.82494 12.6981 7.43169C12.4916 8.03843 12.1215 9.1464 11.8805 9.89384C11.6481 10.6413 11.4157 11.292 11.3813 11.3448C11.3469 11.3887 11.2952 11.5382 11.2608 11.6701C11.2264 11.8196 11.1489 11.9163 11.0628 11.9163C10.9854 11.9163 10.9509 11.8899 10.9768 11.8636C11.0026 11.8284 10.994 11.7317 10.9423 11.6349C10.8907 11.5382 10.4087 10.1488 9.87509 8.54845C9.34147 6.93926 8.86809 5.53231 8.82506 5.40921C8.78202 5.2861 8.6271 4.82884 8.48939 4.39797C8.35168 3.9583 8.20537 3.58018 8.15373 3.54501C8.05045 3.45707 4.80568 3.45707 4.72822 3.53621Z" fill="#F0F6FF"/>
<path d="M5.5473 18.6174L5.57313 19.5232H6.45963H7.33752V23.4538V27.3932H6.43381H5.53009V28.3166V29.2399L5.77108 29.2487C7.08792 29.319 14.025 29.2926 14.1197 29.2223C14.1885 29.1607 14.223 28.8617 14.223 28.3078V27.4812L13.259 27.4636C12.7254 27.4548 11.6667 27.446 10.9093 27.4372C10.1519 27.4372 9.48062 27.402 9.42037 27.3669C9.25684 27.2526 9.28266 22.7152 9.44619 22.1348C9.64415 21.4489 10.0659 20.7542 10.5479 20.3058C11.0815 19.8133 11.529 19.5935 12.1143 19.5495L12.5446 19.5232L12.5619 20.2266C12.5705 20.6135 12.5791 21.0004 12.5791 21.0884C12.5877 21.2291 12.6737 21.2379 13.5172 21.2203L14.4381 21.1939V19.4792V17.7645L13.5344 17.7381C12.4069 17.7029 11.7614 17.826 11.004 18.2129C10.4532 18.4943 9.59251 19.2769 9.35151 19.699C9.18799 19.998 9.09331 19.7606 9.06749 19.0219C9.05028 18.6174 9.03306 18.1954 9.01585 18.0722C8.99864 17.9491 8.98142 17.826 8.98142 17.7821C8.97282 17.7469 8.1982 17.7205 7.25145 17.7205H5.52148L5.5473 18.6174Z" fill="#F0F6FF"/>
<path d="M16.6911 17.7728C16.6567 17.808 16.6309 18.2476 16.6309 18.7489V19.6546L17.3452 19.6634C17.7325 19.6722 18.1198 19.6722 18.1973 19.6634C18.335 19.6458 18.3436 19.8744 18.3522 22.6619C18.3608 25.977 18.3694 26.0826 18.576 26.7772C19.101 28.5095 20.4609 29.5384 22.2855 29.5823C23.2237 29.6087 24.1962 29.3185 24.6696 28.8701C24.7643 28.7821 24.8676 28.7118 24.9106 28.7118C24.945 28.7118 25.143 28.4831 25.341 28.2106C25.5475 27.9292 25.7369 27.6829 25.7799 27.6742C25.8143 27.6566 25.8143 27.595 25.7885 27.5423C25.7455 27.4719 25.7627 27.4631 25.8229 27.5247C25.9176 27.6126 25.9434 27.7357 26.0553 28.5359C26.0897 28.7557 26.1242 28.9756 26.1328 29.0371C26.1414 29.0987 26.1758 29.1778 26.2188 29.213C26.2963 29.3009 29.1968 29.3009 29.2054 29.213C29.2226 29.1339 29.2226 28.8789 29.2054 28.0523L29.1968 27.3928H28.4738H27.7509L27.7078 26.2672C27.6906 25.6517 27.6648 23.5061 27.6562 21.5012C27.6476 19.4963 27.6132 17.8256 27.5787 17.7904C27.5357 17.7464 26.6578 17.7288 25.6164 17.7376L23.7315 17.764V18.7313V19.6985L24.704 19.681L25.668 19.6634L25.6508 22.4509C25.6164 25.4494 25.6078 25.5637 25.1172 26.2936C24.4975 27.2081 23.7401 27.6654 22.7331 27.7269C22.165 27.7621 22.0187 27.7357 21.6658 27.5598C21.1925 27.3136 20.7449 26.7948 20.5297 26.2408C20.4006 25.8979 20.3748 25.3527 20.3318 21.809L20.2888 17.764L18.5158 17.7376C17.5432 17.7288 16.7255 17.7464 16.6911 17.7728Z" fill="#F0F6FF"/>
<path d="M1.85397 27.3662C1.69905 27.3838 1.56995 27.4366 1.56134 27.4893C1.56134 27.5333 1.55273 27.9202 1.55273 28.3599C1.55273 28.7908 1.56134 29.1865 1.56134 29.2392C1.56995 29.292 1.94865 29.3271 2.50809 29.3271H3.44623L3.50648 28.7644C3.55812 28.2016 3.49787 27.3926 3.38599 27.3926C2.53391 27.3486 2.07775 27.3398 1.85397 27.3662Z" fill="#F0F6FF"/>
</svg>
